<?xml version="1.0" encoding="UTF-8"?>
<svg width="26px" height="27px" viewBox="0 0 26 27" version="1.1" xmlns="http://www.w3.org/2000/svg" xmlns:xlink="http://www.w3.org/1999/xlink">
    <!-- Generator: Sketch 50 (54983) - http://www.bohemiancoding.com/sketch -->
    <title>Shape</title>
    <desc>Created with Sketch.</desc>
    <defs></defs>
    <g id="Style-Guide-Product-Website" stroke="none" stroke-width="1" fill="none" fill-rule="evenodd">
        <g id="Icons---Desktop" transform="translate(-61.000000, -31.000000)" fill="#FFFFFF" fill-rule="nonzero">
            <g id="Facebook" transform="translate(60.000000, 30.000000)">
                <g id="036-facebook" transform="translate(1.764005, 1.866850)">
                    <path d="M21.3681452,0 L3.32786996,0 C1.48997471,0 0,1.57676708 0,3.52186418 L0,22.6139036 C0,24.5590007 1.4899143,26.1357678 3.32786996,26.1357678 L12.2252476,26.1357678 L12.2404114,16.7962584 L9.94766394,16.7962584 C9.64970525,16.7962584 9.40787057,16.5412853 9.40672271,16.2259574 L9.39572748,13.2154461 C9.39457963,12.898392 9.63713927,12.6407336 9.93672912,12.6407336 L12.225308,12.6407336 L12.225308,9.73181508 C12.225308,6.35604258 14.1734577,4.51790887 17.0189874,4.51790887 L19.3539638,4.51790887 C19.6527078,4.51790887 19.8949654,4.77422463 19.8949654,5.09044756 L19.8949654,7.62892619 C19.8949654,7.94502125 19.6528891,8.20127308 19.3542658,8.20146488 L17.9213213,8.20216817 C16.3738331,8.20216817 16.0741828,8.98038603 16.0741828,10.1224585 L16.0741828,12.6407975 L19.4745488,12.6407975 C19.7985457,12.6407975 20.0499257,12.9402055 20.0117444,13.2807238 L19.6745775,16.2912352 C19.6423167,16.5793267 19.4114773,16.7963863 19.1373819,16.7963863 L16.0893466,16.7963863 L16.0741828,26.1358957 L21.368266,26.1358957 C23.2061613,26.1358957 24.6960756,24.5591286 24.6960756,22.6140954 L24.6960756,3.52186418 C24.6960152,1.57676708 23.2061009,0 21.3681452,0 Z" id="Shape"></path>
                </g>
            </g>
        </g>
    </g>
</svg>