<?xml version="1.0" encoding="utf-8"?>
<!-- Generator: Adobe Illustrator 22.1.0, SVG Export Plug-In . SVG Version: 6.00 Build 0)  -->
<svg version="1.1" id="Cubes" xmlns="http://www.w3.org/2000/svg" xmlns:xlink="http://www.w3.org/1999/xlink" x="0px" y="0px"
	 viewBox="0 0 1150 1617" style="enable-background:new 0 0 1150 1617;" xml:space="preserve">
<style type="text/css">
	.st0{fill:#FF9F61;}
	.st1{fill:#FF893E;}
	.st2{fill:#F3660B;}
	.st3{fill:#382B1D;}
	.st4{fill:#E8AD95;}
	.st5{fill:#F6F6FC;}
	.st6{fill:#4C4034;}
	.st7{fill:#333ABF;}
	.st8{fill:#E6AC94;}
	.st9{fill:#3B2E21;}
	.st10{fill:#F5ECEC;}
	.st11{fill:#C39584;}
	.st12{fill:#55483D;}
	.st13{fill:#CC9B80;}
	.st14{fill:#796CAE;}
	.st15{fill:#2E2316;}
	.st16{fill:#F2B59C;}
	.st17{fill:#2E2417;}
	.st18{fill:#2C35C1;}
	.st19{fill:#2934C2;}
	.st20{fill:#2833C4;}
	.st21{fill:#574232;}
	.st22{fill:#7C7FDB;}
	.st23{fill:#4A50C7;}
	.st24{fill:#8E90E0;}
	.st25{fill:#514639;}
	.st26{fill:#EEC4B4;}
	.st27{fill:#5056C9;}
	.st28{fill:#ECEDF9;}
	.st29{fill:#E9E9F8;}
	.st30{fill:#6065CE;}
	.st31{fill:#8B90DC;}
	.st32{fill:#9C968E;}
	.st33{fill:#F8F7F7;}
	.st34{fill:#FEFEFE;}
	.st35{fill:#E7AD94;}
	.st36{fill:#E8AD93;}
	.st37{fill:#342612;}
	.st38{fill:#FE883F;}
	.st39{fill:#2B37C4;}
	.st40{fill:#2E38C3;}
	.st41{fill:#E6AE97;}
	.st42{fill:#ECB098;}
	.st43{fill:#2F2417;}
	.st44{fill:#F4B79D;}
	.st45{fill:#343ABF;}
	.st46{fill:#313ACD;}
</style>
<g id="window_outline">
	<path class="st0" d="M0,35l1089.8,629.3V1403L0,773.7V35z"/>
	<path id="Rectangle_6_copy" class="st1" d="M60.2,0L1150,629.3l-60.1,34.7L0,34.7L60.2,0z"/>
	<path id="Rectangle_6_copy_2" class="st2" d="M1149.8,628.4l-60.1,34.7v738.7l60.1-34.7V628.4L1149.8,628.4z"/>
</g>
<g id="Window_Inside">
	<path id="Rectangle_6_copy_6" class="st0" d="M988.5,1185.6L148.1,700.3V196.5l840.4,485.3V1185.6z"/>
	<path id="Rectangle_6_copy_7" class="st2" d="M930.4,1218.4L90,733.1l58.4-33.7l840.4,485.3L930.4,1218.4z"/>
	<g>
		<path class="st3" d="M553,471c3.6,1.1,7.2,2,10.7,3.4c15,5.9,25.7,22.5,24.9,41c-0.6,13.5,0.5,27,0.2,40.4
			c-0.1,5.3,0.1,10.7-2.7,15.5c-1.6-1-1.1-3-2.1-4.3c-0.3-0.4-0.5-0.8-0.7-1.2c-0.6-1.2-1-2.5-1.6-3.6c-3.5-6.9-10.3-8-15.8-2.7
			c-2.2,2.1-3.6,4.7-4.9,7.4c-2.1,4-2.1,4-4.9,0.4c-0.4-0.3-0.8-0.6-1.1-0.8c-5.6-2.5-8.2-7.7-10.8-12.6c-5-9.4-8.6-19.4-11.6-29.6
			c-1.4-4.9-1.3-4.7-5.5-2.2c-15,9.1-31.2,15.4-48.1,20c-1.3,0.3-2.6,0.7-3.9,0c-5.5-0.4-8.2-4.1-9.8-8.7
			c-4.1-11.8-3.4-23.6,0.5-35.2c2.4-7.2,8.7-11.2,15.2-14.3c12.5-6,25.9-8,39.5-9.6c4-0.5,8.2-0.6,11.6-3.2c2.7,0,5.3,0,8,0
			c2.7,0.8,5.3,0.8,8,0C549.7,471,551.3,471,553,471z"/>
		<path class="st4" d="M450.2,797.6c-1.1,9.6-6.5,13.4-16,15.1c-23.2,4.1-46.1,9.6-69.2,14.3c-7.4,1.5-12.6,6.5-18.2,10.8
			c-8.1,6.2-16.2,12.3-25.8,16c-16.9,6.5-33.6,1.3-44.5-13.6c-0.4-0.5-1-0.9-1.5-1.3c0-2,0-4,0-6c6.3-9,16.1-11.1,26-12.9
			c5.5-1.1,11.2-1.8,16.4-4c2-0.8,4.5-1.8,4.3-4.2c-0.2-2.6-3-2.7-5.1-3.2c-4.2-0.9-8.2,0.6-12.3,0.8c-1.3,0.1-2.6,0.4-3.9,0.5
			c-2.1,0.1-4.1-0.3-5-2.4c-0.9-2.2,0.3-4,1.9-5.2c8.6-6.4,18.4-8.8,28.7-6.4c12.1,2.8,24.2,4.6,36.5,2.1c9.8-2,18.6-7.1,27.7-11.2
			c9.7-4.4,19.1-9.3,28.8-13.8c3.2-1.5,4.8-3.5,5.2-7.1c0.7-5.8,1.9-11.4,2.9-17.2c1.2-0.9,2.5-0.8,3.8-0.4c6.5,2,13,4.1,19.6,5.9
			c2.6,0.7,3.8,2.5,4,5.1c0.2,3.3,0.4,6.7,0,10c-0.9,6.6-0.7,13.3-1,19.9C453.2,792.3,453.4,795.6,450.2,797.6z"/>
		<path class="st5" d="M638,734c0.3,0,0.6,0,1,0c0,3.7,0,7.3,0,11l-0.5,0l-0.5,0C635.8,741.3,635.8,737.7,638,734z"/>
		<path class="st6" d="M548,471c-2.7,1.5-5.3,1.6-8,0C542.7,471,545.3,471,548,471z"/>
		<path class="st7" d="M638,734c0,3.7,0,7.3,0,11c-0.5,3.8-0.9,7.5-1.4,11.3c-0.9,6.8-5.1,11.4-10.6,14.8
			c-5.6,3.5-11.6,5.7-18.4,4.7c-3.4-0.8-6.8-0.8-10.2,0.3c-2.9,0.4-3.6,2.1-3.4,5c0.8,10.6,2.6,21.2,2.3,31.9c-0.1,2.3,0,4.7-0.4,7
			c-1,5.2-1,10.4,0.1,15.6c0.6,6.5,0.4,12.9-0.1,19.4c-0.9,11.4-0.6,22.9-0.1,34.4c0.8,14.9,2.2,29.8,2.6,44.8
			c0.1,3.3-0.2,6.7-1.9,9.7c-4.6,3.9-10.3,4.8-16,5.7c-42.9-24.9-85.7-49.9-128.6-74.7c-2.6-1.5-3.2-3.2-3.1-6
			c0.5-16.5,0.9-33,1.3-49.4c1.1-5.4-0.3-10.9,0.8-16.3c0-1.8,1.1-3.8-0.7-5.4c2-1.8,1.3-4.4,1.4-6.5c0.6-10.3,0.9-20.6,1.6-30.8
			c0.2-3.1-0.8-4.2-3.8-5c-7.5-1.9-15-4.3-22.4-6.5c-6.4-3.1-6-9.1-5.6-14.7c0.6-8.3,2.5-16.4,4.8-24.4c4.3-14.9,9.5-29.4,15-43.9
			c5.1-13.4,15.9-20,29-23.6c2.7-0.7,4.8-1.8,6.8-3.7c5.1-5,11.2-8.2,17.8-10.7c2.6-0.5,4.2,1.3,6.2,2.4c2.5,1.4,5.3,1.5,7.9,2.1
			c3.7,0.9,4.7,3.8,5.2,7.1c2,13.5,3.6,14.8,17.3,12.4c9.9-1.7,19.2-4.7,24.1-14.7c0.2-0.4,0.5-0.8,0.8-1.2c0.3-0.4,0.5-0.8,0.8-1.2
			c1.2-2.4-0.1-5.3,1.5-7.7c0.4-0.3,0.9-0.4,1.3-0.1c13.5,2.4,26.7,5.5,38.4,13.1c6,3.9,11.6,8.3,17.5,12.2
			c8.8,5.9,11.2,16.1,14,25.7C635.2,696.2,636.7,715.1,638,734z"/>
		<path class="st4" d="M508.8,633.2c-5.5,0.4-9.7-2.5-13.8-5.5c-11-13.2-14.1-29.4-16.7-45.6c-2.1-13.2-3.1-26.6-3.2-40.1
			c13.3-3.7,26.3-8.4,38.8-14.2c6.2-2.9,12.2-6.1,17.7-10.9c3,9.5,5.7,18.7,9.5,27.5c2.5,5.8,5.2,11.5,9,16.6
			c1.7,2.2,3.8,3.6,6.2,4.9c-0.4,0.6,0,1.2,0.2,1.7c0.3-0.5,0.1-1.2,0.6-1.5c1.5,0.5,0.4,2.2,1.4,2.9c3.8-6.4,6.2-14.8,16-14.1
			c6.2,0.5,8.6,5.5,9.7,11c1.5,3.1,1,6.2-0.1,9.2c-2.3,6.6-4.5,13.3-12,15.9c-1.3,0.4-1.9,1.3-2,2.5c-1.1,10.4-6.4,18.6-13,26.3
			c-5.9,7.6-14.5,10.2-23.1,12.9c-4.8,1.5-9.8,1.6-14.7,2.5C515.4,636,512.3,633.6,508.8,633.2z"/>
		<path class="st8" d="M595,820c0.6-12.9-1.1-25.7-2.3-38.6c-0.6-6.4-0.8-6.4,5.3-6.5c3.3-0.7,6.6-0.7,10,0
			c13.6,0,23.1-6.4,28.7-18.7c0.6,24,0,47.9-1.4,71.8c-1,17.6-2.2,35.2-4.2,52.7c-1,8.7-1.9,17.5-3.3,26.2
			c-2.9,16.8-3.1,33.5,0.7,50.2c1.2,5.4,1.5,11.1,0.9,16.8c-0.4,3.3-1.5,3-3.7,1.8c-11.2-6.6-22.3-13.2-33.5-19.7
			c-0.6-4.4,0.7-8.2,3-11.8c3-5.6,2.1-11.7,1.7-17.6c-2.3-29.4-3.6-58.7-1.6-88.2c0.1-1.2-0.1-2.3-0.1-3.5
			C594.2,830,594.2,825,595,820z"/>
		<path class="st9" d="M595.1,944.2c-0.5,4-1.6,8-3,11.8c-3.8-2.2-7.6-4.4-11.4-6.6C585,946.6,590.4,946.3,595.1,944.2z"/>
		<path class="st10" d="M450.9,803c0.1,5.4,0.4,10.9-0.8,16.3C450.2,813.9,449,808.4,450.9,803z"/>
		<path class="st11" d="M508.8,633.2c12.1,1.8,23.6-0.5,34.7-5.1c5-2,8.9-5.7,13.6-8.1c0,1.7,0,3.4,0,5c0.1,3.7,0.6,7.3-0.2,11
			c-0.6,5.3-4.2,8.5-8.4,11.1c-7.7,4.7-16.3,6.8-25.2,6.8c-6.3,0-7.8-1.3-9.2-7.6c-0.6-2.8-1.1-5.6-1.3-8.4
			C512.5,635.3,511.4,633.6,508.8,633.2z"/>
		<path class="st12" d="M584.1,575.2c0-3.1,0-6.1,0.1-9.2c0.3,0,0.6,0,0.8,0c1.3,1.8-0.3,4.2,1,6C586,573.4,585.4,574.5,584.1,575.2
			z"/>
		<path class="st13" d="M556.9,635.9c-1.4-3.7-1.7-7.4,0.2-11c0.2,0.3,0.4,0.6,0.6,1c0.1,3.4,1,6.9-0.6,10.2L556.9,635.9z"/>
		<path class="st14" d="M557.1,636.1c0.1-3.4-0.9-6.9,0.6-10.2c0.8,0.3,1.5,0.6,2.3,1c-0.3,0.1-0.7,0.2-1,0.3
			c-1.4,2.8,0.4,6-1.1,8.8C557.7,636,557.4,636,557.1,636.1z"/>
		<path class="st15" d="M586,572c-1.8-1.7-0.6-4-1-6c1.8,1.5,0.7,3.6,1.2,5.3C586.3,571.6,586.2,571.8,586,572z"/>
		<path class="st16" d="M557,566.1c0,1.3,0,2.6,0,2.7c0.2-0.3-3.3-1.2-0.8-2.9C556.5,565.8,556.8,565.9,557,566.1z"/>
		<path class="st17" d="M570.3,553.2c2.3-0.1,3.6-0.5,4.9,0.4C573.7,554.1,572.3,554.2,570.3,553.2z"/>
		<path class="st18" d="M595,820c0,5,0,10,0,15C593.4,830,593.4,825,595,820z"/>
		<path class="st19" d="M608,774.9c-3.3,0.4-6.6,0.4-10,0C601.3,773.5,604.7,773.5,608,774.9z"/>
		<path class="st20" d="M557.9,636c0.6-2.9-1.1-6.1,1.1-8.8C558.6,630.1,560.1,633.3,557.9,636z"/>
		<path class="st21" d="M562.3,589.4c1.8-0.4,2.7,0.3,3.8,1.7C564.3,591.4,562.9,591.6,562.3,589.4z"/>
	</g>
	<path id="Rectangle_6_copy_8" class="st1" d="M148.8,699.7l-58.1,33.5V229.4l58.1-33.5V699.7L148.8,699.7z"/>
</g>
<g>
	<path class="st22" d="M306.9,1122.2c-1,22.9-2,45.9-3.1,68.8c-0.2,4.7-2.5,8.7-6.1,11.6c-4,3.3-5.3,7.2-4.9,12.2
		c0.2,2.9,0.6,6-0.5,8.9c-3.2-4.4-1.1-9-1.3-13c-18.5,13.3-40.7,18.3-63.8,20.9c-8,0.9-15.9,0.2-23.8,1.2c-0.4,0.3-0.7,0.7-0.8,1.1
		c-0.4,0.9-0.7,1.8-1.5,2.3c-2.5-0.4-2.3-4.8-5.7-3.8c-20.6-1-41-2.9-60.9-8.4c-8.1-2.2-15.5-5.8-22.8-9.8
		c-11-8.1-17.2-18.2-14-32.6c2.3-10.5,3.6-21.3,5-32c0.2-2,0.1-4,0.1-6c1.5-11.9,1.5-23.8,0-35.7c-0.1-2.5,0.3-5-0.4-7.4
		c-0.2-0.8-0.3-1.6-0.4-2.3c-0.1-2,0.1-4.1-0.6-6c-0.2-0.7-0.3-1.5-0.4-2.3c-0.2-2.3,0.1-4.5-0.6-6.7c-0.2-0.8-0.3-1.5-0.4-2.3
		c-0.1-2.3,0.1-4.7-0.7-7c-0.2-0.8-0.3-1.6-0.4-2.5c-1.3-14.7-2.8-29.4-3.7-44.2c-0.5-8.3-1.2-16.6-1.4-24.9c-0.1-8-0.1-8-7.6-10.6
		c-1.1-0.4-2.2-0.7-3.3-1.2C77.4,989,75.1,985,74,980c0-1.7,0-3.3,0-5c0.8-4.3,0.8-8.7,0-13c0-2.3,0-4.7,0-7
		c1.3-16.4,5.5-32,11.5-47.3c4.8-12.4,12.8-21.7,25.1-27c11-4.7,20.5-12.5,32.1-16.1c8-2.5,16-4.6,24.2-5.9c1.4-0.2,3-0.6,4.4,0.2
		c1.3,7.8,7.3,9.9,13.8,11.4c7.3,1.7,14.6,3.1,22.2,1.4c7.2-1.6,13.5-3.8,15.5-11.9c8.2-0.2,15.8,2.3,23.1,5.3
		c16.7,6.9,30.9,17,42.7,31.1c10.8,12.9,15.4,27.8,18.5,43.6c3.2,16.3,5.3,32.8,5.5,49.5c0.1,6.6-0.4,13.2-0.3,19.9
		c0,3-0.7,5.9-2.1,8.7c-5.9,10.3-14.6,16.9-26.4,18.9c-1,0.3-2,0.4-3.1,0.4c-4.4,0.1-8.9,0-13.3,0.1c-1.8,0-3.9-0.2-3.3,2.8
		c0.1,0.8,0.2,1.6,0.3,2.4c2.8,24.4,6.1,48.8,9.1,73.2c0.4,3.4,2.4,4.8,5.4,5.5c6.4,1.5,12.8,1.4,19.3,0.7
		C301.1,1121.7,304,1120.3,306.9,1122.2z"/>
	<path class="st7" d="M286,1472c24.9,4.4,49,11.1,71,24c8.7,5.1,16.6,11.1,23.2,18.7c15.9,18.5,15.7,39.5-0.8,57.6
		c-13.8,15.1-31.5,23.8-50.2,30.5c-19.8,7.1-40.3,11.3-61.3,13.4c-2,0.2-3.9,0.6-5.9,0.8c-1.9,1.2-4.2-0.3-6,1c-3.3,0-6.7,0-10,0
		c-1.8-1.1-3.8-0.3-5.6-0.5c-4.8,0.3-9.6-0.6-14.4,0.5c-2,0-4,0-6,0c-1.3-0.8-2.7-0.8-4,0c-1.7,0-3.3,0-5,0c-1.6-1-3.5-0.3-5.2-0.5
		c-28-1.2-55-7.3-80.8-18.3c-16-6.8-30.8-15.7-42-29.6c-4.5-5.5-7.5-11.6-9.1-18.6c0-1.3,0-2.7,0-4c0.8-2.7,0.8-5.3,0-8
		c0-1.7,0-3.3,0-5c4.6-18.6,18.2-29.6,33.5-39c6.5-4,13.5-7.3,20.6-10.2c2.1-0.9,4.5-2.7,6.8,0c1.6,8.8,3.4,17.6,3.2,26.6
		c-0.5,1.8-1.4,3.4-2.1,5.1c-4.4,10.8,0.6,18.5,12.2,19.3c12.6,0.9,24.5-1.5,36.2-5.7c14.4-5.2,27.9-12,38.1-23.8c1-1.1,1.9-3,4-2
		c1.1,1.1,1.5,2.5,1.7,4c1.9,14.6,4.2,29.1,7.8,43.4c0.2,1,0.3,2,0.2,3c-0.1,1.1-0.5,2-1.4,2.7c-1.5-0.7-2.1,0.3-2.2,1.5
		c-0.2,1.9-0.1,3.9-0.1,5.9c0-5.1,0-5.1,1.8-6.5c0.8,1,0.9,2.1,1,3.3c0.9,9.3,4.8,12.8,14.4,13.4c14,0.8,27.1-2.7,39.9-7.5
		c9.4-3.5,18.1-8.3,26-14.6c4.4-3.4,8-7.5,10.3-12.6c3.7-8.4,0.5-16.1-8.1-19.3c-9.9-3.7-19.6-2-29.4,0.9c-2,0.6-4.3,2.5-6.3-0.3
		c-1.1-5.5,0-11,0.5-16.3c0.8-9.3,0.1-18.6,1.6-27.8C284.5,1475.3,284.5,1473.3,286,1472z"/>
	<path class="st3" d="M202,683c1.5,2,3.9,1.4,5.9,1.8c15.6,2.8,30.4,7.3,43.3,17c13.2,10,17.7,23.2,12.9,37.7
		c-1.8,5.3-6.1,9.1-9.1,13.6c-1.2,4.7-4.9,7.4-8.2,10.4c-6,5.4-8,11.8-6.7,19.7c0.6,3.6,0.5,7.3,1.1,10.9c0.4,2.4-0.5,4.5-2.4,6.2
		c-3.8,3.3-5.8,2.9-7.5-1.9c-2.7-7.5-6.3-14.3-14-17.9c-1.7-0.6-3.4-1.1-5.2-0.5c-3.5,0.9-5.8,3.1-7.5,6.3c-2,6.9-2,13.7,0.7,20.5
		c1,2.7,1.8,5.6,3.9,7.5c4.8,4.5,4.5,10.1,4.2,15.8c-0.2,3.8-2,6.7-5.4,8.4c-6.5,3.4-13.3,5.2-20.7,4.5c-3.3-1-6.7-0.9-10.1-0.2
		c-2.8,0.5-5.1-0.9-7.5-2c-28-16.3-46-39.9-51.5-72.1c-3.1-18.2-1.8-36.2,7-52.9c9.7-18.3,25-28.8,45.5-31.9
		c1.1-0.2,2.3-0.2,3.3-0.9c2.7,0,5.3,0,8,0c3.7,0.8,7.3,0.8,11,0c1.3,0,2.7,0,4,0c0.7,0.6,1.3,0.6,2,0C200,683,201,683,202,683z"/>
	<path class="st8" d="M465,1026c0.7-0.6,1.5-1.3,2.2-1.9c1.7-1.4,3.1-3.8,5.8-2.9c2.5,0.9,2.9,3.3,3.1,5.7c1.2,2.6-0.4,5.5,0.9,8.1
		c0,0.7,0,1.3,0,2c-3.4,8.8-7.3,17.4-13,25c-5.2,11.2-17.6,17.2-31,15c-4.3-2-8.7-1.3-13.1-0.1c-12.2,3.3-23.6,8.9-35,14.2
		c-17.6,8.2-35,16.9-53.3,23.6c-8.1,3-16.3,5.7-24.7,7.5c-9.5,1.7-19,2.8-28.7,0.7c-4-0.9-5.9-2.7-6.4-7.3
		c-2.2-20.1-4.9-40.2-7.4-60.2c-0.6-4.4-0.9-8.9-1.3-13.4c0.1-3.8,1.8-5.2,5.8-5.1c5,0.1,10.1,1.3,14.9-1c11-2.3,19.3-8.3,25.2-17.8
		c1.1,18.4,1.9,36.8,2.2,55.2c0.1,6,0.7,6.2,6.4,4.7c23.9-6.4,47.7-12.7,71.6-19c1-0.3,1.9-0.6,2.8-1c5.8-3,12.3-3.7,18.5-5.2
		c3.7-0.9,6.1-3.2,7.6-6.6c4.4-9.9,12-17.1,19.8-24.1c4.5-4,8.3-3.7,10.8-0.2c2.6,3.5,1.4,8-2.9,11.2c-1.3,1-2.9,1.7-4.4,2.3
		c-1.9,0.8-3.5,1.9-4.9,3.4c-2.3,2.6-4.2,5.4-1.8,8.9c1.8,2.7,6.7,3,10,0.8c3.2-2.2,5.7-5,8.1-8.1c2.8-3.5,5.4-7.2,8.1-10.8
		C462.1,1028.1,463.1,1026.6,465,1026z"/>
	<path class="st23" d="M226,1618c4.9-2.2,10-0.4,15-1c0.3,0.2,0.4,0.4,0.3,0.7c-0.1,0.2-0.2,0.3-0.3,0.3C236,1618,231,1618,226,1618
		z"/>
	<path class="st24" d="M74,962c1.6,4.3,1.6,8.7,0,13C74,970.7,74,966.3,74,962z"/>
	<path class="st25" d="M193,683c-3.7,1.6-7.3,1.6-11,0C185.7,683,189.3,683,193,683z"/>
	<path class="st26" d="M477,1035c-2-2.5-0.6-5.4-0.9-8.1c0.3,0,0.6,0.1,0.9,0.1C477,1029.7,477,1032.3,477,1035z"/>
	<path class="st27" d="M74,1539c1.5,2.7,1.5,5.3,0,8C74,1544.3,74,1541.7,74,1539z"/>
	<path class="st28" d="M256,1618c1.8-1.9,4-0.9,6-1c0,0.3,0,0.7,0,1C260,1618,258,1618,256,1618z"/>
	<path class="st29" d="M206,1618c0-0.3,0-0.6,0-1c1.7,0,3.6-0.9,5,1C209.3,1618,207.7,1618,206,1618z"/>
	<path class="st30" d="M241,1618c0-0.3,0-0.6,0-1c1.7,0.2,3.6-0.8,5,1C244.3,1618,242.7,1618,241,1618z"/>
	<path class="st31" d="M216,1618c1.3-1.6,2.7-1.4,4,0C218.7,1618,217.3,1618,216,1618z"/>
	<path class="st32" d="M199,683c-0.7,1.4-1.3,1.2-2,0C197.7,683,198.3,683,199,683z"/>
	<path class="st3" d="M286,1472c-0.9,16.8-1.9,33.5-2.8,50.3c2.6,4.7,0,9.5,0,14.2c-0.1,5.9-1.1,11.9-2.1,17.8
		c-0.9,5.3-3.8,8.5-8.9,10.4c-11.5,4.1-22.2,2.7-32.6-3.5c-2.4-1.4-4.3-3.2-4.4-6.2c-4.4-16.8-6.4-34-9.3-51
		c-3-6.5-2.7-13.6-3.8-20.4c-0.5-5.6-1.4-11.2-1.9-16.8c-2.5-18-3.9-36.1-5.8-54.1c-2.5-23.8-4.5-47.7-6.7-71.6
		c-2-21.6-3.5-43.1-5.4-64.7c-1-10.8-1.5-21.6-2.6-32.4c-0.3-2.8-0.9-5.7,1-8.2c0.1-0.9,0.2-1.8,0.4-2.6c5.1-1.2,10.2,0,14.6-0.5
		c-4.4-0.3-9.6,0.6-14.6-0.5c1.6-1.9,3.7-0.9,5.5-0.9c23-0.2,45.4-3.1,66.8-12.1c6.4-2.7,12.4-6.2,18.8-11c0,5.9,0,10.8,0,15.7
		c-0.9,65.1-2.4,130.2-4.4,195.3C287.3,1436.7,286.6,1454.3,286,1472z"/>
	<path class="st33" d="M433,1077c12.2,1.8,20.9-4.1,28.5-12.6c0.8-0.8,1.7-1.6,2.5-2.3c1.8,3.5,0.9,7.2,1,10.8
		c0.2,6.2,0,12.3,0.1,18.5c0.1,3.3-0.9,4.5-4.1,2.7c-7.3-4.3-14.6-8.6-21.8-12.9c-3.5-2.1,0.2-1.9,1.3-2.5
		C437.7,1077.3,435,1079.1,433,1077z"/>
	<path class="st3" d="M133.7,1483.8c-7.6-72.2-12.9-144.5-18.1-216.9c-0.1-1.7-0.4-3.3-0.7-4.9c-3.2-12.2-3.2-24.7-3.4-37.1
		c0-2.6-0.7-5.3,0.3-7.9c0.1-1.3,0.1-2.6,0.2-3.9c17.7,10.4,37.3,13.7,57.2,15.9c8.9,1,17.9,1.4,26.9,2.1c2.8,6.2,1.8,12.9,1.2,19.2
		c-1.3,12.5-0.7,25-1.4,37.4c-0.7,13.3-1,26.6-1.5,39.9c-0.8,20.1-1.5,40.2-2.5,60.3c-0.8,15.9-1.7,31.9-2.4,47.9
		c-0.5,11.5-1.3,22.9-2.1,34.4c0,1.5,0.1,3-0.1,4.5c-0.4,2.5-1.2,4.9-1,7.5c-0.8,12.1-1.9,24.1-3.9,36.1c-0.7,4.5-3,7.5-7.1,9.5
		c-9.2,4.7-18.5,6.3-28.1,1.4c-7.1-3.7-11-9.4-10.2-17.7C136,1502.3,134.9,1493.1,133.7,1483.8z"/>
	<path class="st34" d="M186.1,1470.8c1.1-20.9,2.3-41.8,3.2-62.8c1.7-39.4,3.3-78.8,4.9-118.1c0.8-19.6,1.3-39.2,2-58.8
		c4.1-1.1,3.8,2.3,4.6,4.5c6,77.4,12.5,154.7,21,231.9c-1,1.3-2.4,1.8-3.9,1.8c-9.6,0.2-19,1.6-28.6,2.4
		C188.2,1471.8,187,1471.8,186.1,1470.8z"/>
	<path class="st8" d="M101.9,1141c-3.8-11.4-4.8-23.4-6.9-35.1c-4.3-25-7.5-50.2-9.8-75.5c-1.3-13.7-2.1-27.5-3.1-41.2
		c0.2,0,0.3,0,0.5,0c12.2,3.5,11.8,3.5,12.5,16c1.1,20.2,2.1,40.3,4.6,60.4c0.3,2.1,0.2,4.3,0.2,6.5c-0.5,9.4,1.5,18.7,2.6,27.9
		c1.5,12.6,1.7,25.1,1.3,37.8C103.8,1138.8,104.2,1140.9,101.9,1141z"/>
	<path class="st11" d="M171,859.2c-0.3-6.4-0.7-12.8-1-19.2c2.4,0.3,4.4,2.3,7,2c2.7-0.1,5.5-0.1,8.2,0.2
		c11.3,3.8,22.9,6.6,34.8,7.4c1.5,0.1,3,0.1,4.1,1.4c-0.3,3-0.6,6-0.8,9c-0.2,6.2-3.7,9.5-9.3,11.4c-13.8,4.7-26.9,2-39.7-3.4
		C170.5,866.4,171.8,862.3,171,859.2z"/>
	<path class="st35" d="M101.9,1141c1.5-1.1,1-2.7,1.1-4.1c0.7-18.6-0.9-37-3.8-55.3c-0.5-3.1-1.2-6.6,0.8-9.6c0,0.6,0,1.2,0.1,1.8
		c1.1,2.3-0.3,4.9,0.9,7.2c0,0.6,0.1,1.2,0.1,1.9c1.2,2.3-0.4,4.9,0.9,7.1c0,0.6,0.1,1.2,0.1,1.8c1.1,2-0.3,4.3,0.9,6.2
		c0,0.6,0.1,1.2,0.1,1.8c1.1,2.3-0.3,4.9,0.9,7.1c1.5,12.3,1.5,24.7,0,37c-0.4,0.5-0.7,1.1-1.5,0.9
		C102.3,1143.6,102.1,1142.3,101.9,1141z"/>
	<path class="st36" d="M283.8,1035.9c0.3,0.3,2.2,0.4,0.5,1c-4.7,1.8-9.8,1.3-14.7,1c-3.4-0.2-5.6,0.8-6.5,4.1
		c0-0.6-0.1-1.2-0.1-1.9c-1.1-2.6-0.1-3.6,2.6-3.6c5.1-0.1,10.3,0.5,15.4-0.4C281.9,1036,282.8,1036,283.8,1035.9z"/>
	<path class="st8" d="M281,1036.1c-4.6,1.9-9.5,0.6-14.2,0.9c-2.3,0.1-4,0.4-3.8,3.2c-1.6-2.9-1-4.3,2.5-4.1
		C270.6,1036.2,275.8,1036.1,281,1036.1z"/>
	<path class="st37" d="M201.1,1232c5,0,9.9,0,14.9,0c0,0.3,0,0.7,0,1c-4.9,0-9.9,0-14.8,0C201.1,1232.7,201.1,1232.3,201.1,1232z"/>
	<path class="st8" d="M103.9,1107c-1.8-2.2-0.6-4.8-0.9-7.1C104.4,1102.1,103.9,1104.6,103.9,1107z"/>
	<path class="st8" d="M101,1081c-1.9-2.2-0.6-4.8-0.9-7.2C101.5,1076.1,100.8,1078.6,101,1081z"/>
	<path class="st8" d="M102.4,1144.9c0.5-0.3,1-0.6,1.5-0.9c-0.1,2-0.2,3.9-0.2,5.9C103.3,1148.2,102.9,1146.5,102.4,1144.9z"/>
	<path class="st8" d="M102,1090c-1.9-2.2-0.6-4.8-0.9-7.1C102.5,1085.1,101.8,1087.6,102,1090z"/>
	<path class="st8" d="M103,1098c-1.8-1.9-0.7-4.1-0.9-6.2C103.4,1093.7,102.9,1095.9,103,1098z"/>
	<path class="st33" d="M465,1026c-5.2,7.3-10.2,14.8-16.6,21.2c-1.7,1.7-3.4,3.2-5.7,3.8c-3.7,0.9-7.1,0.3-9.4-2.8
		c-2.5-3.2-0.9-6.4,1.2-9.1c1.9-2.4,4.1-4.3,7.2-5.2c2.1-0.6,4-1.7,5.5-3.3c2.5-2.7,2.7-5.6,0.5-8.6c-2.4-3.2-5.1-1.9-7.4-0.1
		c-8.4,6.7-16.1,14.1-20.5,24.1c-2.1,4.7-5.2,7.5-10.2,8.4c-5.9,1.1-11.7,2.4-17.5,3.6c0.4-1.2,5-1.2,0.8-3.7
		c-15.5-8.9-30.8-18.2-46.5-26.9c-3.4-1.9-4.3-3.9-4.3-7.3c0.1-38.5,0-77,0-115.4c0-11.9,0-23.9,0-36.7c5.9,3.3,11.1,6.2,16.2,9.2
		c32.2,18.6,64.2,37.4,96.6,55.6c7.4,4.2,10.9,8.6,10.5,17.7c-0.8,22.6-0.3,45.3-0.2,67.9C465.1,1020.9,463.8,1023.4,465,1026z"/>
	<path class="st4" d="M224.1,851c-13.6-0.3-26.7-2.4-39.2-8.2c0.5-0.7,0.9-1.6,2.1-0.8c6.2,0.1,12.2-1.2,18-3.4
		c7.7-3.1,10.4-14.4,5-20.9c-2.7-3.2-5-6.6-5.9-10.8c-1.4-7.3-2-14.7-0.2-22.1c1.9-3.1,4.2-5.6,8.2-6c1.6,0.4,3.3,0.7,5,0.2
		c8.5,3.1,12.1,10.2,15.3,17.9c0.6,1.4-0.7,5,2.6,4.2c2.5-0.7,5.3-2.2,4.9-5.9c-0.5-4.3-0.8-8.6-1.2-12.9
		c-0.8-8.1,0.6-15.1,7.7-20.3c3.3-2.4,5.8-5.9,8.6-8.9c1.2,11.5,4.2,22.8,4.7,34.4c0.7,16.3,2.6,32.8-4.5,48.5
		c-3.7,8.2-9.9,12.7-18.6,13.8C232.4,850.4,228.3,850.7,224.1,851z"/>
	<path class="st38" d="M235.3,1554.9c5.7,8.3,20,12.7,32,9.8c10.1-2.4,11.5-3.7,12.9-14.2c1.2-9.4,2-18.8,3-28.3
		c9.9-4.6,20.3-6.2,31.1-4.2c13.8,2.6,18.7,14.7,10.9,26.3c-3.5,5.2-8.2,9.2-13.3,12.6c-15.2,10.1-32,16.2-50,18.8
		c-3.6,0.5-7.3,0.5-11,0.4c-13.3-0.5-17.4-4.9-17-18.1c-0.3-0.3-0.2-0.6,0.2-0.9C234.5,1556.4,234.9,1555.6,235.3,1554.9z"/>
	<path class="st38" d="M137.1,1511.5c1,1,0.9,2.5,1.1,3.7c1.4,8.8,7.4,13,15.4,14.8c7.7,1.8,14.8,0,21.7-3.5c3.4-1.7,5.2-4.2,5.9-8
		c2.1-12.1,2.7-24.4,4.1-36.6c0.7-0.9,1.4-1.7,2.5-2.1c8.6-2.7,17.3-4.2,26.2-1.9c3.5,0.9,7.1,1.6,9.2,5.2
		c1.4,6.8,2.2,13.8,2.8,20.7c-13.7,18-33.4,25.4-54.1,31.1c-7.1,1.9-14.3,2.5-21.6,2.2c-6.3-0.3-12.8-1-15.8-7.4
		C131.4,1523.4,133.1,1517.1,137.1,1511.5z"/>
	<path class="st39" d="M234.1,1557.2c0.1,0.3,0.1,0.6-0.2,0.9c-2.1,2.4,0,5.5-1.7,8.5c-0.2-3.6-0.8-6.7,0.4-9.6
		C233.3,1555.1,233.8,1556,234.1,1557.2z"/>
	<path class="st40" d="M258.7,1577.8c-3.2,0-6.5,0-9.7,0c0-0.2,0-0.3,0-0.5c3.2,0,6.5,0,9.7,0
		C258.8,1577.4,258.7,1577.6,258.7,1577.8z"/>
	<path class="st41" d="M111.9,1216.9c1,15,2.1,30,3.1,45.1c-6.9-9-6.5-19.6-5.6-30C109.8,1227,110,1221.8,111.9,1216.9z"/>
	<path class="st42" d="M203.8,784.9c0.3,0.5,1.1,1.2,1,1.6c-2.4,6.1-1.4,12.2,0.1,18.3c0.2,0.8-0.2,1.6-0.9,2.2
		C200.8,799.7,200.5,792.3,203.8,784.9z"/>
	<path class="st43" d="M187,842c-0.7,0.3-1.4,0.6-2.1,0.8c-2.6-0.4-5.4,0.6-8-0.9C180.3,840.5,183.7,840.4,187,842z"/>
	<path class="st44" d="M217,779.1c-1.7,1.3-3.4,1.4-5-0.2C213.7,778,215.3,778.4,217,779.1z"/>
	<path class="st45" d="M223.2,1483.1c-9.6-6.1-19.9-5.5-30.4-3.4c-1.9,0.4-3.9,0.9-5.8,1.3c-2.2-1.7,0.4-4.2-1.1-6.1
		c0.1-1.4,0.1-2.8,0.2-4.1c11.8-1.9,23.8-2.4,35.7-3.3C222.1,1472.7,223.5,1477.8,223.2,1483.1z"/>
	<path class="st46" d="M185.9,1475c1.9,1.7,0.7,4.1,1.1,6.1c-0.6,0.3-1.2,0.6-1.8,0.9C184.9,1479.6,185.4,1477.3,185.9,1475z"/>
</g>
</svg>
