<?xml version="1.0" encoding="utf-8"?>
<!-- Generator: Adobe Illustrator 22.1.0, SVG Export Plug-In . SVG Version: 6.00 Build 0)  -->
<svg version="1.1" id="Cubes" xmlns="http://www.w3.org/2000/svg" xmlns:xlink="http://www.w3.org/1999/xlink" x="0px" y="0px"
	 viewBox="0 0 1453 2280" style="enable-background:new 0 0 1453 2280;" xml:space="preserve">
<style type="text/css">
	.st0{fill:#FF9F61;}
	.st1{fill:#FF893E;}
	.st2{fill:#F3660B;}
	.st3{fill:#333ABF;}
	.st4{fill:#EE383C;}
	.st5{fill:#8C8FDB;}
	.st6{fill:#EAEBF8;}
	.st7{fill:#FAEEE9;}
	.st8{fill:#F7E1D9;}
	.st9{fill:#F4D6CA;}
	.st10{fill:#F0CABA;}
	.st11{fill:#FAEDE8;}
	.st12{fill:#E8AD95;}
	.st13{fill:#E6AC94;}
	.st14{fill:#E9AE94;}
	.st15{fill:#3239BF;}
	.st16{fill:#F2F3FA;}
	.st17{fill:#C39584;}
	.st18{fill:#3239C0;}
	.st19{fill:#EEB194;}
	.st20{fill:#C89882;}
	.st21{fill:#ECB093;}
	.st22{fill:#EDB193;}
	.st23{fill:#D4D6F1;}
	.st24{fill:#D19F9A;}
	.st25{fill:#EE363A;}
	.st26{fill:#EE393C;}
	.st27{fill:#E8B49A;}
	.st28{fill:#ED5D59;}
	.st29{fill:#382B1D;}
	.st30{fill:#FEFEFE;}
	.st31{fill:#4950C7;}
	.st32{fill:#54493D;}
	.st33{fill:#A3A7E3;}
	.st34{fill:#6166CE;}
	.st35{fill:#757AD4;}
	.st36{fill:#F1D0C1;}
	.st37{fill:#787DD5;}
	.st38{fill:#5E63CD;}
	.st39{fill:#7C7EDB;}
	.st40{fill:#F8F7F7;}
	.st41{fill:#E6AC95;}
	.st42{fill:#362919;}
	.st43{fill:#E9AE96;}
	.st44{fill:#FD873E;}
	.st45{fill:#2B35C2;}
	.st46{fill:#2233CA;}
	.st47{fill:#2330C3;}
	.st48{fill:#4A42B1;}
	.st49{fill:#737BE1;}
	.st50{fill:#2F38C0;}
	.st51{fill:#484FC6;}
	.st52{fill:#504539;}
	.st53{fill:#F1CFC1;}
	.st54{fill:#484EC6;}
	.st55{fill:#656BCF;}
	.st56{fill:#736A60;}
	.st57{fill:#C1C3EB;}
	.st58{fill:#9295DE;}
	.st59{fill:#6066CD;}
	.st60{fill:#7B80D6;}
	.st61{fill:#A4A7E3;}
	.st62{fill:#D2D4F1;}
	.st63{fill:#FE883F;}
	.st64{fill:#E8AE94;}
	.st65{fill:#2F37C0;}
	.st66{fill:#372B1D;}
	.st67{fill:#2C37C4;}
	.st68{fill:#2E38C2;}
	.st69{fill:#3139C1;}
	.st70{fill:#3139C0;}
	.st71{fill:#1F2DC4;}
	.st72{fill:#212EC4;}
	.st73{fill:#36291B;}
	.st74{fill:#33281C;}
	.st75{fill:#33271A;}
	.st76{fill:#35281B;}
	.st77{fill:#E5AE98;}
	.st78{fill:#FD873C;}
	.st79{fill:#EBB093;}
	.st80{fill:#EEB29A;}
</style>
<g id="Window_Outline-2">
	<path class="st0" d="M926.9,39L71.3,533.2v988.5l855.6-494.3L926.9,39L926.9,39z"/>
	<path id="Rectangle_7_copy_2" class="st1" d="M855.4,0L-0.1,494.3l71.5,41.3L926.9,41.3L855.4,0z"/>
	<path id="Rectangle_7_copy_3" class="st2" d="M72.1,535.6l-71-41V1483l71,41V535.6z"/>
</g>
<g id="Window_Inside-2">
	<path class="st0" d="M172.7,1306.3l629.5-364V214.5l-629.5,364L172.7,1306.3L172.7,1306.3z"/>
	<path id="Rectangle_7_copy_2-2" class="st2" d="M225.3,1335l629.5-364l-52.6-30.4l-629.5,364L225.3,1335z"/>
	<g>
		<path class="st3" d="M593.8,1063c-12.5,8.2-25.8,15-38.7,22.5c-22.9,13.2-45.8,26.3-68.8,39.4c-3,1.7-6.5,2.4-8.6,5.5
			c-2.6,0.8-3.7-1.5-5.5-2.5c-9.7-8.7-18.8-17.9-27.6-27.5c-10.3-10.8-20.5-21.7-30.7-32.7c-3.5-3.8-4.3-7.3-3.3-12.2
			c4.6-22,8.9-44,13.3-66c0.4-1.8,0.9-3.6,0.6-5.4c-1.4-1.6-3.1-0.7-4.7-0.6c-10.5,0.4-20.7-0.9-31-3c-4.4-0.9-8.1-3.6-12.5-4.6
			c-4.8-1.4-8-4.6-9.8-9.2c-1.4-3.7-2.2-7.8-5.9-10.2c-0.4,0-0.8-0.2-1.1-0.6c-1.7-2.4-3-4.9-3.5-7.8c0-0.3,0-0.7,0-1
			c1.2-3.1,0.2-6.3,0.5-9.4c0-0.5,0-1.1,0.1-1.6c0.6-2.6,0.2-5.2,0.4-7.8c4.8-33.6,13.7-66.1,29.2-96.5c4.1-8,8.9-15.6,15.9-21.5
			c7.1-5.9,15.5-8.4,24.3-9.3c3.7-0.4,6.6-1.8,9.4-4.1c11.5-9.7,24.3-17.4,38.5-22.7c2.6-1,5.3-2.1,8.2-1.7c2.7,1.5,3.4,4.2,4.1,6.8
			c0.7,4.5,3.7,6.9,7.9,8.2c4,1,7.3,3.5,11.1,4.8c5.1,2.1,10.4,3.4,16,3.8c2.3,0.7,4.6,0.9,7,0.2c2.7-0.7,5.4-1.4,6.8-4.2
			c2.6-4.4,3.2-9.3,4.4-14.1c0.6-2.3,0.5-5,3-6.6c5.1-1.5,10-0.1,14.8,1.1c19.5,5,38.2,12,53.1,26.3c9.2,8.8,16.5,19.2,21.6,31
			c7.6,17.7,12.1,36.3,13.8,55.5c0,3.7-0.2,7.4,1,10.9c0,2,0,4,0,6c-0.8,5-0.8,10,0,15c0,1.7,0,3.3,0,5c-1.4,0-1.6,1.1-1.6,2
			c-0.3,9.8-6.7,14.4-14.9,17.3c-2.1,2.2-5,2.8-7.8,3.5c-2.2,0.4-4.3,0.8-6.5,1.3c-1.7,0.2-3.4,0.1-5.1,0.7c-0.5,0.1-1,0.2-1.5,0.3
			c-2.4,0.4-4.9-0.2-7.3,0.7c-0.5,0.2-0.9,0.5-1.3,0.8c-2.7,9.6-3.4,19.6-4.5,29.4c-2.6,24.7-3.8,49.6-3.2,74.5
			C593.4,1056,594.1,1059.5,593.8,1063z"/>
		<path class="st4" d="M455.9,687.2c-12.1-7.3-17.1-19.1-19.9-32.1c-3.6-16.9-3.7-34.1-2.4-51.2c0.3-3.5-0.7-4.4-4-5.1
			c-23.4-5-39.8-18.7-49-40.7c-6.5-15.5-3-29.8,8.5-41.9c7.5-8,16.6-13.8,26.8-17.9c1.4-0.6,3.4-0.4,4.1-2.4c7,0,14,0,21,0
			c13.1,3.5,21.5,12.6,28.3,23.7c5.5,8.9,5.5,9.1,15.6,7.3c13.5-2.4,26.9-1.3,40.1,1.7c11.1,2.6,22.5,2.3,33.5,5.1
			c15.6,3.9,30.3,9.6,41.3,21.8c15.2,16.8,20.6,36.6,16.1,58.8c-1.6,7.7-5.1,14.9-14.3,16.7c-0.5-0.1-1-0.2-1.5-0.4
			c-4.2-1.3-8.2,0.5-12.2,1.2c-10,1.8-20,3.3-29.9,4.9c-8.2,1.2-16.4,2-24.6,2.8c-7.4,0.7-14.9,0.8-22.3,0.9
			c-6.8,0.1-13.5-0.7-20.2-1.8c-1.3-0.2-2.6-0.6-3.8,0.4c-1,8.5-0.7,16.9-0.1,25.4c0.2,1.4,0.2,2.7-0.8,3.8c-2.7,1.1-4-1.1-5.4-2.5
			c-3.4-3.2-6.8-6.3-11-8.5c-1.1-0.5-2.2-1-3.3-1.4c-5.9-0.6-7.9,0.5-9.8,5.8c-2.4,6.8-1.9,13.6,0.1,20.4
			C457.1,683.7,459.5,685.9,455.9,687.2z"/>
		<path class="st5" d="M647,917c-1.8-5-1.6-10,0-15C647,907,647,912,647,917z"/>
		<path class="st6" d="M645.1,885c2,1.6,0,4.4,1.9,6c0,1.7,0,3.3,0,5C644.6,892.6,645.2,888.8,645.1,885z"/>
		<path class="st7" d="M356,1062c0.3,0,0.7,0,1,0c2.3,3.4,1.7,7,0.6,10.6c-0.4,0.6-0.9,0.7-1.6,0.4C356,1069.3,356,1065.7,356,1062z
			"/>
		<path class="st8" d="M356,1089c0-3,0-6,0-9c0.6-0.3,1.1-0.2,1.5,0.3c1.2,2.8,1.2,5.6,0,8.4C357.1,1089.2,356.6,1089.3,356,1089z"
			/>
		<path class="st9" d="M356,1089c0.3,0,0.6,0,0.9,0c2.1,2.4,1.7,5,0.6,7.6c-0.4,0.6-0.9,0.7-1.5,0.4C356,1094.3,356,1091.7,356,1089
			z"/>
		<path class="st10" d="M356,1097c0.3,0,0.6,0,0.9,0c2.1,2.7,2.1,5.5-0.1,8.2c-0.3,0-0.6,0-0.9-0.1C356,1102.3,356,1099.7,356,1097z
			"/>
		<path class="st11" d="M356.9,1080c-0.3,0-0.6,0-0.9,0c0-2.3,0-4.7,0-7c0.3,0,0.6,0,0.9,0C358.8,1075.3,358.8,1077.7,356.9,1080z"
			/>
		<path class="st12" d="M356.9,1080c0-2.3,0-4.7,0-7c0-3.7,0.1-7.3,0.1-11c0-2.3,0-4.6,0.1-6.9c1-10.1,0.1-20.2,0.5-30.2
			c0.1-2-0.5-4,0.5-5.9c1.4-21.1,0.3-42.3,2.1-63.4c0.3,0.2,0.6,0.4,0.9,0.6c2.7,2.9,4.5,6.3,6,9.9c2.2,3.8,5.4,6.7,9,9.1
			c4.9,1.2,8.9,4.8,14,5.1c1.5,1,3.3,0.7,5,0.8c0.5,0,1,0.2,1.5,0.4c1.7,1,3.7,0.4,5.5,0.8c6.8,1.7,13.8,0.4,20.7,0.8
			c1.1,0.1,2.3-0.5,3.4,0.2c-0.8,10.1-3.6,19.9-5.5,29.8c-2.9,15.2-6,30.3-9.2,45.4c-0.6,2.8,0.2,4.6,2.1,6.6
			c9.8,10.4,19.6,20.8,29.3,31.3c1.1,1.2,2.1,2.5,3.1,3.8c0.1,2.5,2.4,3.5,3.9,4.9c7,7.2,13.9,14.4,21.3,21.1c0.6,0.6,1.1,1.3,2,1.1
			c1.6,1,3.2,2,4.8,3c2.4,4.1,6.5,6.5,10.4,8c13.9,5.4,27.6,10.8,42.9,12.3c15.7,1.6,29.1,9.9,39.8,21.8c1.2,1.3,2.1,3,2.7,4.7
			c0.9,2.7,1.4,5.7-1,7.9c-2.3,2-4.7,0.8-7-0.3c-6.5-3.1-12.9-6.1-19.3-9.3c-2.8-1.4-5.7-1.5-8.7-1.5c-2.1,0-4.1,0.4-5,2.5
			c-1,2.2-0.3,4.2,1.4,5.9c5.9,6.2,12.6,11.4,20.3,15.2c11.3,5.7,21.1,13.2,28.9,23.2c6.7,8.5,3.9,19.2-6.8,24.1
			c-21.9,10-47.5,9-66.4-9.8c-9.6-9.5-17.5-20.3-24.1-32.3c-4.1-7.5-9.2-14.6-14.1-21.6c-1.7-2.4-4.2-4.2-6.8-5.8
			c-7.6-4.5-15.1-9.1-22.5-13.9c-2.5-1.6-5-2.6-7.9-2.7c-3.1-4.1-7.8-6.1-11.9-8.8c-3.6-2.4-7.3-4.7-10.9-7
			c-2.9-1.4-5.7-2.9-8.1-5.1c-3-3-7.3-4.4-10.1-7.7c-9.9-7.8-20.9-14-31.3-21.1c-1.8-1.2-3.4-2.6-5.2-3.8c0-2.7,0-5.4,0.1-8.2
			c0-2.7,0-5.3,0-8C356.9,1086,356.9,1083,356.9,1080z"/>
		<path class="st13" d="M622.7,943.9c2.6-0.8,5.2-1.7,7.7-2.5c-2.3,8.1-2.1,16.5-2.8,24.7c-1,12.7-3.2,25.5-2.4,38.3
			c0.7,11.4,1.7,22.9,2.8,34.3c0.3,3.6-0.6,5.9-3.9,7.6c-9.1,4.8-18.1,9.9-27.1,14.9c-2.2-2.4-2.4-5.4-2.4-8.4
			c-0.4-22.4,0.5-44.7,2.8-67c1-9.5,1.6-19.1,3-28.6c0-0.7,0,0.2,0-0.5c0.8-9.2,0.9-9.3,9.9-10c4-1,8.1-1.3,12.2-1.9
			c0.7-0.1-0.1,0.2,0.5-0.2C623.6,944.3,622.7,944.2,622.7,943.9z"/>
		<path class="st3" d="M412,1141.9c7.4,4.7,14.8,9.5,22.3,14.2c1.6,1,1.8,1.7,0.1,2.6c-5.9,1.8-11.2,4.9-16.5,7.9
			c-10.1,5.7-20.2,11.4-31.2,17.7c1.4-18.9,3.5-36.6,6.7-54.2c4.1,1.6,7.5,4.2,10.9,6.8C406,1139.9,408.5,1141.6,412,1141.9z"/>
		<path class="st14" d="M602,957c-1,7.8-2.3,15.6-2.9,23.5c-1.9,23.1-3.6,46.2-3.2,69.3c0.1,3.9,1.1,7.5,1.1,11.3
			c-0.5,0.7-1.2,1-2.1,0.8c-2.5-1.7-1.8-4.3-2-6.7c0-11.9,0-23.8,0-35.7c0-2.1-0.1-4.2,0.2-6.3c1.5-3.6,0.6-7.3,0.8-11
			c0-1.4-0.1-2.8,0.2-4.2c1.3-2.6,0.6-5.3,0.8-8c-0.1-1.3,0.1-2.7,0.5-3.9c0.8-2.3,0.3-4.7,0.5-7c0-1,0-2.1,0.2-3.1
			c1.1-1.9,0.7-3.9,0.8-5.9c0-1,0.2-1.9,0.5-2.9c0.6-1.6,0.4-3.2,0.5-4.9c0-0.7,0.1-1.4,0.3-2c0.4-0.8,0.7-1.6,1.1-2.5
			c0.4-0.6,0.8-1,1.5-1.3C601.3,956.6,601.7,956.7,602,957z"/>
		<path class="st15" d="M594.1,1013.5c0,1.9-0.1,3.7-0.1,5.6c-0.8,12.3-0.8,24.6,0,37c0.3,2,0.7,4,1,6c-0.4,0.3-0.8,0.7-1.2,1
			c-1.4-2.3-1.8-4.9-1.8-7.6c0.1-12.8-0.6-25.7,0.2-38.5c1-16.7,1.9-33.4,4.6-49.9c1-5.7,1.4-11.5,2.2-17.2c0.2-1.2-0.8-3.3,2-2.8
			c1,1.1,1,2.3,0.8,3.7c-0.6,1.2-0.9,2.4-1,3.7c-0.7,1.9-1.2,3.9-1.7,5.9c-0.1,0.6-0.1,1.2-0.2,1.8c-1,1.7,0,3.7-0.8,5.4
			c-0.1,0.9-0.1,1.8-0.2,2.6c-1.1,2,0.1,4.3-0.8,6.4c-0.1,0.9-0.1,1.8-0.2,2.6c-1.1,2.4,0.1,5-0.8,7.4c-0.1,1.2-0.1,2.4-0.2,3.6
			c-1.2,2.7,0.2,5.7-0.8,8.4c0,1.2-0.1,2.4-0.1,3.6C593.7,1005.7,595.2,1009.7,594.1,1013.5z"/>
		<path class="st16" d="M424,1783c-1.1-0.2-2.3,0.4-3.2-0.5c-0.1-0.1,0.3-0.9,0.6-1.1C422.9,1780.9,423.4,1782,424,1783L424,1783z"
			/>
		<path class="st16" d="M424,1783c1-0.3,1.9-1.4,3-0.3c0.3,0.3,0.6,0.9-0.1,1.1C425.8,1784.2,424.7,1784.1,424,1783
			C424,1783,424,1783,424,1783z"/>
		<path class="st16" d="M432.3,1784.2c-0.4,0.9-1.1,0.8-1.7,0.7c-0.5,0-1.1-0.2-0.8-0.8c0.2-0.7,0.9-1,1.6-0.8
			C431.7,1783.5,432,1783.9,432.3,1784.2z"/>
		<path class="st17" d="M543.1,766.1c-0.1,1.9-0.1,3.7-0.2,5.6c-1.5,5.6-2.8,11.2-4.4,16.8c-0.5,1.7-1.5,3.3-2.3,4.9
			c-8.3,5.8-17,3-25.6,0.9c-1.9-0.5-3.7-1.7-5.7-1c-3.6-1.7-7.2-3.5-10.9-5.2c-3.7-1.7-6.4-4.3-7.9-8.2c-1.1-2.3-2.2-4.6-3.2-7
			c-2.2-13-0.3-26,0.2-39c2.7-2.8,4.2,0.2,5.6,1.5c7.8,7.4,16.6,13.4,26.4,17.7c7.5,3.3,15.4,5.3,23.5,6.4
			C543.8,760.3,543.8,760.4,543.1,766.1z"/>
		<path class="st18" d="M389.8,981.1c-5.3-0.3-9.8-2.6-13.9-5.9c1.7-2.1,3-0.1,4.3,0.5c14,6.2,28.6,7.1,43.6,5.8
			c1.6-0.1,3.2-1.2,2.1,1.7c-8.3,1.6-16.6,1.5-24.9-0.2c-1.6-1.2-3.7,0-5.4-0.9l-0.3,0.1l-0.3-0.2
			C393.5,980.7,391.4,982.1,389.8,981.1z"/>
		<path class="st19" d="M472.9,1127.2c-1.3,1.2-2.1,0.1-2.9-0.7c-7.9-7.8-15.7-15.7-23.6-23.6c-0.8-0.8-2-1.6-0.7-2.9
			C454.8,1109.1,463.9,1118.2,472.9,1127.2z"/>
		<path class="st20" d="M504.8,793.3c1.5-2.4,3.2-0.6,4.8-0.2c7,1.6,13.8,4,21.2,2.2c1.9-0.5,2.8-3.7,5.3-1.9
			c-1.6,2.6-3.9,3.9-7,3.7c-2.5,0.6-5,0.6-7.5,0C515.7,797.5,510.2,795.7,504.8,793.3z"/>
		<path class="st18" d="M366.9,966c-2.4-3.1-5.1-5.9-6-9.9c0.1-0.6,0.6-1.7,0.8-1.4C363.9,958.3,367,961.5,366.9,966z"/>
		<path class="st21" d="M601,951.1c0-1.4,0-2.7,0-4.1c0.2-0.1,0.5-0.1,0.7-0.1c2.5-0.8,5.1-0.2,7.7-0.4c0.6,0,1.1,0.1,1.6,0.5
			c-0.4,0.3-0.7,0.7-1.2,0.8c-7.6,1.4-7.7,1.4-7.8,9.2c-0.3,0-0.7,0-1,0C599.6,955,600.5,953.1,601,951.1z"/>
		<path class="st22" d="M611,947c-0.3,0-0.7,0-1,0c-0.3-0.2-0.4-0.5-0.3-0.7c0.1-0.2,0.2-0.3,0.3-0.3c0.2-0.2,0.5-0.2,0.8-0.1
			c1.6-0.9,3.6,0.2,5.2-0.8c2.2-0.4,4.5-0.8,6.7-1.2c0.8,0.1,1.5,0.2,3.5,0.4C620.5,946.4,615.9,947.2,611,947z"/>
		<path class="st15" d="M486.1,779.9c2.6,2.7,5.2,5.4,7.9,8.2C490.2,787.9,485.8,783.3,486.1,779.9z"/>
		<path class="st13" d="M610,946c0,0.3,0,0.7,0,1c-2.8,0-5.5-0.1-8.3-0.1C604.4,945.6,607.2,946.1,610,946z"/>
		<path class="st23" d="M357.1,936.1c0-2.7-1-5.6,0.9-8.1C358,930.7,358.2,933.5,357.1,936.1z"/>
		<path class="st17" d="M521.7,797.1c2.5,0,5,0,7.5,0C526.7,798.2,524.2,798.2,521.7,797.1z"/>
		<path class="st24" d="M616,945.1c-1.5,1.6-3.4,0.9-5.2,0.8C612.4,944.9,614.2,945,616,945.1z"/>
		<path class="st12" d="M543.1,766.1c0.4-3.6-0.8-4.8-4.9-5.3c-19.3-2.4-35.9-10.6-50.1-24c-1.4-1.3-2.1-4.2-5.1-2.8
			c-0.1-2.1-0.8-3.8-2.1-5.4c-7-8.6-11.7-18.4-15-28.9c-1.7-5.4-6.4-8.5-10.1-12.4c0.9-4.7-2.4-8.5-2.4-13.2c0-5.1,0.3-9.9,2.2-14.5
			c2.2-5.6,5.4-6.8,11.5-4.6c0.4-0.6-0.3,1-0.3,0.4c0.1-0.7-0.8-0.6-0.4-0.1c0.9,1,2.2,1.1,3.5,0.9c6.1,2.7,10.1,7.8,14.9,12.1
			c2.3,0.1,1.6-1.6,1.5-2.7c-0.1-1.1-1.1-2-0.9-3.3c0-6.7,0-13.4,0-20.1c0-1.5-0.8-3.3,1.1-4.4c11.8,2.3,23.7,3,35.7,2.3
			c6.3-0.4,12.6-0.4,18.8-1.8c2.2-0.3,4.4,0.2,6.6-0.4c1-0.2,2-0.6,3-0.7c1.7-0.1,3.5,0.2,5.2-0.4c0.7-0.2,1.4-0.4,2.1-0.6
			c1.6-0.2,3.3,0.2,4.9-0.6c0.7-0.3,1.3-0.5,2.1-0.5c1.6-0.1,3.3,0.2,4.8-0.5c0.4-0.2,0.9-0.3,1.3-0.5c1.6-0.2,3.3,0.2,4.9-0.6
			c0.5-0.2,0.9-0.3,1.4-0.4c1.8-0.1,3.5,0.1,5.2-0.8c5.8-0.6,11.5-2.6,17.4-2.4c0.3,0.1,0.7,0.2,1,0.3c-2.1,6.7-1.3,13.8-1.9,20.6
			c-2.2,27.5-5.1,54.8-15.3,80.8c-3.5,8.9-8.2,17-15.8,23.1c-5.3,4.2-11.2,6.6-17.9,6.2C546,760.8,543.7,762,543.1,766.1z"/>
		<path class="st25" d="M551,638c-0.9,0-1.8,0.1-2.8,0.1c-2,1-4.3-0.3-6.2,0.9c-17.3,2.3-34.5,3.3-51.8,0c-1.1-0.2-2.2-0.7-3.3-1.1
			c-0.6-0.5-1.5-0.2-2-0.9c4.8-1.4,9.3,0.9,13.8,1.4c9.1,1,18.3,0.7,27.3,0.4c9.5-0.3,19-1.8,28.5-2.8c1.1-0.1,2.2-0.6,3.3-1
			c0.3,0.3,0.5,0.6,0.6,1c-0.1,0.4-0.3,0.7-0.6,1c-0.6,0-1.2,0.1-1.7,0.1C554.6,638,552.6,636.9,551,638z"/>
		<path class="st25" d="M558,636c0-0.3,0-0.7,0-1c13.5-1.3,26.7-4.1,40-6.5c1.2-0.2,2.9-1.4,2.1,1.4c-5.8,1.8-11.8,2.6-17.9,3.2
			c-1.6,1-3.6-0.3-5.2,1l-0.4,0.1l-0.4-0.1c-1.6,1-3.6-0.3-5.2,0.9l-0.4,0.1l-0.4,0c-1.6,1-3.6-0.2-5.2,0.9c-0.6,0-1.2,0.1-1.8,0.1
			C561.5,636.6,559.7,636.8,558,636z"/>
		<path class="st26" d="M485,637c0.8,0,1.5,0.2,2,0.9c-2.1,1.9-0.9,4.4-1,6.6c-0.1,6.5,0,12.9,0.1,19.4c0.4,0.5,0.2,0.8-0.3,1.1
			c-1.9-5.1-0.5-10.4-0.8-15.6C484.8,645.3,485,641.1,485,637z"/>
		<path class="st27" d="M470,656.1c-2,2.1-3.4-0.6-5.1-0.9c0.8-0.1,1.5-0.2,2.3-0.2C468.1,655.3,469,655.7,470,656.1z"/>
		<path class="st28" d="M485.8,665c0.1-0.4,0.2-0.7,0.3-1.1c1.3,3.8,1.1,4.3-1.3,4.3C486.1,667.4,486,666.2,485.8,665z"/>
		<path class="st7" d="M358,1019c0,10.9-0.1,21.9-0.1,32.8c0,1.2,0.1,2.3-0.8,3.3c0-10.8,0-21.6,0-32.4
			C357,1021.4,356.8,1020,358,1019z"/>
		<path class="st3" d="M412,1141.9c-4,0.6-6.7-1-7.8-5C406.8,1138.6,409.4,1140.3,412,1141.9z"/>
		<path class="st3" d="M389.8,981.1c1.8,0.2,3.7-0.8,5.2,1C393.2,982.1,391.4,982.1,389.8,981.1z"/>
		<path class="st3" d="M395.6,982.1c1.8,0.1,3.8-0.8,5.4,0.9C399.2,983.1,397.3,983.1,395.6,982.1z"/>
		<path class="st3" d="M593.9,1056c-1.3-1.2-0.9-2.7-0.9-4.2c0-9.6,0-19.1,0-28.7c0-1.4-0.4-3,1-4.1
			C594,1031.3,593.9,1043.7,593.9,1056z"/>
		<path class="st3" d="M594.1,1013.5c0.3-3.8-1.1-7.8,0.9-11.4C594.9,1005.8,595.3,1009.7,594.1,1013.5z"/>
		<path class="st3" d="M595.1,998.4c0.2-2.8-1-5.8,0.8-8.4C596,992.9,596.3,995.7,595.1,998.4z"/>
		<path class="st3" d="M596.1,986.4c0.2-2.5-1-5.1,0.8-7.4C597,981.5,597.2,984.1,596.1,986.4z"/>
		<path class="st13" d="M601,951.1c0,2,0,3.9,0,5.9c-0.3,0.3-0.7,0.7-1,1c-0.7-1.3-0.7-2.7,0-4C600.3,953,600.7,952.1,601,951.1z"/>
		<path class="st3" d="M600,954c0,1.3,0,2.7,0,4c-0.3,0.8-0.6,1.5-0.9,2.3C599.3,958.2,598.2,955.9,600,954z"/>
		<path class="st3" d="M597.1,976.4c0.2-2.1-0.9-4.4,0.8-6.4C598,972.2,598.1,974.4,597.1,976.4z"/>
		<path class="st3" d="M598.1,967.4c0.1-1.8-0.8-3.8,0.8-5.4C599,963.9,599.1,965.7,598.1,967.4z"/>
		<path class="st4" d="M542,639c1.9-1.8,4.1-0.7,6.2-0.9C546.3,639.3,544.1,638.9,542,639z"/>
		<path class="st4" d="M551,638c1.5-1.6,3.5-0.8,5.2-0.9C554.7,638.3,552.8,638,551,638z"/>
		<path class="st4" d="M558,636c1.7,0,3.5,0.1,5.2,0.1c-1.6,1.2-3.4,0.9-5.2,0.9C558,636.7,558,636.3,558,636z"/>
		<path class="st4" d="M565,636c1.5-1.6,3.4-0.8,5.2-0.9C568.6,636.2,566.8,636,565,636z"/>
		<path class="st4" d="M577,634c1.5-1.7,3.4-0.8,5.2-1C580.6,634.2,578.8,634,577,634z"/>
		<path class="st4" d="M571,635c1.5-1.7,3.4-0.8,5.2-0.9C574.6,635.2,572.8,635,571,635z"/>
	</g>
	<path id="Rectangle_7_copy_3-2" class="st1" d="M801.7,940.6l52.3,30.2V243l-52.3-30.2V940.6z"/>
</g>
<g>
	<path class="st29" d="M718.2,1054.9c-4.3-0.9-2.9-4.4-2.7-6.8c0.9-17.4,5.2-34.1,12.2-50.1c3.2-7.3,7.4-14,11.3-21
		c2.2-6.8,7.5-11.6,11.3-17.4c2.3-3.4,5.2-6.6,5.4-11c1.6-10.8,2.2-21.7,1.9-32.6c-0.1-2.9-0.9-5.5-2.6-7.9c-1.8-3.2-4.7-3.9-8-3.8
		c-5.5,0.1-11,0.2-16.3-1.4c-5.5-1.6-10.7-3.6-13.9-8.9c-10.6-15.9-11.8-33.6-8.9-51.8c2.9-18.2,11.1-34,23.5-47.7
		c2.8-3.1,4.8-6.8,7.4-10c11.1-13,25.9-18.7,42.2-21.6c1.7-0.3,4.1,0.6,5-2c2.7,0,5.3,0,8,0c5.3,0.8,10.7,0.8,16,0c3,0,6,0,9,0
		c0.7,2.5,3,1.7,4.5,1.9c22.6,3,44,10,64.8,19.3c21.7,9.7,32.6,27.5,37.6,49.7c5.8,25.2,4.4,50.6,1.5,76
		c-2.9,26.3-8.5,52.2-13.4,78.2c-3.5,18.6-1.3,37.2-0.9,55.8c0.7,1.8,1.4,3.5-0.1,5.2c-0.6-0.1-1.4,0.1-1.2-1c-1,0.3-0.1,0.8,0,1
		c0.8,4.1,1.5,8.3,1.4,12.3c-0.3,14.1,0.7,28.3,1.4,42.3c0.8,17.1,1.4,34.1,2.5,51.2c0.8,11.7,1.4,23.5,1.7,35.3
		c-0.4,9-7.4,15.5-17.1,16c-13.3,0.6-26.3-1.5-38.9-5.2c-4.4-1.3-8.7-1.8-13.3-1c-7.2,1.3-14.4,2.8-21.4,5.1
		c-5.7,1.9-11.6,3.2-17.5,3.9c-11.5,1.5-18.2-2.7-21.3-14c-3-10.7-6-21.5-7.7-32.6c-3-18.8-5.8-37.6-9.7-56.1
		c-2.5-11.8-5.6-23.3-10.5-34.4c-3-6.8-6.6-13.1-13.4-17c-7-4.1-14.1-4.6-21.4-0.9C723.9,1053.6,721.4,1055.5,718.2,1054.9z"/>
	<path class="st3" d="M896.1,1890.3c27.4,6.8,53.8,16.2,77.9,31.3c13.9,8.7,26.5,19.1,35.6,33c4,6.2,7.1,12.8,8.9,19.9
		c0.3,1.2-0.2,2.8,1.5,3.4c0,6,0,12,0,18c-3.2,19.1-14.2,33.2-28.6,45.2c-22.7,18.8-49.1,30.4-76.9,39
		c-26.3,8.1-53.3,13.2-80.7,15.6c-6.2,0.5-12.6,0.1-18.8,1.2c-3.3,0-6.7,0-10,0c-2.1-1-4.3-0.3-6.4-0.5c-1.7,0-3.4,0-5.1,0
		c-5.4,0-10.7,0-16.1,0c-2,0-4.1,0-6.1,0c-1.7,0-3.4,0-5.1,0c-2.4,0.3-4.9-0.6-7.2,0.5c-1,0-2,0-3,0c-4.3-2.1-9-1.5-13.5-1.9
		c-41.8-4-82.6-12.3-121-30.2c-20.1-9.4-38.7-20.9-52.7-38.5c-20.4-25.7-20-53.7,1.3-78.7c15.5-18.2,35.4-30,56.9-39.6
		c33.6-15,69.1-22.8,105.5-27.1c5.3-0.6,10.6-1.2,15.9-1.8c1.5,0.8,1.9,2.2,2.2,3.7c2.1,14,3.4,28,5,42.1c0.1,1.2-0.1,2.3-0.5,3.4
		c-1.6,1.7-1.5,3.8-1.2,5.9c0.1,0.7,1.2-0.1,0.5,0.1c-0.2,0.1-0.4,0-0.4-0.2c-0.1-1.5-1.1-3.2,0.9-4.3c3.1,3.1,2.1,7.2,2.5,10.8
		c1.5,11.8,2.7,23.7,4.1,35.6c0.2,1.7,0.3,3.3-0.3,4.9c-2.1,2.8-4.3,0.7-6.2-0.1c-6.9-3-13.7-6-20.9-8.2c-3.5-1.1-7-2.1-10.6-2.9
		c-12.8-2.7-20.6,2.8-22.6,15.7c-1.9,12.2,1.2,18.8,12.1,24.6c17.5,9.3,35.5,17.5,53.9,24.9c7.2,2.9,14.8,4.1,22.5,3.5
		c9.5-0.8,15.5-6.1,18.7-14.9c1-1.6,0.8-3.4,0.8-5.1c0-2-0.2-4,0-6c0.6-6.1-0.9-11.5-5.2-16c-1.1-3.5-1-7.2-0.8-10.8
		c0.2-4.4,1.6-5.2,5.7-3.6c2.9,1.1,5.3,3.4,8.7,2.9c9.1,2.3,17.1,7.2,25.6,10.8c9.5,4,19.1,7.8,29.7,7.7c12.7-0.1,20.2-6.8,22-19.3
		c1.1-7.8,1.9-15.6-3.5-22.4c-1.1-9.2-0.4-18.3,0.6-27.4c1.5-12.9,1.5-25.9,2.9-38.8C894.7,1893.9,894.4,1891.8,896.1,1890.3z"/>
	<path class="st13" d="M573,1267.9c13.3,7.5,26.7,14.9,40,22.5c19.2,10.9,38.5,21.8,57.7,32.8c2.8,1.6,3.8,2.1,4.6-1.9
		c6.2-29.7,12.6-59.4,19-89.1c3.7,1.5,5.3,5.5,9.1,7.2c10,4.4,20.3,6.9,31.2,7.3c6.3,1.4,12.6,1,18.9,0.5c3.9,1.5,2.2,4.4,1.4,6.7
		c-3.8,10.7-7.5,21.3-11.4,31.9c-11.1,30.3-21.9,60.7-32.8,91c-2.4,6.7-4.6,13.5-7.4,20.1c-1.8,4.3-3.3,4.8-8.3,3.3
		c-10.8-1.2-19.7-6.9-28.6-12.4c-24-15.1-45.9-33.1-67.9-50.8c-19.9-16.1-40-32-60-48c-1-0.8-2.2-1.4-3.4-2.1
		c-4.3-1.1-7.4-4.3-10.9-6.8c-7.6-5.3-15.5-10.2-23.7-14.6c-5.9-3.1-11.9-4.8-18.6-4.3c-10.2,0.9-18.8-2.6-26.6-9.1
		c-2.7-2.3-5-4.8-6.3-8.1c-6.8-9.8-12-20.2-14-32.1c-1.3-1.5,0.2-3.5-1-5c0-4.3,0-8.7,0-13c2.9-1.5,2.4-4.8,3.6-7.2
		c2.7-5.1,4.8-6.3,9.5-4.8c3,1,4.7,3.5,6.3,6c4.8,7.6,8.4,15.9,12.5,23.9c2.5,4.9,5.3,9.6,8.7,14c1.8,2.3,3.9,4.1,6.6,5.1
		c4.2,1.6,9.6,0.4,12-2.6c2.7-3.6,1.7-7.3-0.1-10.8c-2.1-3.9-5.2-6.9-8.9-9.3c-2.5-1.7-4.9-3.4-6.7-5.9c-3.4-4.5-2.9-10.1,1.1-14
		c2.7-2.7,5.8-3.1,9.1-1.3c1.6,0.9,3,2.1,4.2,3.5c10.7,11.5,19,24.5,23,39.8c1.7,6.7,5.3,10.9,11.5,13.3
		c13.8,5.4,26.9,12.4,39.9,19.4C568.7,1264.4,570.8,1266.2,573,1267.9z"/>
	<path class="st30" d="M815,2097c7.6-2.3,15.6-1.9,23.4-2.8c44-5.2,86.6-14.7,125.9-36.2c14.1-7.7,27.1-17,37.8-29.1
		c7.9-8.8,13.7-18.8,16.5-30.4c0.2-0.9,0.1-2.1,1.3-2.5c0,32.5-0.1,65,0.1,97.5c0,3-0.6,3.6-3.6,3.6C949.3,2097,882.2,2097,815,2097
		z"/>
	<path class="st31" d="M777,2096c5.7,0,11.4,0,17.1,0c0.3,0.2,0.4,0.4,0.3,0.7c-0.1,0.2-0.2,0.3-0.3,0.3c-5.7,0-11.3,0-17,0
		c-0.3-0.2-0.4-0.4-0.3-0.6C776.8,2096.2,776.9,2096,777,2096z"/>
	<path class="st32" d="M810,761c-5.3,1.6-10.7,1.6-16,0C799.3,761,804.7,761,810,761z"/>
	<path class="st33" d="M759,2097c2.1-2.1,4.6-0.5,6.9-0.9c0.4,0.2,0.5,0.3,0.4,0.5s-0.2,0.3-0.3,0.3C763.7,2097,761.3,2097,759,2097
		z"/>
	<path class="st34" d="M777,2096c0,0.3,0,0.6,0,1c-2,0-4,0-6,0c-0.3-0.2-0.4-0.4-0.3-0.6c0.1-0.2,0.2-0.3,0.3-0.3
		C773,2096.1,775,2096.1,777,2096z"/>
	<path class="st35" d="M799,2096c2,0.4,4.3-1,6,1c-2,0-4,0-6,0c-0.3-0.2-0.4-0.4-0.3-0.7C798.8,2096.1,798.9,2096,799,2096z"/>
	<path class="st36" d="M434,1207c1.6,1.4,0.9,3.3,1,5c-0.3,0-0.7,0-1,0C434,1210.3,434,1208.7,434,1207z"/>
	<path class="st37" d="M771,2096.1c0,0.3,0,0.6,0,0.9c-1.7,0-3.3,0-5,0c0-0.3,0-0.6-0.1-0.9C767.6,2096.1,769.3,2096.1,771,2096.1z"
		/>
	<path class="st38" d="M799,2096c0,0.3,0,0.6,0,1c-1.7,0-3.3,0-5,0c0-0.3,0-0.7,0-1C795.7,2096,797.3,2096,799,2096z"/>
	<path class="st39" d="M694.9,1400.2c4.3,0.5,6.4-1.3,7.9-5.5c12.2-34.5,24.8-68.9,37.2-103.3c4.6-12.8,9.3-25.7,13.8-38.5
		c0.5-1.5,2.4-3.2,0.2-4.9c-6.7,0.1-13.3-0.1-20,0c-10.5-0.3-20.6-2.7-30.2-7c-4.2-1.9-7.7-4.5-9.5-8.9c-6.3-23.8-5.8-48.1-4.7-72.4
		c0.8-19.1,2.9-38.1,6.9-56.8c3.5-16,8.1-31.6,19.6-44.1c1-1.1,2-2.2,2.1-3.9c2.5-1.3,4.9-2.7,7.5-3.9c10.8-5.3,22.5-2.7,30,6.8
		c7.7,9.8,11.1,21.5,14.3,33.3c6.2,22.9,9.2,46.4,13,69.7c1.8,11.2,4.9,22.1,7.9,33c2.6,9.6,7.4,12.7,17.3,12.1
		c4.1-0.3,8.2-1.3,12.3-2c1.6-0.3,3.3-0.7,4.8-1.3c16-5.6,31.9-8.2,48.7-2.4c8.9,3,18.6,3.9,28.2,2.9c8.6-0.9,13.8-5.5,15.8-14.1
		c-0.5-0.8-0.4-1.6-0.1-2.4c0.3-4.7,0.6-9.3-0.2-13.9c0-2.3-0.8-4.5-0.6-6.8c-0.2-4,0.4-8.1-0.4-12.1c-0.1-2.6-0.8-5.2-0.6-7.8
		c-0.2-4.7,0.4-9.4-0.4-14c-0.4-2.3-0.8-4.7-0.6-7c-0.2-5.3,0.5-10.7-0.4-16c-0.9-2.6-0.5-5.4-0.6-8c-0.3-5.8,0.8-11.6-0.7-17.3
		c-0.7-5.1-0.2-10.3-0.3-15.5c-0.1-5,0-9.9-0.9-14.9c-0.4-2-0.6-4.3,0.8-6.3c0.1-1.7,0.2-3.4,0.2-5.1c12.6,9.1,18.2,21.8,19.9,37
		c2.2,20.9,3.1,41.8,2.8,62.8c-0.2,13-0.7,25.9-1.7,38.9c-0.3,3.6-2,6.2-4.3,8.7c-0.8,1.9-2.3,3.3-4.2,4.1c-4.2,1.5-5.7,4.8-5.9,8.9
		c-0.7,14.3-2.1,28.5-3.3,42.8c-1.4,17.4-2.3,34.8-3.7,52.2c-0.7,8.7,0,17.3,1.3,25.9c0.4,2.6,0.9,5.3,0,7.9
		c2.7,18.3,6.6,36.3,10.3,54.4c9.7,47.9,19.4,95.8,27.4,144c3.7,22.1,6.2,44.4,6.6,66.9c0.3,16.6,0.6,33.3,0.8,49.9
		c0,3-0.7,5.5-2.4,7.9c-12.9,18.7-31.1,30.2-51.9,38.1c-5.9,2.2-12,4-18,5.9c-1.5,1.9-3.6,2.3-5.7,2.7c-19.3,4.1-38.7,5.9-58.4,5.7
		c-8,0.2-16,0.2-24,0c-21.8-1.4-43.4-4.4-64.3-11c-3-0.9-6.2-1.6-8.3-4.3c-12.9-5.2-24.9-11.8-36.1-20.1
		c-17.7-13.2-24.6-30.5-22.8-52.1c1.4-16.6,2-33.2,3.6-49.8c2.8-28.8,6.5-57.5,10.6-86.2C685.3,1455.3,689.7,1427.7,694.9,1400.2z"
		/>
	<path class="st13" d="M726.1,1691.1c23.2,8.6,47.4,12,71.9,14c2.7,5.4,1.4,11.1,1.1,16.6c-0.6,10.1-2,20.2-3.2,30.3
		c-1,8.9,1.5,17.8,3.5,26.6c2.3,9.9,5.3,19.6,7.6,29.5c1.6,6.5,2.5,13,2.4,19.8c-0.2,16.7,0.1,33.3-0.1,50c-0.1,2.8,0,5.5,0,8.3
		c-1,15.1-1.5,30.2-2,45.3c0,0.6,0,1.2,0,1.8c-1.3,15.1-1.9,30.3-3.3,45.5c-2,5.5-0.8,11.1-1.1,16.7c0.5,8.7-3.1,15.1-10.8,19
		c-6.5,3.3-13.3,5.3-20.5,2.3c-5.6-2.3-9.6-5.9-10.2-12.3c-0.7-7.5-2.9-14.9-1.5-22.6c-1.5-17.4-3.3-34.8-5.9-52
		c-0.3-0.1-0.5-0.3-0.4-0.5s0.2-0.3,0.3-0.3c-1.3-16.7-3.1-33.4-5.8-49.9c-0.3-12.4-2.4-24.7-3.8-37.1c-1.7-16.1-3.6-32.3-5.6-48.4
		c-2.1-17.3-4.3-34.5-6.4-51.8C730.4,1724.9,728.3,1708,726.1,1691.1z"/>
	<path class="st40" d="M449,1244c6.3,7,13.1,13.2,22.6,15.4c2.3,0.5,4.7,0.9,6.9,0.6c10-1.5,18.7,1.7,27,6.7
		c10.3,6.1,20.4,12.5,29.5,20.2c-22,12.8-44,25.6-66,38.4c-5.2,3-10.4,5.8-15.5,8.9c-3.9,2.4-4.6,1-4.6-3
		C449,1302.2,449,1273.1,449,1244z"/>
	<path class="st13" d="M822.8,1705.4c11.1-0.7,22.2-1,33.2-2.1c10.4-1,20.6-3.1,30.8-5.2c-6.2,22.7,1.1,44.1,6.9,65.5
		c5.3,19.6,5.4,39.4,4.4,59.4c0,0.3-0.1,0.7-0.1,1c0.1,22.1-1.1,44.2-2.1,66.4c-0.7,24.2-4.5,48.3-4.1,72.5c0.8,2.3-0.1,4.3-1.1,6.2
		c-5.1,10.4-23.1,15.2-32.7,8.7c-3.8-2.5-6.1-5.9-6.7-10.6c-0.9-6.8-1.3-13.6-2.9-20.2c0-10.4-1.9-20.5-3-30.8
		c-1.2-11.8-2.5-23.5-4-35.2c-1.8-19.5-4.3-39-6.5-58.4c-4.2-37.1-8.6-74.3-13.3-111.4C821.6,1709.1,821.4,1707.1,822.8,1705.4z"/>
	<path class="st41" d="M914.1,1330.9c-2.7-12.3-3.6-24.6-2.4-37.1c1.2-12.1,1.5-24.2,2.4-36.3c1.5-19.6,3.2-39.1,4.7-58.6
		c0.2-3.1,1.1-4.8,4.1-5.8c2.5-0.8,4.7-2.5,7-3.8c-1,27.9-1.6,55.7-3.1,83.6c-0.7,13-0.9,26.2-4.7,38.9
		C920,1318.4,917.6,1324.9,914.1,1330.9z"/>
	<path class="st40" d="M573,1267.9c-7.4-3.8-14.7-7.7-22.1-11.5c-8.7-4.5-17.5-8.8-26.7-12.3c-5.9-2.2-9-6.6-10.5-12.9
		c-3.9-15.9-12.7-29.2-23.8-40.9c-4.1-4.3-7.2-4.6-10.3-1.7c-3.9,3.6-4.5,8.8-1.4,13c1.8,2.5,4.3,4.1,6.9,5.7
		c3.9,2.4,7.1,5.6,9.2,9.6c2.1,4.1,3.4,8.5-0.2,12.6c-3.1,3.5-9.7,4.6-14.3,2.4c-4.8-2.3-7.6-6.4-10.1-10.8
		c-5.7-10.3-11.2-20.8-16.6-31.3c-1.6-3-3.7-5.5-5.9-8c1.9-0.2,2.1-1.5,1.8-2.9c-2-11.4-0.6-22.9-0.9-34.3
		c-0.2-10.3,0.2-20.7-0.2-31c-0.2-4.3,1.4-6.7,5-8.7c14.4-8.1,28.8-16.3,43.2-24.6c32.9-19,65.7-38.2,98.5-57.2
		c10.5-6.1,21.1-11.9,31.5-18c2.3-1.4,2.9-0.8,2.9,1.6c0,0.8,0,1.7,0,2.5c0,72.8,0,145.5,0.1,218.3c0,3.4-0.6,5.6-4.1,7.5
		c-16.8,9.4-33.4,19.2-50,28.8C573.4,1264.9,571.3,1265.5,573,1267.9z"/>
	<path class="st13" d="M716.8,894.1c9.2,7.5,19.8,10,31.5,8.7c3.2-0.4,6.2,0.8,7.6,4.2c3.4,9.6,2.5,19.4,1.5,29.3
		c-0.4,4.6-1.1,9.1-0.4,13.7c-0.5,4-3.2,6.8-5.4,9.9c-4.1,5.8-8.5,11.4-12.7,17.1c-9.7-6.8-13.9-17-16.9-27.9
		c-3.4-12.3-5-25-5.2-37.8C716.8,905.6,715.1,899.9,716.8,894.1z"/>
	<path class="st42" d="M914.9,1101c0.1,2.6,0.1,5.1,0.2,7.7c1.1,5.4-0.4,10.9,0.8,16.3c0.1,2.2,0.1,4.5,0.2,6.7
		c1.1,4.7-0.4,9.6,0.8,14.3c0.1,2.5,0.1,5.1,0.2,7.6c1.1,4.1-0.4,8.3,0.8,12.4c0.1,2.2,0.1,4.4,0.2,6.6c0.6,4.9,0.6,9.8,0,14.8
		c-0.1,0.5-0.1,1.1-0.2,1.6c-0.3-0.7-0.9-1.5-0.9-2.2c0.6-9.6-0.8-19.2-1.2-28.8c-0.6-17.3-2-34.7-2.8-52
		c-0.4-9.6-0.7-19.2-0.9-28.8c-0.2-11.7-1.5-23.3-1.2-35.5c1.7,1.8,0.1,4.1,1.9,5.4c0.7,12.2,1.4,24.4,1.2,36.7
		C915.2,1089.4,913.7,1095.2,914.9,1101z"/>
	<path class="st43" d="M757,950c-1.5-1.3-1-3.1-1-4.7c0-7.2,1.3-14.4,1.7-21.6c0.3-4.2-1.1-8.4-1.5-12.6c-0.1-1.3-1.9-2.6-0.3-4.1
		c2.6,2.9,3,6.6,3.2,10.2C759.8,928.2,758.2,939.1,757,950z"/>
	<path class="st44" d="M760,1981.8c0.9,7,1.7,14.1,2.8,21.1c1.4,9.1,6.8,14.4,15.7,13.8c13-0.8,23.3-6.3,23.6-20.9
		c0.6-0.4,1.2-0.3,1.6,0.4c6.1,3.8,7,9.7,6.5,16.1c-0.2,2.2-0.2,4.3-0.4,6.5c-0.9,1.6,0.2,3.6-0.8,5.3c-5,13.1-15.1,18.3-30.5,15.6
		c-5.3-0.9-10.4-2.2-15.3-4.3c-16.4-7-32.7-14.2-48.5-22.4c-0.9-0.5-1.7-1-2.6-1.5c-15.3-7.8-16-20.2-9.9-34.9
		c2.5-6.1,7.6-9,14.4-8.8c9.2,0.3,17.6,3.5,26,6.7C748.4,1976.7,754.1,1979.4,760,1981.8z"/>
	<path class="st44" d="M849.1,1947.5c3.6,2.4,1.6,6.4,2.7,9.6c1,2.9,0.8,6.2,1.2,9.3c0.8,7.8,6,12.3,13.9,12.7
		c11,0.6,22.2-3.7,25.2-16.3c1.9,1,3.1,2.8,3.4,4.7c1.8,10.4,2,20.8-4.7,29.5c-6.3,8.1-15.6,8.7-25.1,7.5
		c-11.2-1.5-21.2-6.4-31.4-10.9c-5.7-2.5-11.2-5.8-17.3-7.4c-5.4-1-10.2-3.3-14.1-7.3c1-15.3,2.1-30.6,3.1-46
		c1.8-1.4,3.8-0.8,5.7-0.4c10.1,2.2,19.6,6.1,28.9,10.5C843.5,1944.3,847.2,1944.3,849.1,1947.5z"/>
	<path class="st45" d="M802.9,1978.8c4.7,2.4,9.4,4.9,14.1,7.3c-3.8,1.9-6-1.5-8.8-2.7c-3.3-1.5-4.3-1.1-4.3,2.6
		c0,3.4,0.8,6.8-0.2,10.1c-0.5-0.1-1.1-0.2-1.6-0.4C802.4,1990.1,800.9,1984.4,802.9,1978.8z"/>
	<path class="st46" d="M781.2,2041.2c2.5,0,5.1,0,7.6,0c0,0.2,0,0.3,0,0.5c-2.5,0-5.1,0-7.6,0
		C781.2,2041.5,781.2,2041.4,781.2,2041.2z"/>
	<path class="st47" d="M754,1929c0.2,0.3,0.2,0.5,0.1,0.8c-0.1,1.7-0.2,3.4-0.4,5.2C753.2,1932.9,752.2,1930.8,754,1929z"/>
	<path class="st48" d="M809,2024c-0.1-1.8-0.1-3.6,0.8-5.3C809.9,2020.5,810.6,2022.5,809,2024z"/>
	<path class="st49" d="M734,1248c6.7-1.7,13.3-1.6,20,0C747.3,1249.7,740.7,1249.1,734,1248z"/>
	<path class="st30" d="M822.8,1705.4c2.6,21.4,5.3,42.8,7.8,64.2c1.9,15.8,3.6,31.6,5.4,47.4c2.2,19.1,4.4,38.2,6.6,57.3
		c0.2,2.1,0.3,4.3,0.4,6.5c-2.2,2-4.8,0.9-7.1,0.7c-7.7-0.9-15.5-0.7-23.2-1.9c-1.6-0.3-3.3-0.3-4.6-1.5c0-11.5-0.4-23,0.2-34.4
		c1.1-20.1-3-39.2-8.6-58.3c-2.8-9.4-4.5-19-5.4-28.8c-0.5-5.2,1.1-10.2,1.7-15.3c1.6-12,2-24.1,2.1-36.2
		C806.3,1705.2,814.6,1705.3,822.8,1705.4z"/>
	<path class="st29" d="M914.9,1101c-2-5.7-0.5-11.6-0.8-17.3C915.3,1089.4,914.9,1095.2,914.9,1101z"/>
	<path class="st29" d="M915.9,1125c-2-5.4-0.5-10.9-0.8-16.3C916.3,1114,915.9,1119.5,915.9,1125z"/>
	<path class="st29" d="M916.9,1146c-1.9-4.7-0.5-9.5-0.8-14.3C917.3,1136.4,916.9,1141.2,916.9,1146z"/>
	<path class="st29" d="M918.1,1187.4c0-4.9,0-9.8,0-14.8C919.2,1177.5,919.6,1182.4,918.1,1187.4z"/>
	<path class="st29" d="M917.9,1166c-1.9-4-0.5-8.2-0.8-12.4C918.3,1157.7,917.9,1161.8,917.9,1166z"/>
	<path class="st3" d="M808.1,1878.1c11.7,0.6,23.3,1.4,34.9,2.8c2,17.2,4,34.3,6,51.5c0.5,4.1,0.8,8.3,1.3,12.4
		c0.1,1.2,0.4,2.4-1.2,2.8c-9.2-3.6-18.4-7.4-27.7-10.9c-5-1.9-10.1-3.3-15.4-3.7c0-0.3,0-0.6,0.1-0.9c1.9-6.4,1.3-13.1,1.7-19.7
		c0.6-10.2,0.3-20.5,2.1-30.9c-1.2,1.5,1.1,4-1.9,4.6C808,1883.4,808,1880.7,808.1,1878.1z"/>
	<path class="st50" d="M808,1886c2-1.6,0.1-4.2,2.4-7.1c-1.4,12.6-0.9,24.1-1.8,35.5c-0.4,5-0.4,9.9-0.4,14.8c0,1.8,0.2,2.9-2,2.7
		C806.7,1916.7,807.4,1901.3,808,1886z"/>
</g>
<g>
	<path class="st3" d="M1323,2061.1c38.7,9.5,75.4,23.2,105.4,50.7c12.2,11.1,21,24.4,24.6,40.8c0.1,0.7,0.3,1.3,1.1,1.5
		c0,1.7,0,3.3,0,5c-0.8,3-0.8,6,0,9c0,2,0,4,0,6c-5.4,27.3-24.3,44.3-46,58.7c-29,19.2-61.5,29.8-95.1,37.5
		c-18.3,4.2-36.9,7.2-55.6,8.6c-5.8,0.4-11.6,0.8-17.4,0.7c-1.6,0-3.3,0-4.9,0c-1.7,0-3.4,0-5,0c-2,0-4,0-6,0c-2.1,0-4.2,0-6.2,0
		c-6.1,0-12.2,0-18.3,0c-3,0-6,0-9,0c-2.1,0-4.1,0-6.2,0c-2-0.2-4.1,0.4-6.1-0.3c-42.1-2.8-83.3-9.9-122.9-25.1
		c-23.6-9.1-45.9-20.7-64.4-38.3c-10.9-10.4-19.6-22.3-23.4-37.2c-5.4-21,1.1-39.1,14.1-55.4c14.5-18.1,33.6-30.2,54.1-40.2
		c37.2-18,76.8-26.9,117.6-31.8c4.5-0.5,8.9-1,13.4-1.5c3.2-0.2,4,1.3,2.8,4.1c-1.7,2-0.4,4.3-0.9,6.2c0.1,0.9,1.1,0.1,0.5,0.3
		c-0.1,0-0.2,0-0.2-0.2c-0.3-2-0.7-4.1,0.4-6c0.6-0.2,1.1,0,1.4,0.5c0.7,5.7,2.9,11.2,1,17c-1.9,2.1-0.7,4.5-1,6.7
		c0.2-2.1-0.9-4.4,0.9-6.4c3.2,2.3,1.9,5.8,2.2,8.7c1,9,3.1,17.8,2.4,26.9c-1.1,3-0.7,6.1-0.7,9.1c0.9,9.2,2.4,18.4,2.9,27.7
		c0.3,5.9-0.9,6.7-6.2,4.2c-8.6-3.9-17.5-7.3-26.6-9.7c-6.7-1.7-13.5-4.2-20.4-0.8c-2.4,1.2-5,2.1-5.2,5.4c-0.9,4-3.1,7.6-4,11.7
		c-1.2,5.8-0.2,11.4,0.6,17.1c0.4,1-2.2,0.1-1,1.7c2.7,3.5,6.1,6,9.8,8.4c14.6,9.4,30.7,15.6,46.5,22.5c1.7,0.7,3.5,1.2,4.9,2.5
		c1.6,1.5,1.6,0.3,1.8-0.9c2.1-0.7,3.9,0.5,5.8,1c9.3,2.5,18.4,6,28.3,2.7c8.6-2.8,13.5-8.5,15-17.5c0.9-5.4,0.7-10.9,1.4-16.4
		c0.9-2.3,0.4-4.5-1.2-6c-3.1-2.8-3.4-6.2-3.1-10c0.2-2.6,0-5.3,0.1-8c0.2-5.2,2-6.4,6.6-4.1c8.3,4.2,16.9,7.7,25.3,11.6
		c1.8,0.8,3.6,1.7,5.5,2.3c8.6,4.3,17.3,8.7,27,10c10.5,1.3,20.7,1.5,28.6-7.3c5.7-6.3,5.9-14.2,6.8-22c0.6-4.9-0.5-9.6-3.3-13.8
		c-5.5-5.1-4-11.7-3.4-17.8c1.1-11.7,2.2-23.4,2.8-35.1C1321,2071.1,1320.8,2065.8,1323,2061.1z"/>
	<path class="st29" d="M1134.5,1177.5c-2.5-8.7-0.1-17.1,1.3-25.6c3.3-19.7,11.1-37.8,21.2-54.9c2.6-6.5,6.5-12.1,11.9-16.6
		c5.3-4.7,9.5-9.8,9.9-17.5c0.5-9.9,2.5-19.8,1.7-29.8c-0.4-5.5-1-11-6.3-14.5c-2.5-2.3-5.6-2.3-8.8-2.3c-7,0-14.2,0.7-20.7-3
		c-4.4-1.7-7.3-5.2-11-7.9c-1.4-0.1-1.1-1.6-1.8-2.2c-12.4-25.3-9.4-50.3,1.4-75.1c4.1-9.3,9.8-17.7,16.9-25.1
		c0.8-0.8,1.7-1.7,2.2-2.7c10.9-18.7,28.5-26.6,48.6-30.4c2.3-0.4,4.9-0.1,6.9-2c1.3,0,2.7,0,4,0c2.1,1,4.3,0.3,6.5,0.5
		c4.8-0.3,9.7,0.6,14.5-0.5c3,0,6,0,9,0c6,2.9,12.8,2.6,19.1,3.9c20.3,4.3,39.8,11,58.2,20.4c20.3,10.4,29.9,28.6,34.8,49.8
		c4.9,21.5,4.8,43.2,3.1,65.1c-2.8,36.1-10.6,71.3-17.1,106.8c-1.3,1.4-0.7,3.2-0.7,4.7c-0.1,13.4,0,26.9,0,40.3
		c-0.5,7.3-0.4,14.5,0.5,21.8c0.4,3.7,0.7,7.3,0.2,10.9c-2.4,14.8-9.3,19-25.2,18.1c-12.4-0.7-24.6-3.2-36.6-6.8
		c-5.4-1.7-10.5,0-15.7,1c-8.8,1.7-17.3,4.7-26.1,6.4c-10.6,2-20.5,0.6-29.8-4.7c-0.7-0.4-1.5-0.7-2.3-0.7c-4.8-1-8-4.6-11.3-7.9
		c-6.6-6.6-13.3-13-20.8-18.7c-9.8-7.5-19.9-8.5-30.7-2.1C1139.5,1177.6,1137.3,1180,1134.5,1177.5z"/>
	<path class="st13" d="M996,1411c33.7,9,67.4,18.1,101.2,27.1c8.7,2.3,8.6,2.2,9-6.7c1.2-26.4,2.6-52.8,2.9-79.3
		c2.2,0.1,2,2,2.2,3.3c1,7.8,5,13.1,12.6,15.5c1.6,0.5,3,1.4,3.9,2.9c3.3,2.9,7.7,3.1,11.7,3.8c11.4,1.9,22.9,3.7,34.6,2.1
		c4.4-0.6,5.5,0.7,4.9,5c-2.8,20.1-4.7,40.2-7.4,60.3c-1.1,8.4-2.1,16.8-3.1,25.2c-0.3,2.3-0.3,4.7,0.5,6.9
		c0.6,7.9-1.2,15.5-2.3,23.2c-0.6,4-3.8,5.6-7.4,6.6c-10.1,2.8-20.3,3.4-30.6,2.1c-3.7-0.5-7.2-0.6-10.6,1.1
		c0.3-2.8-0.8-4.1-3.6-4.7c-36.1-7.7-69-23.5-102.1-39c-18.8-8.8-37.4-18-56.8-25.4c-3.1-1.2-6.1-2.6-9.5-2.9
		c-1.5-1.1-3.2,0-4.7-0.3c-7.2-1.8-14.3-1.8-21.6,0.1c-6,1.5-12.2,0.9-18-1.6c-4.7-2.2-9.3-4.3-12.7-8.4
		c-11.3-9.4-20-20.8-26.6-33.9c-3.3-6.4-4.4-13.5-7.4-19.9c0-0.7,0-1.3,0-2c1.4-3.6-0.3-7.4,1-11.1c0.2-1,0.3-2,0.6-2.9
		c3-8.1,6-8.8,12.3-2.8c7.1,6.7,12,15.3,18.2,22.7c4.5,2.1,6.4,6.6,9.7,9.9c2.1,2.1,4.2,4.3,6.6,6.1c3.1,2.3,6.5,3.3,10.3,2.3
		c7.6-2,10.2-8.5,5.6-15c-2.9-4.2-6.8-7.3-11.6-9c-2.5-0.9-5-1.9-7.1-3.6c-3.7-3-5.2-7.8-3.9-12.1c2.3-7.4,7.2-9.3,13.8-5.2
		c9.4,5.9,16.4,14.4,23.5,22.9c4.1,4.9,7.4,10.2,9.7,16.2c2.1,5.5,6.1,9,11.9,10.3c10.7,2.4,21.5,4.3,32.2,7.1
		C990.7,1408.4,993.7,1408.8,996,1411z"/>
	<path class="st30" d="M1240,2279.1c41-2.9,81.2-9.6,119.9-24c24.8-9.2,48.1-21.1,67.7-39.3c11.7-10.9,21-23.5,24.9-39.5
		c0.2-0.9,0.2-2.1,1.5-2.3c0,34.2,0,68.3,0.1,102.5c0,3-0.6,3.6-3.6,3.6c-70.2-0.1-140.3-0.1-210.5-0.1c-0.3-0.2-0.4-0.4-0.3-0.6
		C1239.8,2279.2,1239.9,2279.1,1240,2279.1z"/>
	<path class="st51" d="M1199,2279c6.4,0,12.7,0,19.1,0c0.3,0.2,0.4,0.4,0.3,0.7c-0.1,0.2-0.2,0.3-0.3,0.3c-6.3,0-12.7,0-19,0
		c-0.3-0.2-0.4-0.4-0.3-0.6C1198.8,2279.2,1198.9,2279,1199,2279z"/>
	<path class="st52" d="M1233,868c-4.9,2.2-10.1,0.5-15.1,0.9c-0.3-0.2-0.3-0.4-0.2-0.6c0.1-0.2,0.2-0.3,0.3-0.3
		C1223,868,1228,868,1233,868z"/>
	<path class="st53" d="M856,1360.9c-0.4,3.7,1.1,7.5-1,11.1c0-3.7,0-7.3,0-11C855.3,1361,855.6,1361,856,1360.9z"/>
	<path class="st54" d="M1454,2168c-1.6-3-1.6-6,0-9C1454,2162,1454,2165,1454,2168z"/>
	<path class="st55" d="M1199,2279c0,0.3,0,0.6,0,1c-3,0-6,0-9,0c-0.3-0.2-0.4-0.4-0.3-0.6c0.1-0.2,0.2-0.3,0.3-0.3
		C1192.9,2279.1,1195.9,2279.1,1199,2279z"/>
	<path class="st56" d="M1218,868c0,0.3,0,0.6-0.1,0.9c-2-0.3-4.2,1.2-5.9-0.9C1214,868,1216,868,1218,868z"/>
	<path class="st57" d="M1177.9,2279.1c2,0,4,0,6,0c0.4,0.2,0.5,0.3,0.4,0.5s-0.2,0.3-0.3,0.3c-2,0-4,0-6,0
		C1178,2279.7,1178,2279.4,1177.9,2279.1z"/>
	<path class="st58" d="M1184,2280c0-0.3,0-0.6-0.1-0.9c2,0,4,0,6,0c0,0.3,0.1,0.6,0.1,0.9C1188,2280,1186,2280,1184,2280z"/>
	<path class="st59" d="M1218,2280c0-0.3,0-0.6,0-1c2,0,4,0,6,0.1c0.3,0.2,0.4,0.4,0.3,0.6c-0.1,0.2-0.2,0.3-0.3,0.3
		C1222,2280,1220,2280,1218,2280z"/>
	<path class="st60" d="M1224,2280c0-0.3,0-0.6,0.1-0.9c2,0,4,0,6,0c0.3,0.2,0.4,0.4,0.3,0.6c-0.1,0.2-0.2,0.3-0.3,0.3
		C1228,2280,1226,2280,1224,2280z"/>
	<path class="st61" d="M1230,2280c0-0.3,0-0.6,0.1-0.9c1.7,0,3.3,0,5,0c0.3,0.2,0.4,0.4,0.3,0.6c-0.1,0.2-0.2,0.3-0.3,0.3
		C1233.3,2280,1231.7,2280,1230,2280z"/>
	<path class="st62" d="M1235,2280c0-0.3,0-0.6,0-0.9c1.7,0,3.3,0,5,0c0,0.3,0,0.6,0,0.9C1238.3,2280,1236.7,2280,1235,2280z"/>
	<path class="st63" d="M1127.1,1374c-1.1-0.6-2.2-1.5-3.4-1.9c-8.8-2.8-13.2-8.8-13.7-17.9c0-0.8-0.6-1.5-0.9-2.2
		c-3.7-20.4-3.7-41.1-2.8-61.7c1-24.6,3.3-49.1,9.5-73c3.2-12.3,7.2-24.2,15.5-34.2c1.4-1.6,2.2-3.7,3.2-5.6c2.6,0.7,4.5-1,6.4-2.2
		c10.9-6.7,21.3-5.8,31.5,1.6c9.9,7.2,17.7,16.5,27.1,24.2c1.4,1.2,2.9,2.2,4.4,3.2c4.6,1.4,8.5,4.5,13.2,5.6
		c7.6,1.8,15.3,1.6,22.7-0.3c10.1-2.5,20-5.7,30.3-7.5c3.6-0.8,7,0.2,10.5,0.9c3.8,1.4,7.6,2.7,11.7,3c1.5,0.5,3.1,1.1,4.8,1
		c0.4,0,0.9,0.1,1.3,0.3c1.6,0.8,3.4,0.6,5.2,0.8c0.4,0.1,0.9,0.2,1.3,0.3c1.8,0.8,3.7,0.4,5.5,0.6c0.5,0,1,0.1,1.4,0.3
		c4,1,7.9,1,11.9-0.1c9.4-0.9,13.7-7,15.9-15.4c1.2-6.3,0.6-12.6-0.3-18.8c-0.1-0.6-0.1-1.2-0.1-1.8c0.4-3.9-1.1-7.9,1.1-11.6
		c11.4,8.2,16.9,19.6,18.9,33.2c3,21,3.4,42.1,3.3,63.2c0,14.1-0.4,28.3-1.4,42.4c-0.3,4.7-1,9.3-4.8,12.6
		c-3.1,3.6-7.1,6.1-10.2,9.8c-1.6,8.5-1.6,17.1-2.4,25.7c-1.1,11.7-1.7,23.5-2.9,35.2c-0.6,5.9-0.8,11.9-1.1,17.9
		c-0.4,9-0.7,18-1.5,26.9c-0.9,9.8,0.3,19.2,1.2,28.8c0.1,0.8-0.1,1.7,1.2,1.6c1.4,0.9,1,2.1,0.6,3.3c6.2,36.7,14.2,73.1,21.3,109.7
		c8.6,44.4,17.5,88.8,23.1,133.7c1.9,14.9,2.2,29.9,2.5,44.8c0.3,13.1,0,26.3,1,39.4c0.6,9.2-2.9,16-8.7,22.4
		c-13.6,15.3-30.5,25.6-49.5,32.7c-6.2,2.3-12.6,4.1-19,6.2c-1.6,1.1-3.3,2.1-5.3,2.6c-10.9,2.4-21.9,4-33,4.8
		c-9.9,0.7-19.8,1.7-29.8,1.2c-8,0-16.1,0.2-24.1-0.1c-19-1.6-37.9-3.6-56.4-8.9c-6.6-1.9-13.7-2.8-19.2-7.6
		c-16.7-6.9-32.4-15.5-45.3-28.5c-9.6-9.7-15.1-20.5-15.2-34.6c-0.2-29.5,2.6-58.9,5.9-88.1c3.7-33.4,8.3-66.6,13.5-99.8
		c4.3-27.4,9.2-54.8,15.2-81.9c0.9-2.3,1.5-3.8,5-3.2c11.5,1.9,23.1,2,34.5-0.9c7-1.8,7.8-2.9,8.4-10.1c0.5-6.3,2.1-12.4,2-18.7
		c-0.3-0.3-0.4-0.5-0.4-0.8s0-0.5,0.1-0.5c0.5-2.1,0.1-4.3,0.3-6.5c0.1-0.5,0.3-0.9,0.4-1.4c0.8-2.1,0.3-4.4,0.5-6.6
		c0-0.5,0.1-1,0.3-1.5c1.2-2.1,0.4-4.5,0.8-6.7c0.1-0.5,0.3-1,0.5-1.5c0.7-2.4,0.1-4.8,0.5-7.2c1.6-6.9,2-14,2.8-21
		c1.2-9.8,2.5-19.6,3.6-29.5c0.4-3.9,1-7.9,1.4-11.8c0.2-1.9-0.4-3.4-2.8-2.9c-9.5,1.9-19.1,1.3-28.6-0.2c-1-0.1-2,0-3-0.1
		c-2.1-0.6-4.2-1.1-6.5-1C1134.4,1376.9,1130.1,1377.2,1127.1,1374z"/>
	<path class="st13" d="M1144.1,1842.9c19.9,7.6,40.7,11.4,61.7,13.9c4.4,0.5,9-0.3,13.3,1.2c2.8,6.8,1.3,13.8,1.1,20.6
		c-0.4,10-2.1,19.8-3.1,29.7c-0.9,8.9,1.2,17.9,3.3,26.6c2.3,9.9,5.1,19.7,7.6,29.5c2.4,9.4,3.7,18.9,3.6,28.6
		c-0.2,18.3,0.4,36.6-0.5,54.9c-0.8,16.2-1.2,32.4-2.1,48.6c-0.9,15.3-1.9,30.6-3.1,45.9c-0.1,1.6-0.4,3.2-1,4.7
		c-0.2,0.4-0.6,0.8-1,1c-0.5,0-0.8-0.2-1.1-0.6c0.3-0.6,0.1,0.2-0.1-0.4c-0.1-0.4-0.2-0.3-0.2,0.1c0.1,8-0.6,16,0.9,23.9
		c-1.8,8.6-9.8,14.7-20.5,15.9c-12.8,1.4-20.9-5-21.9-17.8c-0.4-5.3-2.1-10.5-0.7-15.8c2.4-4.3,0.6-8.9,0.2-13.1
		c-2.7-24.2-4.9-48.4-7.9-72.5c-0.9-7-0.5-14.3-3.4-21c-1.3-10.7-2.7-21.4-4-32.1c-2.2-18.8-4.4-37.6-6.6-56.4
		c-1.8-15-3.5-30-5.4-45c-2.5-20.4-5.1-40.8-7.7-61.2C1144.9,1849.2,1145.4,1845.9,1144.1,1842.9z"/>
	<path class="st40" d="M889.1,1427.8c4,2.4,8,4.8,12.1,7.1c5.5,4,12.1,4.1,18,2.6c7.1-1.7,13.9-2,21-0.6c0.6,0.1,1.3,0,2-0.1
		c1.4,0.1,2.9-0.1,4,1.1c-6.4,3.8-12.7,7.7-19.1,11.4c-12.4,7.2-24.9,14.2-37.9,21.6C889.1,1456,889.1,1441.9,889.1,1427.8z"/>
	<path class="st64" d="M1169,2047c5,3.7,3.1,9.5,3.8,14.3c2.1,13.8,3.5,27.8,5,41.8c1.2,10.7,2.1,21.4,3.2,32
		c0.5,4.6,0.7,9.3,1.6,13.8c0.5,2.4-0.1,3.8-1.6,5.2c-1.8,0.2-2.3-0.9-2.5-2.4c0.3-5.5-0.3-10.9-1.2-16.3c-0.3-2.8-0.1-5.6-0.8-8.3
		c-0.2-0.5-0.3-0.9-0.3-1.4c-0.2-2.6,0.2-5.3-0.7-7.8c-0.2-0.5-0.3-0.9-0.3-1.4c-0.1-2.6-0.1-5.2,0-7.8c0-0.2,0-0.5,0.1-0.7
		c-0.8-12.1-2-24.1-4-36l0,0c-0.4-5.8-0.8-11.7-1.2-17.5c-0.8-1.7,0-3.7-0.9-5.4C1169,2048.3,1169,2047.6,1169,2047z"/>
	<path class="st13" d="M1168.9,2048.9c1.8,1.6,0.9,3.6,0.9,5.4c-0.3-0.2-0.5-0.3-0.8-0.5l0,0c0.3-2.1,0.4-4.1-2.5-4.3
		C1167.3,2049.4,1168.1,2049.1,1168.9,2048.9z"/>
	<path class="st13" d="M1243.9,1858.2c22.9-0.2,45.6-2.2,68-7.2c-5,18.3-2.9,36.4,2.8,53.9c8.6,26.6,10.2,53.7,9,81.2
		c-0.4,8.8-0.4,17.6-0.7,26.4c-0.1,1.8,0.1,3.7-0.9,5.3c-1.2,9.3,0.2,18.7-1.2,28c-0.8,5.6-0.8,11.2-1.2,16.8
		c-0.9,12.1-2,24.1-2.2,36.2c-0.1,4.1-1.7,7.7-2.1,11.7c-0.5,5,0.2,9.8,0.4,14.7c0.3,0.7,0.9-0.2,0.3,0.1c-0.2,0.1-0.3,0-0.3-0.4
		c-0.5-5.3-1.1-10.5-0.2-15.8c0.2-1-0.3-2.5,1.6-2.3c2,3.1,0.5,6.5,0.8,9.7c0.3,3.1-0.2,6.3,0.4,9.4c-1.4,15.7-15.8,25.9-31,22
		c-7.2-1.9-11.9-7.4-12.7-14.8c-0.7-7.3-1.3-14.5-2.5-21.7c-1.9-20.3-4.5-40.4-6.6-60.7c-5.5-48.8-10.8-97.5-16.8-146.2
		c-1.7-13.9-3.3-27.7-5.1-41.6C1243.5,1861.5,1243.2,1859.8,1243.9,1858.2z"/>
	<path class="st41" d="M1346,1323c0.4-6.2,6.1-7.3,10-10c-0.7,25.2-1.1,50.5-2.3,75.7c-0.9,17.4-1.4,34.8-4.6,52
		c-1.4,7.6-4.6,14.5-8,21.3c-0.3-1.1,0-2.4-1-3.2c-0.4-0.3-0.7-0.7-0.9-1.2c-0.1-2-0.3-4.1-1.1-6c-0.1-0.6-0.1-1.1-0.1-1.7
		c-0.9-11,0.3-21.9,0-32.9c2.1-26.8,4.2-53.6,6-80.4c1-4.3,0.6-8.7,1.4-13C1345.6,1323.5,1345.8,1323.3,1346,1323z"/>
	<path class="st64" d="M1317.2,2107c-2.5,3.3-0.7,7-1.1,10.6c-0.3,2.8-0.1,5.6-0.1,9.4c-3.1-8.3-1.3-15.6-0.8-22.9
		c0.4-6.2,1.3-12.5,1.8-18.7c0.5-7.6-0.4-15.5,1.3-22.7c3.6-14.8,1.4-30,3.8-44.8c2,3,0,6.1,0,9.1c-0.2,10.7-0.8,21.4-1.3,32.1
		c0.1,2.2,0.8,4.4,0.6,6.7c-0.1,4.7-0.6,9.5-0.4,14.2c-1.1,7.6-0.9,15.4-2,23C1318.8,2104.6,1319.5,2106.5,1317.2,2107z"/>
	<path class="st65" d="M1317.2,2107c1.4-7.1,1.6-14.4,2-21.6c0.1-1.8,0.5-3.6,0.7-5.4c1.3-4.9,0.2-9.8,0.6-14.8
		c0.2-1.7-0.7-3.6,1.1-4.9c0.5,0.2,0.9,0.5,1.4,0.7c-0.9,16.8-1.8,33.6-3.8,50.4c-0.7,6-2.1,12.7,3.8,17.6c-0.4,0.9-1,1.5-2.1,1.3
		c-1.7-0.7-3.1-1.7-3.8-3.5C1317.1,2120.2,1317.1,2113.6,1317.2,2107z"/>
	<path class="st66" d="M1340.1,1161.6c0,4.2,0,8.3,0,12.5c-0.7,0.1-1.5-0.1-1.5-0.8c0.1-4.4-0.7-8.8,0.2-13.1
		c0.1-13.7,0.1-27.3,0.2-41c0-1.7-0.8-3.7,1.1-5.1C1339.9,1129.9,1339,1145.7,1340.1,1161.6z"/>
	<path class="st13" d="M1321.6,2060.4c-1.1,1.3-1,2.8-0.7,4.4c-0.1,0.4-0.4,0.6-0.8,0.6c0-2.1-0.8-4.2,0.6-6.2
		C1321,2059.5,1321.3,2059.9,1321.6,2060.4z"/>
	<path class="st40" d="M996,1411c-13.8-3.1-27.5-6.1-41.3-9.2c-5.9-1.4-9.9-5.1-12.2-10.7c-6.7-15.8-18.3-27.5-31.5-37.9
		c-5.5-4.3-8.8-4-11.6,0c-3.2,4.5-2.4,10.9,1.8,14.3c2,1.6,4.2,2.6,6.6,3.4c5,1.5,8.8,4.7,12,8.6c3.7,4.4,4.3,9.7,1.8,13.4
		c-2.7,4-9.4,5.9-14.3,4.5c-3.9-1.1-6.8-3.7-9.4-6.4c-3.9-4-7.2-8.6-10.8-13c2.1-1,1.9-2.9,1.9-4.8c0-18.5,0.8-37-0.2-55.5
		c-1-17.3-0.8-34.6-0.5-51.9c0.1-8.8,0-17.5-0.3-26.2c-0.2-4.7,1.6-7.6,5.5-9.6c10.4-5.2,20.2-11.5,30.2-17.3
		c13.9-8.1,27.9-16,41.8-24c24.8-14.2,49.6-28.2,74.2-42.7c10.8-6.4,21.7-12.6,32.5-18.9c3-1.8,3.9-0.9,3.8,2.2c0,0.8,0,1.7,0,2.5
		c0,75.1,0,150.3,0.1,225.4c0,4.5-1.5,7.1-5.1,9.2c-20.6,11.8-41.1,23.6-61.7,35.4c-3.6,2.1-7.2,4.3-11,5.8
		C996.2,1408.4,997.8,1410.7,996,1411z"/>
	<path class="st12" d="M1169,1081.2c-4,5.3-8,10.6-12,15.8c-7.7-4.6-11.9-11.8-15.1-19.8c-6-15-8-30.7-8.9-46.7
		c-0.5-9.1-0.7-18.2-1-27.3c0.6,0.7,1.2,1.4,1.9,2c3.5,2,5.7,5.8,9.5,7.3c1.5,1.3,4.1,1,4.9,3.4c2.7,2.3,6.1,2.4,9.4,2.7
		c2.5,0.2,5,0.1,7.5,0.1c9.3,0,12.5,2.9,13.1,12.4c0.6,9.6-0.5,19.2-1.3,28.8c-0.5,5.5-1.5,10.8-4.1,15.7
		C1172.2,1077.9,1171.5,1080.1,1169,1081.2z"/>
	<path class="st63" d="M1179.1,2152.5c0.6,0.5,1.3,1,1.9,1.6c-0.2,7.2,1,14.2,2.1,21.2c0.7,4.3,3.8,7,7.4,8.9
		c8.8,4.7,24.5,0.4,29.8-8c1-1.6,1.9-3.1,1.8-5.1c1-1-0.3-3.3,1.9-3.6c4.1,1.4,6.1,4.2,6,8.5c0.1,5.1-0.1,10.2-0.8,15.4
		c-2,13.8-10,21.2-24.1,21.4c-8.2,0.1-16.1-2.1-23.7-4.9c-1.1-0.4-2.2-0.7-3.3-1c-5.6-0.5-10.2-3.8-15.2-5.9
		c-14.4-6.3-29-12.4-42-21.4c-2.3-1.6-5.4-2.8-4.9-6.5c-3.5-10.5-1.8-20.4,3.1-30c1.9-4.1,9.2-7.6,14.5-6.8
		c15.7,2.2,30.1,8.4,44.4,14.8C1178.6,2151.3,1179,2151.8,1179.1,2152.5z"/>
	<path class="st67" d="M1321,2130c0.7-0.3,1.3-0.7,2-1c5.8,11.9,2.9,29.9-6.2,38.7c-7.4,7.1-16.7,7.1-25.8,6.1
		c-10.4-1.2-20.2-4.9-29-10.8c0.2-0.2,0.4-0.4,0.6-0.5c3.2-1.2,5.8,0.5,8.5,1.6c8.8,3.7,17.7,6.6,27.4,6.5
		c12.8-0.1,20.6-7,22.9-19.6C1322.6,2144,1322.2,2137,1321,2130z"/>
	<path class="st68" d="M1179.1,2152.5c-10.3-4.1-20.2-9-30.9-12.1c-4.8-1.4-9.6-2.6-14.6-2.9c-5.6-0.3-10.8,0.9-14.6,5.5
		c-1.6-3.2,1.4-3.9,3.1-5c6.4-4.3,13.3-3.2,20.1-1.4c10.8,2.7,21.3,6.3,31.3,11.2c2.7,1.3,3.9,1.8,3.6-2.3c-0.6-9.6-2.1-19-3.1-28.6
		c0.3-0.3,0.6-0.5,1-0.6c0.4,0.1,0.8,0.2,1.1,0.5h-0.1c1.3,2.9-0.6,6.2,1,9.1l-0.1-0.1c1.3,2.9-0.6,6.2,1.1,9.1
		C1178.7,2140.8,1181.1,2146.5,1179.1,2152.5z"/>
	<path class="st69" d="M1115.9,2173c1.3,2.5,3.3,4.3,5.7,5.9c16.4,10.9,34.9,17.5,52.5,26c1.3,0.6,2.6,1.3,3.9,2
		c0.4,0.5,1.1,1.2,1,1.6c-0.4,1.1-1.3,0.4-2,0.1c-4.3-1.8-8.5-3.7-12.8-5.6c-15.3-6.8-30.9-13-44.5-23c-2.2-1.6-4.2-3.3-5.3-5.9
		C1113.7,2172.2,1114.8,2172.6,1115.9,2173z"/>
	<path class="st70" d="M1229.9,2176c-1.7-2.9-2.7-6.5-6.1-8.1c-0.4-0.5-0.7-1-0.9-1.6c0-6.1-1.5-12.4,1.1-18.4v0.1
		c1.1-1,0-3.2,2-3.7c0.8-0.2,1.7-0.2,2.4,0.2c10.7,5.4,22,9.5,32.1,16c0.8,0.5,1.7,1.1,1.7,2.3l-0.2,0.3c-9-2.5-17.1-6.9-25.4-10.8
		c-10.7-5-10.5-5.2-10.6,6.7c0,4.2-0.7,8.4,3.5,11.5C1230.9,2171.4,1232.2,2173.9,1229.9,2176z"/>
	<path class="st71" d="M1175,2117c-0.3,0-0.7,0-1,0c0.4-3-1.1-6.3,1.1-9.1v0.1C1175.7,2110.9,1175.8,2114,1175,2117z"/>
	<path class="st71" d="M1171.1,2071.9c0,2.3,0,4.6,0,6.9C1170.3,2076.4,1169.1,2074.1,1171.1,2071.9L1171.1,2071.9z"/>
	<path class="st72" d="M1169.1,2053.9c0,2.3,0,4.6,0,6.9C1168.3,2058.4,1167.1,2056.1,1169.1,2053.9L1169.1,2053.9z"/>
	<path class="st73" d="M1169,1081.2c1-1.7,2-3.4,3.1-5.1c7.2-14.9,5.9-30.9,5.8-46.7c0-3.5-2.2-6.6-3.4-9.8c0-0.6,0.2-1.1,0.6-1.5
		c6,2.7,6.3,8.6,6.8,13.8c1.3,11.9-1,23.8-2.1,35.6c-0.6,6-6,10.1-9.6,14.7C1169.5,1082.9,1169.1,1081.8,1169,1081.2z"/>
	<path class="st74" d="M1270,1203.2c-11.3,2.8-22.4,5.9-33.8,8.2c-11.7,2.4-22.8,0.7-32.4-7c0.6-1.1,1.3-1.3,2.4-0.6
		c12.6,8.4,25.9,7,39.6,3.2c8.1-2.3,16.3-4.1,24.6-5.8c2.4-0.5,5.3-1.1,7.6,0.8c-0.2,0.2-0.4,0.3-0.6,0.5
		C1275,1202.9,1272.4,1201.7,1270,1203.2z"/>
	<path class="st74" d="M1338.8,1160.1c0.9,4.6-1.1,9.5,1.3,13.9c0.2,0.2,0.2,0.4,0,0.7c0.6,6.7,0.8,13.4-0.1,20.2
		c-2.3,8.1-6.5,14.3-15.7,15.3c-4.5,0.6-9.1,0.6-13.6,0l-0.3,0.1l-0.3-0.2c-1.9-1.4-4.2,0.1-6.1-1l0.1,0.1c-1.8-1.5-4.2,0.1-6-1.1
		h0.1c-1.6-1.3-3.7,0-5.3-1c-4.2,0.4-8-1.2-11.8-2.8c-0.2-1.7-3.4,0.2-2.9-2.3c9.4,1.9,18.8,3.8,28.2,5.5c6.5,1.2,13,1.8,19.7,0.4
		c8-1.8,13-8.1,13-18.3c0-8.6-0.6-17.2-1.2-25.8C1337.6,1162.2,1337,1160.9,1338.8,1160.1z"/>
	<path class="st75" d="M1175,1018c0,0.4,0,0.8-0.1,1.2c-1.4,1.3-2.8,0.5-4.2-0.1c-0.4-0.3-0.7-0.6-1.1-0.9c-2.4-1.6-4.8-0.7-7.2-0.2
		c-1.7,0.4-3.5,0.4-5.2,0c-1.7-0.6-3.4-0.7-5.1-0.7c-1.3,0-2.5-0.2-3.7-0.7c-0.2-0.2-0.4-0.4-0.6-0.5c-1.7-0.9-3.4-1.9-5-2.8
		c-0.3-1,0-1.5,1.1-1.3c7.6,3.6,15.7,3.1,23.7,3C1170.6,1015,1173.3,1015.2,1175,1018z"/>
	<path class="st76" d="M1144,1012c-0.4,0.4-0.7,0.8-1.1,1.3c-3.6-2-6.8-4.4-9-8c0.2-0.8,0.6-2.6,1.5-1
		C1137.5,1007.8,1140.9,1009.7,1144,1012z"/>
	<path class="st77" d="M1144,1378c5.6,0.4,11.3,0.8,16.9,1.1c6.5,0.3,12.9-0.1,19.8-1.9c-1.8,14.2-3.4,28-5.2,41.8
		c-1.1,8.7-2.3,17.4-3.5,26.1c-1.4,2.2,0.2,4.9-1,7.1c0,0.3,0,0.6,0,0.9c-1.4,2.2,0.2,4.9-1,7.1c0,0.3,0,0.6,0,0.9
		c-1.4,2.2,0.2,4.9-1,7.1c0.1,0.3,0,0.6,0,0.9c-1.4,2.2,0.2,4.9-1,7.1c0,0.3,0,0.6,0,0.9c-2.8-5.9,0-11.7,0.5-17.5
		c1-12.7,3-25.3,4.5-37.9c1.5-12.1,2.8-24.3,4.5-36.4c0.5-3.4,1.1-5.1-3.7-4.4c-15.2,2.2-29.9-0.7-44.6-4.3
		c-3.2-0.8-3.2-0.9-2.1-2.6c3.5,1.3,6.9,3.1,10.9,3C1139.8,1378.3,1142.2,1376.8,1144,1378z"/>
	<path class="st30" d="M942.1,1436.9c-0.4,0.3-0.8,1-1.1,0.9c-10-2.7-19.7,1.1-29.5,1.3c-4,0-7.5-1.4-11-2.9
		c-1.6-0.8,0.2-0.9,0.7-1.2c7.8,2.4,15.4,2.7,23.4,0.4C930.2,1433.7,936.4,1434.3,942.1,1436.9z"/>
	<path class="st30" d="M1243.9,1858.2c2.4,5.6,2.2,11.7,3,17.6c3.5,27.5,6.8,55,9.9,82.6c2.6,22.3,4.9,44.6,7.3,66.8
		c0.9,8.6,1.9,17.1,2.8,25.7c-2.2,1.9-4.8,0.9-7.2,0.6c-8.2-0.9-16.6-0.7-24.8-1.9c-1.8-0.3-3.7-0.2-5.1-1.6c0-4.8,0-9.5,0-14.3
		c0-14.5-0.1-29,0.1-43.4c0.1-15.2-4.6-29.5-8.4-43.9c-2.9-11.1-5.4-22.2-6.3-33.7c-0.1-1.6-0.2-3.4,0.1-5c3.1-16.4,3.7-33,3.7-49.6
		C1227.4,1858.1,1235.6,1858.1,1243.9,1858.2z"/>
	<path class="st78" d="M1340,1458c0.1,0.3,0.1,0.6,0,0.9c-0.2,1.1,0.4,2.3-0.7,3.3c-2.4-2.8-1.5-6.4-2.1-9.6
		c-2.3-13.8-0.5-27.7,0.5-41.5c0.4-5.9,0.6-11.9,1-17.8c1.2-17.1,2.7-34.2,4-51.3c0.5-6.4,1.5-12.8,1.3-19.3c-0.1-1.7-0.8-3.7,1.3-5
		c1.2,1.7,0.4,3.6,0.6,5.3l0,0c-1.5,4.3,0.3,8.8-1,13.1c-0.5,17.1-2.4,34.1-3.8,51.1c-0.6,7.3-0.9,14.6-1.2,21.9
		c-0.1,2.7-0.2,5.3-1,7.9c-0.9,11.7-0.9,23.3,0,35l0,0C1340.2,1453.8,1338.7,1456.2,1340,1458z"/>
	<path class="st66" d="M1340,1194.8c0-6.7,0.1-13.4,0.1-20.2C1341.1,1181.4,1342,1188.1,1340,1194.8z"/>
	<path class="st29" d="M1310.7,1210.1c4.5,0,9.1,0,13.6,0C1319.8,1211.5,1315.2,1211.3,1310.7,1210.1z"/>
	<path class="st29" d="M1278,1202c0.6,1.3,2.6,0.7,2.9,2.3c-3.5-1.1-7.2-1.2-10.9-1.2C1272.4,1200.8,1275.4,1202.5,1278,1202z"/>
	<path class="st13" d="M1168,1476.1c0.3-2.4-1-5,1-7.1C1168.8,1471.4,1169.7,1473.9,1168,1476.1z"/>
	<path class="st13" d="M1169,1468.1c0.3-2.4-1-5,1-7.1C1169.8,1463.4,1170.7,1465.9,1169,1468.1z"/>
	<path class="st13" d="M1170,1460.1c0.3-2.4-1-5,1-7.1C1170.8,1455.4,1171.7,1457.9,1170,1460.1z"/>
	<path class="st13" d="M1171,1452.1c0.3-2.4-1-5,1-7.1C1171.8,1447.4,1172.7,1449.9,1171,1452.1z"/>
	<path class="st13" d="M1144,1378c-2-0.3-4.3,0.9-6.1-1C1140,1377.2,1142.2,1376.4,1144,1378z"/>
	<path class="st29" d="M1303.9,1209.1c2.1,0.2,4.3-0.9,6.1,1C1307.9,1210.1,1305.8,1210.3,1303.9,1209.1z"/>
	<path class="st29" d="M1297.9,1208c2,0.3,4.3-1,6,1.1C1301.9,1209.1,1299.8,1209.2,1297.9,1208z"/>
	<path class="st29" d="M1292.7,1207.1c1.8,0.1,3.8-0.9,5.3,1C1296.2,1208.1,1294.3,1208.1,1292.7,1207.1z"/>
	<path class="st63" d="M1262.2,2162.7c-11.4-7.1-24-11.9-36.1-17.8c-0.5-0.3-1.1-0.4-1.3-1.1c-1.3-4.9,0.2-9.8,0.4-14.6
		c0.5-10,1.6-20,1.8-30.1c0-0.8,0.5-1.5,0.8-2.3c1.4-1.3,3.1-1.1,4.7-0.8c13.9,2.6,26.6,8.2,39.2,14.3c0.6,0.3,1,0.9,1.3,1.5
		c2.4,6.6,2.1,13.6,2.8,20.5c0.9,9.2,8.1,16.2,17.2,15.4c4.8-0.4,9.3-1.8,13.7-3.9c7.3-3.5,9.3-9.8,10.3-16.9
		c1.3,1.1,2.6,2.1,3.9,3.2c5,10.8,3.2,21.7-1.8,31.5c-4.8,9.3-14.4,11-24.2,10.4c-8.9-0.6-17.2-3.4-25.3-6.9
		C1267.3,2163.9,1265.1,2162.3,1262.2,2162.7z"/>
	<path class="st3" d="M1273.1,2111.8c-8-3.3-16-6.6-24-9.7c-6.8-2.6-13.8-4.8-21.2-5.2c-0.9-6.4,0-12.8,0.4-19.2
		c0.6-9.9,0-19.8,1.6-29.7c12.4,0.7,24.8,1.4,37.1,2.9c2.2,19.5,4.4,39,6.6,58.6C1273.6,2110.2,1273.3,2111,1273.1,2111.8z"/>
	<path class="st79" d="M1223.9,2167.3c0,0.2-0.1,0.4-0.1,0.6c-0.6,1.1-1.2,2.1-1.7,3.2c-1.6-9.1-1.7-18.1,0.7-27.1
		c0.1,1.5,0.3,2.9,0.4,4.4C1224.2,2154.7,1222.7,2161,1223.9,2167.3z"/>
	<path class="st3" d="M1223.9,2167.3c-0.5-0.4-1.5-0.9-1.4-1.2c1.7-5.9,0.2-11.9,0.7-17.8c0.2-0.2,0.5-0.3,0.8-0.4
		C1223.9,2154.4,1223.9,2160.9,1223.9,2167.3z"/>
	<path class="st3" d="M1224.8,2143.9c0.4,0.4,0.9,0.7,1.3,1.1c-0.7,1-1.5,2-2.2,3C1223.8,2146.5,1223.6,2145,1224.8,2143.9z"/>
	<path class="st3" d="M1177.1,2126c-2.2-2.8-0.7-6-1-9.1C1177.4,2119.8,1177.1,2122.9,1177.1,2126z"/>
	<path class="st3" d="M1175,2117c0-3,0-6.1,0.1-9.1c1.3,2.9,1,6,1.1,9C1175.8,2116.9,1175.4,2117,1175,2117z"/>
	<path class="st3" d="M1178.1,2135c-2.2-2.8-0.7-6-1.1-9.1C1178.4,2128.8,1178,2131.9,1178.1,2135z"/>
	<path class="st63" d="M1339,1452c-1.1-0.8-1-2-1-3.1c0-9.6,0-19.2,0-28.7c0-1.2-0.1-2.3,1-3.1C1339,1428.7,1339,1440.3,1339,1452z"
		/>
	<path class="st63" d="M1345,1336.1c0.5-4.3-1.2-8.9,1-13.1C1345.6,1327.4,1346.9,1331.8,1345,1336.1z"/>
	<path class="st63" d="M1340,1458c-1.8-1.8-0.7-4-1-6C1340.6,1453.8,1339.8,1456,1340,1458z"/>
	<path class="st3" d="M1320.1,2065.3c0.3-0.2,0.5-0.4,0.8-0.6c-0.3,5.1,1.2,10.3-1,15.3C1320,2075.1,1320.1,2070.2,1320.1,2065.3z"
		/>
	<path class="st80" d="M1171,1018c1.1,1.2,2.6,0.9,4,1.2c3,4.4,4.2,9.3,4.5,14.6c0.5,11.2-1.3,22.2-2.2,33.3c-0.3,3.5-2.5,6.4-5,9
		c-0.6-0.4-1.1-1-0.8-1.6c6.7-13.8,5.7-28.5,5.6-43.1c0-9.1-2.6-11.4-11.7-11.3c-6.2,0.1-12.3-0.1-18-2.5c-0.3-0.1-2.2-0.1-0.7-1.3
		c0.3-0.3,1-0.1,1.5-0.1h0.1c5.6,0.8,11.1,2.4,16.9,1.1C1166.8,1016.7,1169.1,1016.5,1171,1018z"/>
	<path class="st12" d="M1171,1018c-5.8-0.1-11.7,0.9-17.5,0c-1.9-0.3-3.9-0.6-5.4-1.9c1.2,0,2.4,0,3.6,0.1c1.7,0.9,3.8-0.2,5.5,0.9
		c2,0.5,4,0.4,6,0c2.7-0.8,5.3-0.9,8,0.1C1171.1,1017.4,1171.1,1017.7,1171,1018z"/>
	<path class="st29" d="M1171,1017.1c-2.7,0-5.3-0.1-8-0.1C1165.7,1015.5,1168.3,1015.4,1171,1017.1z"/>
	<path class="st29" d="M1157,1017c-1.9,0.2-3.8,0.2-5.4-0.9C1153.4,1016.2,1155.4,1015.3,1157,1017z"/>
</g>
</svg>
