<?xml version="1.0" encoding="utf-8"?>
<!-- Generator: Adobe Illustrator 22.1.0, SVG Export Plug-In . SVG Version: 6.00 Build 0)  -->
<svg version="1.1" id="Cubes" xmlns="http://www.w3.org/2000/svg" xmlns:xlink="http://www.w3.org/1999/xlink" x="0px" y="0px"
	 viewBox="0 0 1005 1229" style="enable-background:new 0 0 1005 1229;" xml:space="preserve">
<style type="text/css">
	.st0{fill:#FF9F61;}
	.st1{fill:#FF893E;}
	.st2{fill:#F3660B;}
	.st3{fill:#333ABF;}
	.st4{fill:#382B1D;}
	.st5{fill:#E6AC94;}
	.st6{fill:#575DCA;}
	.st7{fill:#EDEEF9;}
	.st8{fill:#ECC2B0;}
	.st9{fill:#C39584;}
	.st10{fill:#2E36C1;}
	.st11{fill:#E8AE94;}
	.st12{fill:#EEB293;}
	.st13{fill:#F3B491;}
	.st14{fill:#F0B292;}
	.st15{fill:#4143BC;}
	.st16{fill:#393EBE;}
	.st17{fill:#2E37BF;}
	.st18{fill:#E8AD95;}
	.st19{fill:#322719;}
	.st20{fill:#281F12;}
	.st21{fill:#3D2F21;}
	.st22{fill:#F0B494;}
	.st23{fill:#B3AEDA;}
	.st24{fill:#B5B7E9;}
	.st25{fill:#2F37C0;}
	.st26{fill:#362A1C;}
	.st27{fill:#F7B9A0;}
	.st28{fill:#F9BAA1;}
	.st29{fill:#FABAA2;}
	.st30{fill:#F4B69D;}
</style>
<g id="window_outline_copy">
	<path class="st0" d="M1004.7,31.6L50.4,582.9V1230l954.3-551.2V31.6z"/>
	<path id="Rectangle_6_copy-2" class="st1" d="M954.3,1L0,552.2l52.7,30.4L1007,31.4L954.3,1z"/>
	<path id="Rectangle_6_copy_2-2" class="st2" d="M1.3,551.5l52.6,30.4v647l-52.6-30.4C1.3,1198.5,1.3,551.5,1.3,551.5z"/>
</g>
<g id="Window_Inside_copy_2">
	<path id="Rectangle_6_copy_6-2" class="st0" d="M139.2,1039.5l735.9-425.1V173.1l-735.9,425V1039.5z"/>
	<path id="Rectangle_6_copy_7-2" class="st2" d="M190,1068.2l736-425l-51.1-29.5L139,1038.8L190,1068.2z"/>
	<g>
		<path class="st3" d="M642,680c0,2.3,0,4.7,0,7c-1.3,3.2-1.6,6.9-5.4,8.5c-3,2.8-7,2.7-10.6,3.9c-1.3,0.3-2.5,0.5-3.8,0.4
			c-1.8-0.4-3.5,0.2-5.2,0.6c-1.5,0.3-3,0.4-4.5,0.6c-0.8,0.1-1.5,0.3-2,0.8c-2.3,6.7-2.3,13.8-2.8,20.6
			c-1.3,15.9-3.3,31.7-3.3,47.6c-0.4,3-2.7,4.3-5,5.6c-3.3,1.8-6.5,3.7-10,5.1c-3.2,0.7-5.7-1-8.4-2.1c-1.4-0.7-2.7-1.3-4.3-1.4
			c-0.4-0.1-0.8-0.2-1.3-0.3c-1.5-0.8-2.9-0.4-4.3,0.2c-0.4,0.1-0.9,0.2-1.3,0.2c-1.7-0.1-3,0.8-4.5,1.5c-2.9,1.2-5.9,2.3-8.7,3.9
			c-9.7,5.3-19,3.6-27.9-1.8c-6.1-3.7-11.6-8.3-17.3-12.6c-6.1-4.6-12.5-8.9-19.3-12.5c-3.7-1.9-4.9-4.6-3.8-8.6
			c1.4-5.3,2.9-10.6,4.5-15.9c0.9-3.2,0.3-4.8-3.3-4.5c-2.6,0.2-5.3,0.2-8-0.2c-0.5-0.1-1-0.2-1.5-0.3c-1.6-0.8-3.4-0.9-5.1-0.9
			c-5-0.9-9.8-2.3-14.1-5.1c-2.8-1.8-5.5-3.8-6.5-7.3c-0.3-1-0.8-1.9-1.8-2.5c-0.4-0.3-0.7-0.6-1.1-0.9c-3.5-4.1-3.9-9.1-3.7-14.1
			c1-26.9,8.6-52.1,21-75.8c5.7-10.9,13.9-18.2,26.9-18.7c2.4-0.1,3.9-1.7,5.6-3c8.5-6.5,17.3-12.5,27.9-15c1-0.2,2-0.3,3-0.4
			c2.8,0.2,4.2,2.3,5.7,4.3c5.8,7.7,13.8,10.9,23.3,11.3c4.6,0.2,7-1.9,8.2-6.2c1-3.5,0.7-7.8,4.6-10c1.1-0.5,2.3-0.6,3.4-0.4
			c25.6,4.6,46.4,15.8,57,41.2c3.5,8.5,6.3,17.1,6.8,26.4c0.1,3.6,0.1,7.3,1.1,10.8c0,2.7,0,5.3,0,8C641.2,672,641.2,676,642,680z"
			/>
		<path class="st4" d="M532,419c8.3,0,16.7,0,25,0c6.4,2.3,13.1,1,19.7,2c8,1.2,15.6,3.4,22.7,7.1c17,8.7,26.5,27.9,23.2,46.6
			c-0.7,4-2.2,7.7-5.6,10.2c-0.6,0.5-1.7,0.7-1.7,1.6c0.6,8.1-3,16.4,1.3,24.3c0.7,4.3,0.3,8.7,0.4,13c-0.9,5.3-0.9,10.5,0.5,15.7
			c0.3,1.7,0.5,3.5,0.4,5.2c-0.8,3.4-0.4,6.7,0.6,10c0.2,1.1,0.3,2.3,0.2,3.5c-0.6,3.4-0.2,6.9-0.3,10.4c-0.2,3.1-1.5,5.5-4.1,7.3
			c-9.1,1.4-18.1,2.6-27.3,0.3c-1-0.2-1.9-0.6-2.4-1.6c-0.2-1.5,0.7-2.5,1.8-3.3c8.7-6.6,13.4-15.7,15.7-26.2
			c0.5-2.1,1.2-4.1,2.1-6.1c2.4-4.4,3-9.3,3.2-14.2c0-0.5,0.1-1,0.3-1.5c0.9-2.1,0.7-4.4,0.5-6.6c0-0.8,0-1.5,0.2-2.3
			c0.7-2.5,1.2-5,0.6-7.7c-0.1-1.1,0-2.1,0.2-3.2c1.2-4.3,1.5-8.6,0.5-12.9c-0.5-1.5-1.6-2-3-2.1c-1.7-0.3-3.4-0.4-5.1,0.2
			c-0.4,0.2-0.8,0.3-1.3,0.4c-1.6,0-3.1,0.4-4.5,0.9c-0.4,0.1-0.9,0.2-1.3,0.2c-1.6-0.2-3.1,0.3-4.6,0.8c-0.4,0.1-0.9,0.2-1.4,0.2
			c-1.6-0.2-3.2,0.4-4.7,0.8c-0.7,0.2-1.4,0.2-2.1,0.2c-1.8,0.1-3.7-0.2-5.4,0.6c-0.9,0.3-1.8,0.7-2.7,1.1c-0.5,0.1-1,0.2-1.5,0.2
			c-3.7,0.2-7.5-0.3-11.1,1c-7.1,0.1-14.3,0.7-21.3-1.2c-0.7-0.4-1.4-0.7-1.3-1.7c0.1-0.8,0.8-0.8,1.4-0.9c-0.9,0-1.5,0.4-2,1
			c-2.7,1.5-5.7-0.6-8.4,0.9c0.6,11.1,1.2,22.3,1.8,33.4c0.7,13.1,1.6,26.2,1.9,39.3c0.1,4.7-1.7,9.2-0.6,13.9
			c0.1,0.9-0.1,1.7-0.7,2.4c-4.2,1.7-8.4,1.5-12.6-0.2c-10.3-4.1-19-10.3-25.8-19.1c-2.5-3.3-4.1-7-4.3-11
			c-1.7-26.1-3.5-52.2,1.2-78.2c0.7-3.8,1.6-7.5,3.1-11c4.3-9.9,9-19.7,14.5-29c4.5-7.6,11.3-12.6,20.4-13.8
			C529.8,419.8,531,419.7,532,419z"/>
		<path class="st5" d="M478.2,793.1c-7.5-4.6-14.9-9.2-21.8-14.7c-3.5-2.8-6.3-6.3-9.4-9.4c0-1,0-2,0-3c0.8-3,0.8-6,0-9
			c0-3.7,0-7.3,0-11c3-4.7,1.9-10.2,2.9-15.2c1.4-6.8,2.2-13.6,3.2-20.5c0.2-0.1,0.5-0.1,0.7,0c1,0.2,1.1,1,1,1.8
			c1.3,3,4.1,4.6,6.1,6.9c4,5,9.9,4.8,15.4,6c1.6-0.4,3.2,0.8,4.7,0c4.1-0.1,8.3,0,12.4-0.5c3.2-0.4,2.9,1,2.3,3
			c-2,7.2-4,14.4-6.1,21.6c-0.5,1.7-1,3.1,1.2,4.1c13.9,6.4,25.2,16.7,37.7,25.3c9,6.3,18.4,8.1,28.4,2.2c2.5-1.5,5.4-2.4,8.2-3.6
			c1.1-1,2.5-0.4,3.7-0.5c2.8,0.6,5.6-0.1,8.5,0c1.3,0,2.6-0.4,3.8,0.4c2.6,1.1,5.2,2.2,7.7,3.3c8.4,9.9,5.3,25.6-6.6,35
			c-9.7,7.7-19.9,7.4-30.4,2.8c-4.5-2-9-3.4-13.8-4.2c-2.4-0.5-4.9-0.5-7.4-0.8c-2.4,0.7-4.7,0.3-6.9-0.6
			c-5.7-1.5-11.2-3.6-17.1-4.3c-2.4-0.3-4.7-1.3-6.8-2.7c-5.7-2.6-11.5-5-17-8.1C480.9,796.3,479,795.3,478.2,793.1z"/>
		<path class="st6" d="M642,680c-1.6-4-1.6-8,0-12C642,672,642,676,642,680z"/>
		<path class="st7" d="M642,660c-1.9-3.4-1.9-7.2-2.1-11"/>
		<path class="st8" d="M447,757c1.6,3,1.6,6,0,9C447,763,447,760,447,757z"/>
		<path class="st5" d="M635.1,704.2c0.2,9.1-1.5,18.1-2,27.2c-0.3,6.5,0.5,12.9,1,19.3c0.2,2.4-0.3,4.1-2.6,5.3
			c-6.9,3.6-13.7,7.3-20.6,11c-1.9,1-3.2,0.7-3.3-1.7c-0.6-10.6,1.3-21.1,1.2-28.2c0.3,4-0.8,11.3-1.2,18.7
			c-0.2,4.4,0.5,8.9-0.4,13.3c-0.4,0.2-0.7,0.5-1.1,0.7c-2.8-4-1.3-8.5-1.3-12.8c0-3.4,0.3-6.8,0.3-10.3c0-1.5-0.1-3,0.3-4.4
			c1.3-3.5,0.3-7.3,0.7-10.9c0.1-1.1,0.5-2.1,0.5-3.2c0.8-2.6,0.3-5.2,0.5-7.8c0.1-0.8,0.3-1.5,0.5-2.2c0.8-2.2,0.3-4.4,0.5-6.6
			c0-0.5,0.1-1,0.1-1.4c1.2-1.9,0.7-4.1,0.9-6.2c0-0.5,0.1-0.9,0.2-1.4c0.4-1.7,1.3-3,3.2-3.4c1.5-0.1,3.1-0.1,4.6-0.2
			c1.7-1,3.7,0,5.4-0.8c1.2,0,2.5-0.1,3.7-0.1c1.1-0.3,2.3,0,3.5-0.1C636,697.1,636,697.1,635.1,704.2z"/>
		<path class="st9" d="M573.1,580.1c0.1,0.9,0.2,1.7,0.3,2.6c-1,3.8-2.1,7.7-3.1,11.5c-1,4.2-3.7,6.1-7.9,6
			c-11.9-0.5-22.2-3.9-28.2-15.3c-0.3-0.5-0.9-0.9-1.4-1.3c0-0.8-0.1-1.5-0.9-1.8c0.1-0.6,0.1-1.1,0.2-1.7c0-0.3,0-0.6,0-0.9
			c1.3-9.9,1.3-19.8,0.6-29.7c-0.1-1,0-2,0.5-2.9c2.8-1.9,3.4,0.8,3.3,2.1c-0.4,9.5,7,12.8,13.3,16.8c5.5,3.5,11.6,5.5,18,6.8
			C573.4,573.5,573.8,574.3,573.1,580.1z"/>
		<path class="st10" d="M608.1,718.4c0,0.5-0.1,1-0.1,1.6c-1.3,2.7,0.2,5.7-0.9,8.5c0,0.9-0.1,1.7-0.1,2.6
			c-1.3,3.7,0.2,7.7-0.9,11.4c0,1.2-0.1,2.4-0.1,3.6c-1.1,5.8-0.2,11.7-0.5,17.6c-0.1,2.1,0.5,4.3-0.5,6.3c-0.6,0.4-1.3,0.9-1.9,1.3
			c-0.4-14.3,1.4-28.5,2.8-42.7c0.8-8.2,1.5-16.5,2.1-24.8c0.1-1.9,0-3.7,2-4.7c0.8,1.4,0.6,2.7,0.1,4.1l0-0.1c-1.5,2.3,0.1,5-1,7.3
			c0.2,0.2,0.1,0.5,0,0.7C607.7,713.3,609.2,716,608.1,718.4z"/>
		<path class="st11" d="M476,726c-4.9-0.8-9.8-1.5-14.2-4.1c-1.4-0.8-1.3-0.9-0.9-2.8c4.4,2.6,9.2,3.8,14.1,5c0.4,0.4,1,0.5,1.4,1
			C476.5,725.4,476.3,725.8,476,726z"/>
		<path class="st12" d="M635.1,704.2c0-1.2-0.1-2.3,0-3.5c0.2-2.5-0.8-3.5-3.2-2.5c-2,0.8-3.9,1-5.7-0.2c3.4-1.2,7-1.8,10-3.9
			C635.8,697.5,636.6,700.9,635.1,704.2z"/>
		<path class="st13" d="M577,776.9c-2.7,1.7-5.3,1.6-8,0.1c0.2-0.6,0.8-0.7,1.4-0.8c0.2,0.2,0.4,0.2,0.6,0c1.7-0.9,3.3-0.9,5,0
			l-0.1,0C576.3,776.3,576.7,776.5,577,776.9z"/>
		<path class="st5" d="M476,725c-0.3-0.3-0.7-0.6-1-1c1.8-0.1,3.6,0,5.2,0.8C478.9,725.8,477.4,725.7,476,725z"/>
		<path class="st14" d="M476,725c1.4,0,2.8-0.1,4.2-0.1c0.3-0.1,0.5-0.1,0.8,0.1c-1.4,1.5-3.3,0.9-5,1C476,725.7,476,725.3,476,725z
			"/>
		<path class="st15" d="M622.4,698.1c-1.7,1-3.5,1-5.4,0.8C618.6,697.5,620.5,698.1,622.4,698.1z"/>
		<path class="st15" d="M610.1,703.1c0-1.4-0.1-2.7-0.1-4.1c0.8,0.1,1.6,0.1,2.4,0.2C610.8,700,611,701.9,610.1,703.1z"/>
		<path class="st16" d="M576,776.1c-1.7,0-3.3,0-5,0C572.6,774.6,574.3,774.5,576,776.1z"/>
		<path class="st16" d="M570.4,776.1c-0.5,0.3-0.9,0.5-1.4,0.8c-1.3,0-2.6,0.1-4,0.1C566.6,775.4,568.5,776.1,570.4,776.1z"/>
		<path class="st16" d="M577,776.9c-0.4-0.3-0.7-0.5-1.1-0.8c1.8,0,3.6-0.5,5.1,0.9C579.7,776.9,578.3,776.9,577,776.9z"/>
		<path class="st17" d="M454.8,712.1c-0.3-0.6-0.7-1.2-1-1.8c0.5-0.6,1-0.8,1.5-0.1C455.9,710.9,455.5,711.6,454.8,712.1z"/>
		<path class="st18" d="M573.1,580.1c0.5-3.7-1.3-5.4-4.9-5.9c-11.2-1.6-20.7-6.8-29.3-13.9c-2.8-2.3-4.3-4.8-4-8.6
			c0.2-1.9,0.5-4-0.9-5.8c-1.6-1.1-1.4-2.8-1.5-4.5c-0.8-11.4-1.3-22.7-2.1-34.1c-0.1-0.5-0.2-1.1-0.3-1.7
			c-0.3-3.8,0.4-7.6-0.6-11.3c0-0.6,0.2-1,0.6-1.4c0.3-1.5-0.3-4.1,2.8-2.3c1.5,0.8,3.2,1.5,5,1.3c0,0,0.4,0.3,0.4,0.3
			c0,0.3,0,0.7,0,1c8.6,2.4,17.2,2,25.9,1c3-0.3,5.9,0,8.8-0.7c0.3-0.2,0.6-0.5,0.8-0.9l0,0.1c2.3-0.9,4.8-0.8,7.2-1.1
			c0.4-0.2,0.9-0.4,1.3-0.6c0.5-0.1,1.1-0.1,1.6-0.2c1.7-1,3.7,0,5.4-0.9c0.2,0.2,0.4,0.2,0.6-0.1c1.6-1.2,3.7,0,5.4-0.9
			c0.2,0.2,0.4,0.1,0.6-0.1c1-0.9,2.2-0.4,3.3-0.5c0.5,0.1,0.9,0.4,1.3,0.6c0.6,0.3-0.2,0.1,0.4,0.2c0-0.2-0.2-0.2-0.3-0.4
			c-0.1-0.5,0-0.7,0.4-0.9l-0.1,0c1.9-1.5,4.3,0.1,6.2-1.1c1.6,0.3,3.8-1.2,4.7,1.4c-1.2,5.1,0.5,10.4-1,15.5c0,0.8,0,1.6,0,2.4
			c-1.1,2.8,0.4,5.8-1,8.6c0,0.5,0,1,0,1.5c-1.1,2.4,0.5,5.2-1.1,7.5l0-0.2c-0.3,0.5-0.7,0.5-1.1,0.2c-0.5-1.3-0.2-2.6-0.3-3.9
			c0-0.7-0.6-0.1-0.5,0.1c1,1.6,0.1,3.8,1.5,5.3c-0.3,1.6,0.8,3.4-0.9,4.7c-1.3-0.3-1.4-1.2-0.7-2.1c0.1-0.2,0.1-0.8,0.1-0.3
			c-1.2,1.7,0.6,2.7,0.6,4.1c-0.3,2.8-0.5,5.6-2,8c-2.3,6.9-3.4,14.1-7.3,20.5c-3.4,5.6-7.1,10.6-13.2,13.5
			c-0.5,0.8-1.4,0.5-2.1,0.9c-0.8,0-1.7,0-2.5-0.1C576.3,574.2,573.5,575.5,573.1,580.1z"/>
		<path class="st19" d="M530.1,493c0.2,0.2,0.2,0.4,0,0.6c1.2,4-0.6,8.4,1,12.4l-0.1-0.1c1.2,5.7,0.7,11.5,1.2,17.2
			c1.4,16.5,1.5,33.1,1.3,49.7c0,2.6-1,4.8-1.5,7.2c0,0,0,0,0,0c-1.6-1.9-1.1-4.1-0.8-6.2c2-15.2-0.3-30.3-1.1-45.5
			c-0.4-6.9-1-13.9-1-20.8c0-5.8-0.6-11.5-1.2-18C528.9,491.2,529.5,492.1,530.1,493z"/>
		<path class="st4" d="M582.9,574.9c0.5-0.7,1.2-1.1,2.1-0.9c0.4,0.3,1,0.9,1.2,0.8c4.7-2,8.6,2.1,13.2,1.4
			c4.7-0.7,9.5-1.8,14.4-1.2C603.5,578.2,593.2,578.4,582.9,574.9z"/>
		<path class="st4" d="M615.9,484c-1.9,5.5-0.4,11.1-0.8,16.6c-0.2,3.1-0.1,6.3-0.2,9.4c-3.2-5-2.1-10.4-1.5-15.8
			c0.3-2.3,1.2-4.8,0-6.7C611,483.7,614.3,484.6,615.9,484z"/>
		<path class="st18" d="M539.2,492.3c7.4,2.3,15,1.1,22.4,1.6c1.2-0.5,2.4-0.7,3.5,0.2c-0.1,1.3-1.1,1.5-2.1,1.4
			c-7.8-0.2-15.7,0.7-23.5-1c-0.9-0.2-1.6-0.3-1.7-1.3c0.1-0.1,0.2-0.3,0.3-0.4C538.5,492.4,538.8,492.3,539.2,492.3z"/>
		<path class="st4" d="M605.5,539.9c0.6-3,1.7-5.8,1.5-8.9c-0.3-0.2-0.4-0.4-0.3-0.6c0.1-0.1,0.3-0.2,0.4-0.2
			c0.9-1.6,1.1-3.4,0.9-5.2c-0.3-0.2-0.4-0.4-0.3-0.6c0.1-0.2,0.3-0.2,0.4-0.2c0.2-0.1,0.5-0.3,0.8-0.4
			C609,529.4,608.8,535,605.5,539.9z"/>
		<path class="st4" d="M615.1,523.4c0.9,5.5,1,11,0.9,16.6C613.9,534.6,615.5,528.9,615.1,523.4z"/>
		<path class="st4" d="M611,504c0-5.2-0.1-10.4,1-15.5C611.6,493.7,613.1,499,611,504z"/>
		<path class="st5" d="M565,494.2c-1.1-0.1-2.3-0.2-3.4-0.3c4-1,8.1-1,12.3-1.1c0,0.4,0.1,0.8,0.1,1.1
			C571,494.9,568,494.6,565,494.2z"/>
		<path class="st4" d="M617.1,557.4c1,4,1.1,7.9,0,11.9C617.1,565.4,617.1,561.4,617.1,557.4z"/>
		<path class="st4" d="M616.1,544.4c1.1,3.4,1.1,7,1,10.6C614.9,551.6,616.4,548,616.1,544.4z"/>
		<path class="st4" d="M610,515c0-2.9-0.1-5.8,1-8.6C610.6,509.3,611.9,512.3,610,515z"/>
		<path class="st5" d="M582,491.9c-2.5,2.1-5.4,0.8-8.1,1c0.7-0.3,1.4-0.6,2.1-0.9C578,491.2,580,491.3,582,491.9z"/>
		<path class="st20" d="M539.2,492.3c-0.3,0.1-0.7,0.3-1,0.4c0-0.2-0.1-0.5-0.2-0.7c1.7-1.7,3.8-0.8,5.7-0.4
			C542.2,491.9,540.7,492.1,539.2,492.3z"/>
		<path class="st4" d="M608.8,524c0-2.6,0.1-5.1,1.1-7.5C609.6,519,610.9,521.7,608.8,524z"/>
		<path class="st4" d="M612.5,515c-0.7-1.7-0.7-3.2,0-4.9C613.2,511.8,613.2,513.2,612.5,515z"/>
		<path class="st21" d="M582,491.9c-2,0-4,0.1-6,0.1c2-1.6,4.2-0.8,6.4-0.8C582.3,491.4,582.1,491.6,582,491.9z"/>
		<path class="st21" d="M607.2,487.1c-2,1-4.1,1.1-6.2,1.1C602.8,486.3,605.1,487.2,607.2,487.1z"/>
		<path class="st4" d="M604.2,556.5c-0.3,0.1-0.9,0.4-1.5,0.6c0,0-0.4-0.6-0.3-0.7c0.3-0.5,0.7-1,1.1-1.4
			C603.6,555.2,603.7,555.5,604.2,556.5z"/>
		<path class="st21" d="M600,489c-1.3,0-2.7,0-4,0c1.5-1.5,3.4-1,5.2-0.9c-0.1,0.3-0.2,0.5-0.4,0.8C600.6,489.4,600.3,489.5,600,489
			z"/>
		<path class="st21" d="M589.4,490.1c-1.7,0.9-3.5,1-5.4,0.9C585.6,489.5,587.5,490.1,589.4,490.1z"/>
		<path class="st21" d="M595.4,489.1c-1.7,1-3.5,1-5.4,0.9C591.6,488.5,593.5,489.1,595.4,489.1z"/>
		<path class="st3" d="M524,811c2.4,0.4,4.8,0.8,7.2,1.3c0.7,0.4,1.4,0.7,0.8,1.7c-5.1,0.9-9,4.2-13.2,6.7
			c-16.6,9.8-33.1,19.6-49.7,29.5c-1.2,0.5-2.2,0.6-2.2-1.2c3.1-18.7,8.6-37,11.3-55.8c7.4,3.6,14.7,7.2,22.1,10.8
			c0.1,1.2,1.1,1.6,2,1.9C509.3,808.3,516.4,810.7,524,811z"/>
		<path class="st22" d="M607,769.1c-0.5-12.2,0.5-24.4,1.6-36.6c0,6.3,0.7,12.6-0.2,19c-0.6,4.2-0.3,8.6-0.4,12.9
			c0,1.9,1,2.7,2.8,2.6C609.9,768.2,608.5,768.7,607,769.1z"/>
		<path class="st3" d="M605,769.9c0-6.2,0-12.5,0-18.7c0-1.8-0.4-3.6,1-5.2c0,7.9,0,15.9,0,23.8C605.7,769.8,605.3,769.8,605,769.9z
			"/>
		<path class="st23" d="M532,814c-0.3-0.6-0.5-1.1-0.8-1.7c2.2,0.5,4.5,1,6.7,1.6C535.9,813.9,534,813.9,532,814z"/>
		<path class="st24" d="M466.9,849c0.4,1,1.3,1.1,2.2,1.2c-0.7,0.9-1.6,1.9-2.7,0.9C465.7,850.4,466.2,849.5,466.9,849z"/>
		<path class="st25" d="M524,811c-1.4,1.3-3.1,1.2-4.7,0.8c-6.4-1.6-12.9-2.8-18.8-6.1c-0.7-0.4-2.9-0.9-0.2-1.8
			c5.7,3.4,12.5,3.2,18.6,5.5C520.5,810,522.3,810.5,524,811z"/>
		<path class="st3" d="M606.1,742.4c0.2-3.8-1.1-7.7,0.9-11.4C607.1,734.8,607.2,738.7,606.1,742.4z"/>
		<path class="st3" d="M607.1,728.4c0.2-2.8-1-5.8,0.9-8.5C608.1,722.8,608.2,725.7,607.1,728.4z"/>
		<path class="st3" d="M609.1,710.3c0.2-2.5-1-5.1,1-7.3C610.2,705.5,610.1,708,609.1,710.3z"/>
		<path class="st3" d="M608.1,718.4c0.1-2.5-0.9-5.2,0.9-7.4C609.1,713.5,609.1,716,608.1,718.4z"/>
		<path class="st26" d="M532,580c1.9-13.3,1.2-26.6,0.7-39.9c-0.4-11.4-2.1-22.8-1.7-34.3c1.8,11.6,1.7,23.4,2.7,35.1
			c0.1,1.6,0.2,3.3,0.3,5c0,8.7,0,17.4-0.1,26.1C533.9,574.8,534.1,577.8,532,580z"/>
		<path class="st27" d="M565,494.2c3-0.1,6-0.1,8.9-0.2c0.2,0,0.3,0.1,0.5,0.2c0.1,0.1,0.2,0.2,0.3,0.4c-13.2,1.6-26.5,3-39.9-0.5
			c1-1.4,2.1-0.7,3-0.8C546.9,495.6,555.9,495.7,565,494.2z"/>
		<path class="st4" d="M531.1,506c-2.3-4-0.7-8.2-1-12.4C531.2,497.7,531.2,501.8,531.1,506z"/>
		<path class="st28" d="M608.1,524.2c0.2,0.3,0.1,0.5-0.1,0.8c-1.6-1.6-0.8-3.6-0.3-5.5C607.8,521.1,608,522.6,608.1,524.2z"/>
		<path class="st29" d="M607.1,530.3c0.1,0.3,0.1,0.5-0.1,0.8c-1.2-1-1.1-2.3-0.6-5.1C606.8,528.3,607,529.3,607.1,530.3z"/>
		<path class="st30" d="M600,489c0.2-0.2,0.5-0.2,0.8-0.1c1,0.1,1.9,0.2,3.7,0.4C602.3,490.2,601.1,490.1,600,489z"/>
	</g>
	<path id="Rectangle_6_copy_8-2" class="st1" d="M874.5,613.9l50.9,29.4V201.9l-50.9-29.4V613.9z"/>
</g>
</svg>
