<?xml version="1.0" encoding="UTF-8"?>
<svg width="27px" height="27px" viewBox="0 0 27 27" version="1.1" xmlns="http://www.w3.org/2000/svg" xmlns:xlink="http://www.w3.org/1999/xlink">
    <!-- Generator: Sketch 50 (54983) - http://www.bohemiancoding.com/sketch -->
    <title>Group 2</title>
    <desc>Created with Sketch.</desc>
    <defs></defs>
    <g id="Style-Guide-Product-Website" stroke="none" stroke-width="1" fill="none" fill-rule="evenodd">
        <g id="Icons---Desktop" transform="translate(-61.000000, -61.000000)" fill="#FFFFFF" fill-rule="nonzero">
            <g id="Instagram" transform="translate(60.000000, 60.000000)">
                <g id="029-instagram" transform="translate(1.817460, 1.866850)">
                    <g id="Group-2">
                        <path d="M17.8644052,0 L7.58003633,0 C3.40038668,0 0,3.49279238 0,7.78602426 L0,18.3498714 C0,22.6431033 3.40038668,26.1358957 7.58003633,26.1358957 L17.8644052,26.1358957 C22.0440548,26.1358957 25.4444415,22.6431033 25.4444415,18.3498714 L25.4444415,7.78602426 C25.4443953,3.49279238 22.0440087,0 17.8644052,0 Z M22.8847316,18.3498714 C22.8847316,21.1978442 20.6370317,23.5066255 17.8644052,23.5066255 L7.58003633,23.5066255 C4.8074098,23.5066255 2.55970987,21.1978442 2.55970987,18.3498714 L2.55970987,7.78602426 C2.55970987,4.938004 4.8074098,2.62927014 7.58003633,2.62927014 L17.8644052,2.62927014 C20.6370317,2.62927014 22.8847316,4.938004 22.8847316,7.78602426 L22.8847316,18.3498714 Z" id="Shape"></path>
                        <path d="M12.7222208,6.3746087 C9.12914954,6.3746087 6.20596134,9.37724525 6.20596134,13.0679244 C6.20596134,16.7586035 9.12914954,19.761287 12.7222208,19.761287 C16.315292,19.761287 19.2384802,16.7586504 19.2384802,13.0679244 C19.2384802,9.37719828 16.315292,6.3746087 12.7222208,6.3746087 Z M12.7222208,17.157856 C10.5231884,17.157856 8.74055247,15.3267704 8.74055247,13.0679713 C8.74055247,10.8091722 10.5232341,8.97808663 12.7222208,8.97808663 C14.9212531,8.97808663 16.703889,10.8091722 16.703889,13.0679713 C16.703889,15.3267235 14.9212074,17.157856 12.7222208,17.157856 Z" id="Shape"></path>
                        <ellipse id="Oval" cx="19.5487782" cy="6.05587827" rx="1.55149034" ry="1.59365218"></ellipse>
                    </g>
                </g>
            </g>
        </g>
    </g>
</svg>