<?xml version="1.0" encoding="UTF-8"?>
<svg width="19px" height="26px" viewBox="0 0 19 26" version="1.1" xmlns="http://www.w3.org/2000/svg" xmlns:xlink="http://www.w3.org/1999/xlink">
    <!-- Generator: Sketch 50 (54983) - http://www.bohemiancoding.com/sketch -->
    <title>Shape</title>
    <desc>Created with Sketch.</desc>
    <defs></defs>
    <g id="Style-Guide-Product-Website" stroke="none" stroke-width="1" fill="none" fill-rule="evenodd">
        <g id="Icons---Desktop" transform="translate(-36.000000, -92.000000)" fill="#FFFFFF" fill-rule="nonzero">
            <g id="Location-Icon" transform="translate(30.000000, 90.000000)">
                <path d="M15.4026599,2.5 C10.3292347,2.5 6.20122536,6.62897085 6.20122536,11.7040896 C6.20122536,13.0278778 6.47211158,14.2917963 7.0059544,15.4610488 C9.30656884,20.4965102 13.7174867,25.8128991 15.0148757,27.3221815 C15.1120775,27.4350131 15.2537876,27.5 15.4029157,27.5 C15.5520438,27.5 15.6937539,27.4350131 15.7909558,27.3221815 C17.0878332,25.813155 21.498751,20.4970219 23.8001329,15.4610488 C24.3342315,14.2917963 24.6048619,13.0278778 24.6048619,11.7040896 C24.6043503,6.62897085 20.476341,2.5 15.4026599,2.5 Z M15.4026599,16.4847204 C12.7672107,16.4847204 10.6228866,14.3398968 10.6228866,11.7038337 C10.6228866,9.06751474 12.7672107,6.92269117 15.4026599,6.92269117 C18.0381092,6.92269117 20.1824333,9.06751474 20.1824333,11.7038337 C20.1826891,14.3398968 18.038365,16.4847204 15.4026599,16.4847204 Z" id="Shape"></path>
            </g>
        </g>
    </g>
</svg>