<?xml version="1.0" encoding="utf-8"?>
<!-- Generator: Adobe Illustrator 22.1.0, SVG Export Plug-In . SVG Version: 6.00 Build 0)  -->
<svg version="1.1" id="Cubes" xmlns="http://www.w3.org/2000/svg" xmlns:xlink="http://www.w3.org/1999/xlink" x="0px" y="0px"
	 viewBox="0 0 1640 2212" style="enable-background:new 0 0 1640 2212;" xml:space="preserve">
<style type="text/css">
	.st0{opacity:0.7;}
	.st1{opacity:0.7;fill:#FF9F61;enable-background:new    ;}
	.st2{opacity:0.7;fill:#FF893E;enable-background:new    ;}
	.st3{opacity:0.7;fill:#F3660B;enable-background:new    ;}
	.st4{opacity:0.7;fill:#FFFFFF;enable-background:new    ;}
	.st5{fill:#FF9F61;}
	.st6{fill:#FF893E;}
	.st7{fill:#F3660B;}
	.st8{fill:#FFFFFF;}
	.st9{fill:#E8AD95;}
	.st10{fill:#382B1D;}
	.st11{fill:#CDCFEF;}
	.st12{fill:#44382B;}
	.st13{fill:#E6E7F7;}
	.st14{fill:#333ABF;}
	.st15{fill:#E6AC94;}
	.st16{fill:#E8AD94;}
	.st17{fill:#C39584;}
	.st18{fill:#68584B;}
	.st19{fill:#AC8F81;}
	.st20{fill:#3038C0;}
	.st21{fill:#343BBF;}
	.st22{fill:#EAAE96;}
	.st23{fill:#35291B;}
	.st24{fill:#E4AA93;}
	.st25{fill:#3E2F21;}
	.st26{fill:#644B3B;}
	.st27{fill:#DEA68F;}
	.st28{fill:#2A2013;}
	.st29{fill:#2732C4;}
	.st30{fill:#B1898B;}
	.st31{fill:#2430C6;}
	.st32{fill:#AE826E;}
	.st33{fill:#AB7F6B;}
	.st34{fill:#544030;}
	.st35{fill:#795C4A;}
	.st36{fill:#E3AA95;}
	.st37{fill:#3A3EBE;}
	.st38{fill:#D09D7E;}
	.st39{fill:#FE883F;}
	.st40{fill:#FEFEFE;}
	.st41{fill:#4C4134;}
	.st42{fill:#FEA974;}
	.st43{fill:#EFC8B8;}
	.st44{fill:#4B52C7;}
	.st45{fill:#454CC5;}
	.st46{fill:#E1E3F6;}
	.st47{fill:#9B948D;}
	.st48{fill:#F8F7F7;}
	.st49{fill:#C39583;}
	.st50{fill:#E6AD96;}
	.st51{fill:#2F2416;}
	.st52{fill:#494FC6;}
	.st53{fill:#575DCB;}
	.st54{fill:#474EC6;}
	.st55{fill:#474DC6;}
	.st56{fill:#A2A5E2;}
	.st57{fill:#9DA1E1;}
	.st58{fill:#948FD8;}
	.st59{fill:#E6AC95;}
	.st60{fill:#2833C2;}
	.st61{fill:#2F38C2;}
	.st62{fill:#F3B493;}
	.st63{fill:#4B51C7;}
	.st64{fill:#F8E7DF;}
	.st65{fill:#484FC6;}
	.st66{fill:#676DD0;}
	.st67{fill:#686DD1;}
	.st68{fill:#8C91DC;}
	.st69{fill:#2735C7;}
	.st70{fill:#2E2416;}
	.st71{fill:#2D2315;}
</style>
<g id="Queue-2">
	<g id="Window_BG" class="st0">
		<g id="Window_Outline_copy_2" class="st0">
			<path class="st1" d="M808,70l768.8,444.3v888.5L808,958.6V70z"/>
			<path id="Rectangle_7_copy_2-7" class="st2" d="M872.2,35L1641,479.3l-64.2,37.1L808,72.1L872.2,35z"/>
			<path id="Rectangle_7_copy_3-7" class="st3" d="M1576.1,516.4l63.8-36.9v888.5l-63.8,36.9V516.4z"/>
		</g>
		<g id="Window_Inside_copy_3" class="st0">
			<path class="st4" d="M1485.7,1209.3L920,882.1V227.8L1485.7,555V1209.3z"/>
			<path id="Rectangle_7_copy_2-8" class="st3" d="M1438.4,1235L872.8,907.9l47.3-27.3l565.6,327.2L1438.4,1235z"/>
			<path id="Rectangle_7_copy_3-8" class="st2" d="M920.5,880.5l-47,27.2V253.4l47-27.2V880.5z"/>
		</g>
	</g>
	<g id="Window_3">
		<g id="Window_Outline_copy-2">
			<path class="st5" d="M622,174l768.8,444.3v888.5L622,1062.6V174z"/>
			<path id="Rectangle_7_copy_2-9" class="st6" d="M686.2,139L1455,583.3l-64.2,37.1L622,176.1L686.2,139z"/>
			<path id="Rectangle_7_copy_3-9" class="st7" d="M1390.1,620.4l63.8-36.9v888.5l-63.8,36.9V620.4z"/>
		</g>
		<g id="Window_Inside_copy">
			<path class="st8" d="M1299.7,1313.3L734,986.1V331.8L1299.7,659V1313.3z"/>
			<path id="Rectangle_7_copy_2-10" class="st7" d="M1252.4,1339l-565.6-327.2l47.3-27.3l565.6,327.2L1252.4,1339z"/>
			<g>
				<path class="st9" d="M871.2,1067.9c-15.3,5.5-30.5,11.2-45.8,16.5c-13.4,4.6-26.5,10.2-40,14.5c-3,1-5.9,2.4-8.9,3.1
					c-13.4,2.8-23.5,11-33.6,19.6c-9.1,7.9-19.2,14.4-31.1,17.2c-15.7,3.7-29.4-1.5-42.4-10c-3.7-2.4-6.3-5.8-9.3-8.8c0-3,0-6,0-9
					c8.9-11.2,21.7-15.4,34.7-18.9c6-1.6,11.8-3.4,17.1-6.7c1.8-1.2,4.5-2.6,3.9-5.3c-0.7-2.9-3.7-3-6.2-3.2
					c-4.4-0.4-8.6,0.7-12.8,1.7c-2.9,0.7-5.9,1.2-8.8,1.9c-2.5,0.6-4.9,0.3-6.3-1.8c-1.6-2.4-0.6-4.9,1.1-6.9
					c5-6.1,12.2-8.5,19.3-10.8c7.9-2.5,16-2.1,24.2-1c18,2.4,35.3,0.4,51.7-8.3c19-10,37.5-20.9,56.2-31.3c3.3-1.9,3.3-4.8,3.7-7.6
					c1.1-8.9,2.1-17.8,3-26.7c2.1-20,4.3-39.9,6.4-59.9c9.7,2.8,19.2,6.1,28.8,9.2c2.6,0.9,3.1,3,3.3,5.5c0.4,5.5-0.7,10.9-1,16.3
					c-0.1,2.5,0,5,0,7.5c0,1.4-0.1,2.9-0.4,4.3c-1.2,4.5-0.3,9.2-0.7,13.8c0,0.9-0.1,1.8-0.4,2.7c-1.3,7-0.9,14.2-1.2,21.2
					c-0.6,11.2-1.9,22.4-1.3,33.6c0,0.9-0.1,1.8-0.3,2.7c-1.3,5.4-0.3,10.9-0.6,16.3c-0.1,1.9,0.1,3.9-0.4,5.8
					C872.7,1066.3,872,1067.1,871.2,1067.9z"/>
				<path class="st10" d="M1013,572c5.3,1.8,10.7,3.2,15.7,5.4c17.9,8.1,26.1,23.3,30,41.6c2.2,10.3,1.4,20.5-2.4,30.4
					c-1,2.5-1,5.2-0.9,7.9c0.4,13.6,1.5,27.3-0.5,40.9c-0.1,1-0.5,1.9-0.8,2.8c-1.6,0.5-2.1-0.9-2.8-1.8
					c-1.6-6.3-4.6-11.5-10.8-14.3c-0.3-0.3-0.6-0.6-0.9-1c-2.3-1.3-4.5-1.1-6.8,0c-1,0.7-1.9,1.4-2.7,2.1c-3.3,2.3-6,5.2-8.2,8.6
					c-3,4.6-3.8,4.7-8.3,1.3c-6.1-4.5-8.6-11.4-11-18.1c-3.3-8.7-5.5-17.8-7.4-27c-0.4-1.6-0.4-3.3-1-4.9c-0.8-3.3-1.3-6.7-2.3-10.2
					c-2.4,1-2.9,3.2-4.3,4.5c-3.3,3.7-7.1,6.9-11,9.9c-1.9,1.5-3.8,2.7-6.3,2.4c-6,2.1-11.8,4.5-17,8.3c-0.4,0.3-0.9,0.5-1.4,0.6
					c-2.4,0.1-3-1.5-3.2-3.5c0-4.2,2.1-7.9,2.5-12.5c-3.7,0.3-6.1,2.6-8.7,4.4c-9.3,6.1-19.2,11-29.9,14.4c-2.1,0.7-4.3,1.9-6.7,0.5
					c-7.8-0.9-10-7-11.7-13.2c-6.2-23.5,5.7-51.4,27.1-63.5c14.2-8,29.8-11,45.9-12.4c5.7-0.5,11.4-1.1,16.5-3.9c3.3,0,6.7,0,10,0
					c4,0.9,8,0.9,12,0C1008.3,572,1010.7,572,1013,572z"/>
				<path class="st11" d="M1128.1,899c1.9,5.8,1.8,11.9,2.1,17.9c0.9,1.6-0.3,3.5,0.9,5.1c0,7.3,0,14.7,0,22c-2,2.7-0.4,6.5-2.9,9
					c-1.3-1.1-1.2-2.6-1.1-4.2c0.6-14.6,1-29.2-0.4-43.8C1126.4,902.9,1126.3,900.7,1128.1,899z"/>
				<path class="st12" d="M1006,572c-4,1.6-8,1.6-12,0C998,572,1002,572,1006,572z"/>
				<path class="st13" d="M1131,922c-1.6-1.5-0.8-3.4-0.9-5.1c0.3,0,0.6,0.1,0.9,0.1C1131,918.7,1131,920.3,1131,922z"/>
				<path class="st14" d="M1128.1,899c0.4,10.1,0.9,20.2,1.1,30.3c0.2,7.9,0,15.9-1.1,23.8c-1.5,4-4.2,7.3-6.4,10.9
					c-3.3,6.4-8.3,10.3-15.7,10.7c-2.5-0.1-4.9,0.6-7.4,1.1c-3.3,0.7-6.6,0.7-9.8-0.4c-3.7-1.3-7.6-1.3-11.3-0.1
					c-3.8,1.3-7.5,1.5-11.3,0.5c-2.1-0.5-3.1-0.4-3,2.1c0.3,7.6,1,15.2,1.7,22.8c0.4,4,0.6,7.9-0.3,11.9c-0.9,4.3-0.8,8.6,1.4,12.6
					c1.1,2,1.3,4.1,1.3,6.3c0,5.7,0.2,11.3,0,17c-0.3,7.9,1.1,15.8-2.4,23.5c-1.7,3.7-0.7,8.3-0.3,12.7c1.3,15.6,1.3,31.2,0,46.8
					c-0.3,3.5-1,6.9,0,10.3c3,10,2,20.3,2.8,30.5c-0.2,0.7,0.8,0,0.1,0.1c-0.1,0-0.2-0.1-0.2-0.4c0-9.6-0.7-19.2-1.8-28.8
					c-0.2-1.7-0.1-3.3,0.7-4.9c0.4-0.6,0.9-0.8,1.5-0.7c0.8,0.6,1.1,1.4,1.3,2.3c0.6,4.9-0.4,9.8,0.7,14.6c0.3,1.1,0.4,2.3,0.4,3.4
					c0.2,4.2-0.5,8.4,0.6,12.6c0.2,0.6,0.3,1.1,0.3,1.7c-0.1,2.6,0.8,5.3-1.4,7.4c-22.8-13.1-45.6-26.2-68.4-39.3
					c-40.9-23.6-81.8-47.3-122.7-71.1c-2.5-1.5-5-1.4-7.6-1.6c0.2-0.7,0.4-1.4,0.6-2.1c2.1-2.9,1.6-6.4,1.7-9.5
					c0.4-22.2,1.6-44.5,2.8-66.7c0.9-16.9,2.9-33.8,3.9-49.7c-0.1-1.8-0.9-1.2-0.3-1.3c0.2-0.1,0.4,0.1,0.3,0.4
					c-0.6,7.7-1.3,15.5-1.3,23.2c0,1.3,0,2.8-1.9,2.8c0.4-8,0.6-16,1.2-23.9c0.2-2.9-0.8-4.1-3.5-4.9c-7.2-2-14.3-4.4-21.5-6.6
					c-2.3-0.7-4.3-1.6-6-3.3c-4.1-7.2-3-14.8-1.8-22.4c2.9-18.8,9.2-36.8,15.6-54.6c2.4-6.7,5.4-13.3,7.5-20.1
					c6.8-22.5,23-34,44.9-38.5c9.5-1.9,18.8-4.1,28-7c3.9-2,7.7,0.1,11.5,0.5c2.6,0.9,3.2,3,3.5,5.5c1,6.7,1.5,13.5,3.3,20.1
					c0.9,3.1,2,6,5.5,7.1c3.8,1.2,7.7,0.9,11.6,0.2c10.1-1.4,19.5-4.4,27.7-10.6c5.9-4.5,9-10.5,9.3-18c0.1-2.3-1.1-5.1,1.9-6.6
					c0.4,0.3,0.9,0.7,1.3,1c-1.2,2.9-0.1,6-0.4,7.5c0.1-1.5-0.6-4.6,0.4-7.5c12.4,0.2,23.8,4.3,35.1,8.7c7.6,3,14.7,6.9,21.3,11.8
					c1.5,1.1,2.9,2.2,4.8,2.5c21.3,2.9,32.7,16.3,38.7,35.9C1122.8,860.5,1125.7,879.7,1128.1,899z"/>
				<path class="st9" d="M952.8,785.1c-4,0.5-7.6-1.5-11.5-1.5c-5.1-4.5-10.4-8.6-13.9-14.7c-6.7-11.5-10.5-24-13.3-36.9
					c-4.4-20.7-6.3-41.7-7.1-62.8c-0.1-1.5-0.1-3-0.9-4.3c15.7-3.4,29.3-11.3,42.4-20.1c1.2-0.8,2.5-2.5,3.9-1.6
					c1.8,1.1,0.3,3,0,4.5c-0.8,3.4-1.7,6.7-2.6,10.1c-0.4,0.8-0.3,1.6-0.6,2.5c-0.1,2.6,1.7,1.8,3.1,1.8c5.2-0.1,9.3-3.1,13.7-5.4
					c6.6-3.5,12.9-7.4,18.1-12.8c1.1-1.1,2.8-2,2.5-4c1.7-2.2,3.4-4.4,5.4-7.1c1.7,4.6,2.5,8.8,3,13.1c1.1,1.5-0.4,3.6,1.1,5.1
					c2.8,9.2,4.6,18.7,8.1,27.7c3,7.6,5.9,15.3,14.3,18.9c3.1-4.7,5.9-9.8,11.2-12.7c3.6-1.4,7.1-3.3,11.1-0.9
					c7.2,2.4,10.3,7.9,11.2,15c0.7,1.1,0.7,2.3,0.8,3.6c-0.3,1.8-1.5,3.5-0.8,5.5c-1.8,3.7-2.2,7.9-4.3,11.6c-2.3,4.1-4.9,8-9.4,10
					c-2.9,1.3-3.8,3.4-4.3,6.1c-2.1,10.7-6.9,20.1-14.5,27.8c-3.5,3.6-5,7.1-4.4,11.9c0.2,1.8,0,3.6-0.1,5.5c-2.6,0-2-2.2-2.3-3.6
					c-0.3-1.6,0.2-3.3-0.5-5.3c-5.2,3.7-10.8,6.6-16.6,9c-10.1,4.2-20.9,5.4-31.7,6.4C960,787.7,956.3,786.9,952.8,785.1z"/>
				<path class="st15" d="M1107,974.1c6.2-1.5,10.3-6.1,14.6-10.2c0.6,21.9,0.4,43.9-0.7,65.8c-1.7,33.5-3.2,67-7.8,100.2
					c-2.2,15.9-4.2,31.9-6,47.9c-0.7,5.9-0.4,12,0.3,17.9c0.2,1.8,0.7,3.6,0,6.1c-11.3-6.7-22.4-13.3-33.4-19.8
					c-2.3-1.6-2.8-4.1-2.9-6.6c-1.6-28.2-5.1-56.3-3.3-84.6c0.9-13.3,0.8-26.5,1.4-39.8c0.5-12.8-0.3-25.9-1.2-38.8
					c-0.7-9.8-1.1-19.5-2.1-29.3c-0.2-2.6,1.3-4,3.9-4.3c2.5-0.3,4.9,0.5,7.4,0.7c8.7,0.6,17.2-0.6,25.7-2.2c1.2-0.2,2.8-0.4,3-2.1
					C1106,974.4,1105.8,973.4,1107,974.1z"/>
				<path class="st16" d="M1106.2,975.1c1,0,1.9,0,3.3,0c-3.4,4.1-8,4.3-12,4.7c-8,0.7-16,2.4-24.2,0.4c-5.6-1.4-6.3-0.1-5.5,5.9
					c0.6,4.6,0.9,9.3,1,13.9c0.4,11.3,1.8,22.5,1.3,33.8c-0.2,3.9,1.3,8,0.8,11.8c-1.7,13.5-0.9,27.2-1.5,40.7
					c-0.8,16.2-0.4,32.5,0.3,48.8c0.6,12.4,3.3,24.7,2.4,37.2c-0.2,3.4,0.8,6.6,2,9.7c-1.3-0.1-2.3-0.7-3.1-1.8
					c-1.2-2.6,0.6-5.6-1-8.2c-0.2-0.2-0.2-0.4,0-0.7c-1.2-4.4,0.5-9-1-13.3c0-0.9,0-1.7-0.1-2.6c-1.2-5.1,0.6-10.4-1-15.4
					c0-0.5,0-1.1,0-1.6c-1.4-1.9-1.3-4.1-1.3-6.2c0-17.8-0.1-35.6,0-53.4c0-1,0.1-1.9,0.3-2.9c0.5-1.4,0.6-2.9,0.6-4.4
					c0-16.1,0-32.2,0-48.3c0-1.2-0.1-2.3-0.5-3.4c-0.3-0.9-0.4-1.8-0.4-2.7c0-10.9-0.4-21.9-2.6-32.6c-0.2-0.9-0.3-1.8-0.3-2.7
					c0-3.5,1.8-4.3,5.1-4.1c9,0.3,17.9,0.4,26.9,0c1.7-0.6,3.5-0.5,5.2-1.1c1.5-0.6,2.9-1.5,4.6-1.3
					C1105.8,975,1106,975,1106.2,975.1z"/>
				<path class="st15" d="M1069.9,1172c2.2,2.5,0.7,5.5,1,8.2c-0.4-0.1-0.7-0.3-1.1-0.4C1069.9,1177.2,1069.9,1174.6,1069.9,1172z"
					/>
				<path class="st17" d="M952.8,785.1c22.2,2.5,42.4-2.8,60.7-15.6c1.5,3.9-0.8,7.9,1.5,11.3c0.2,0.4,0.4,0.7,0.7,1.1
					c-0.2,1.5-0.6,2.9-0.5,4.4c0.6,10.9-4.6,18.4-13.6,23.7c-7.5,4.5-15.5,7.5-24.4,8c-4.1,0.6-8.2,0.7-12.3,0
					c-4,0.4-4.9-2.8-5.9-5.5c-2.5-7.4-2.9-15.2-3.8-22.9C955,787.7,954.9,786,952.8,785.1z"/>
				<path class="st18" d="M1051.8,703c0.1-1.3,0.2-2.7,0.2-4c0.7,0.7,1.4,1.4,2.1,2.1c0.1,1.4-0.3,2.8-1.1,4
					C1051.2,705.3,1051.5,704.1,1051.8,703z"/>
				<path class="st19" d="M1051.8,703c0.3,0.8,0.3,1.8,1.3,2.1c-0.4,1-0.7,2-1.1,3C1050.4,706.4,1050.8,704.7,1051.8,703z"/>
				<path class="st20" d="M877,965c1.5-6.4,1.6-13,2-19.5c0.1-2.6-0.2-5.3,2.1-7.4c-2.4,9.5-0.5,19.1-1.7,28.7
					c-1,7.7-2.1,15.5-2.2,23.2c-0.1,12.3-0.9,24.6-1.5,36.9c-0.5,12.4,0,24.9-1.8,37.2c-0.2,1.3,0.3,3.4-2.2,1.7
					c0.1-1.9,0.1-3.8,0.2-5.7c1.4-5.7-0.3-11.6,0.9-17.3c0-0.6,0-1.1,0-1.7c0.7-8.7,1.3-17.4,1.5-26.2c0.2-10.1,1.4-20.1,1.4-30.2
					c0-0.6,0-1.1,0-1.7c1.5-4.7-0.2-9.7,1-14.4C876.9,967.4,877,966.2,877,965z"/>
				<path class="st21" d="M875.9,984.7c0.6,18.1-1.8,36.1-2,54.2c0,0.7-0.7,1.4-1,2.2C873.2,1022.2,874.2,1003.4,875.9,984.7z"/>
				<path class="st21" d="M872.9,1042.7c-0.4,5.7,1.3,11.6-0.9,17.3C872,1054.2,871.6,1048.4,872.9,1042.7z"/>
				<path class="st14" d="M876.9,968.6c-0.3,4.8,1.3,9.7-1,14.4C875.9,978.2,875.6,973.4,876.9,968.6z"/>
				<path class="st22" d="M986.6,639.8c1.5,0.8,1.2,1.8,0.3,2.7c-8.8,8.9-19.1,15.5-30.6,20.1c-1.3,0.5-2.9,0.2-4.4,0.3
					c-0.3-0.3-0.3-0.6-0.2-1c0.4-0.4,0.9-0.6,1.4-0.9L953,661c5.5-3.3,11.6-5.4,17.1-8.8c5.4-1.1,8.8-5.2,12.6-8.6
					C984,642.3,985.3,641,986.6,639.8z"/>
				<path class="st23" d="M970,652.1c-4.7,4.8-10.7,7.2-17.1,8.8c0.1-1,0.4-2.1,1.4-2.5c4.9-2,9.8-3.8,14.1-7.1
					C969,651,969.7,651.5,970,652.1z"/>
				<path class="st24" d="M1040.8,684c-3.7-0.4-7.4,0.5-11.1,0.9c0.8-0.5,1.5-1.1,2.3-1.6c2.9-1.3,5.9-1.1,8.9-0.1
					C1041,683.5,1041,683.7,1040.8,684z"/>
				<path class="st25" d="M1041,683.2c-3-0.4-5.9-0.5-8.9,0.1C1035,681.1,1038,681.3,1041,683.2z"/>
				<path class="st26" d="M953,661c-0.3,0.3-0.7,0.7-1,1c-2.1,1-3.8,1.2-3.2-2.1c0.3-0.7,0.7-1.4,1-2.1
					C949.8,660,950.6,661.3,953,661z"/>
				<path class="st27" d="M996.2,651c-1.9-1.4-0.9-3.3-1.1-5.1C996,647.4,996.2,649.2,996.2,651z"/>
				<path class="st28" d="M1000.5,662.4c-0.6-1.5-0.8-2.5,0-3.6C1001.2,659.9,1001.1,660.9,1000.5,662.4z"/>
				<path class="st14" d="M1107,974.1c-0.3,0.3-0.5,0.6-0.8,0.9c0,0-0.4-0.2-0.4-0.2c-2.7,0.8-5.2,1.9-7.9,2.5
					c-0.5,0.1-1,0.3-1.5,0.4c-2.9,0.5-5.9-0.3-8.8,0.6c-2.8,0-5.5,0.1-8.3,0c-3.5-0.9-7.1-0.2-10.7-0.5c-0.5-0.1-1-0.2-1.5-0.4
					c-4-1.1-3.3,2.1-3,3.8c1.2,6.5,1.5,13.1,2.4,19.6c0.3,0.8,0.4,1.6,0.5,2.4c0.2,3.9-0.4,7.9,0.4,11.8c0.1,0.9,0.1,1.8,0.1,2.7
					c1,6,0.5,12,0.5,17.9c-0.2,13.8,0.7,27.6-0.5,41.4c0,0.9,0,1.9-0.2,2.8c-0.6,18.3-0.3,36.6-0.2,54.9c0.2,0.9,0.5,1.8,0,2.7
					c-0.7,13.2,1.2,26.3,1.4,39.6c-2.2-1.1-1.5-3-1.6-4.5c-0.2-4.3-0.9-8.7-0.7-12.8c0.5-7.6-1.8-14.5-3.9-21.3
					c-1.3-4.2,1.8-6.9,1.6-10.5c-0.3-6.8,0.2-13.7-0.2-20.5c-0.5-8.8,1.1-17.7-1.4-26.6c-1-3.6-1.3-9.6,2.7-13.4
					c1-0.9,0.8-2.1,0.8-3.3c0-3,0-6,0-9c-0.1-13,1.1-26.2-3.4-38.8c-1.1-3.2,1.7-4.8,1.5-7.5c-0.6-6.9-0.6-13.9-1.6-20.8
					c-0.6-4.1,0.1-8.2-1.1-12.4c-0.6-2.1,1.7-3.2,3.7-2.2c4.4,2.1,8.4,1.4,12.8-0.2c2.9-1.1,7.1-1.4,9.8-0.1
					c5.4,2.7,10.3,1.1,15.4,0.1C1104.5,973.2,1105.9,972.6,1107,974.1z"/>
				<path class="st15" d="M1067.1,1137.7c0-0.6,0-1.1-0.1-1.7c-0.7-0.8-0.6-1.9-0.6-2.9c0-16.8,0-33.6,0-50.4c0-1-0.2-2,0.6-2.8
					c0-0.5,0-1.1,0-1.6c0.1-0.4,0.3-0.6,0.7-0.6c0,20.2,0,40.4,0,60.7C1067.6,1138.1,1067.4,1137.9,1067.1,1137.7z"/>
				<path class="st29" d="M977.8,820.7c-4.2,0-8.5,0-12.7,0c0-0.2,0-0.3,0-0.5c4.2,0,8.5,0,12.7,0
					C977.8,820.4,977.8,820.6,977.8,820.7z"/>
				<path class="st15" d="M1067.9,1140c2.3,5,0.6,10.3,1,15.4C1067.6,1150.3,1067.9,1145.1,1067.9,1140z"/>
				<path class="st15" d="M1068.9,1158c2.1,4.3,0.6,8.9,1,13.3C1068.6,1166.9,1069,1162.4,1068.9,1158z"/>
				<path class="st30" d="M964.9,818.1c4.1,0,8.2,0,12.3,0C973.1,819.4,969,819.6,964.9,818.1z"/>
				<path class="st31" d="M1017,783c0,3.2,0,6.5,0,9.7C1016.5,789.5,1015,786.2,1017,783L1017,783z"/>
				<path class="st32" d="M948.8,659.9c0,2.2,1.6,2.2,3.2,2.1c0,0.3-0.1,0.6-0.1,0.9c-1,0.4-1.9,1.5-3,0.3
					C947.9,662.2,947.7,661.1,948.8,659.9z"/>
				<path class="st33" d="M1026.8,730.2c0.8,0,2.1,0.1,1.6,1c-0.9,1.6-2.3,1-3.5,0C1025.2,730.2,1026.2,730.5,1026.8,730.2z"/>
				<path class="st34" d="M1026.8,730.2c-0.3,0.9-1.2,0.8-1.9,1c-0.6-0.4-1.2-0.8-1.9-1.2c-0.3-1,0.1-1.3,1-1
					C1025,729.3,1025.9,729.7,1026.8,730.2z"/>
				<path class="st35" d="M1024.1,728.9c-0.3,0.3-0.7,0.7-1,1c-1-0.5-2.1-1.4-1-2.4C1022.6,727,1023.6,728.1,1024.1,728.9z"/>
				<path class="st14" d="M1067.8,1077.7c-0.2,0.2-0.5,0.4-0.7,0.6c0-20.5,0-41.1,0-61.6c0.4,0,0.7,0.2,0.7,0.6c0,0.5,0,1.1,0,1.6
					c0.4,0.5,0.6,1.2,0.6,1.9c0,17.8,0,35.6,0,53.4c0,0.7-0.1,1.3-0.6,1.8C1067.9,1076.6,1067.9,1077.1,1067.8,1077.7z"/>
				<path class="st15" d="M1067.9,1076c0-19,0-38,0-57.1c1.5,1.1,1.1,2.7,1.1,4.1c0,16.3,0,32.6,0,48.8
					C1069,1073.4,1069.4,1075,1067.9,1076z"/>
				<path class="st15" d="M1067.9,1017.4c-0.3-0.2-0.5-0.4-0.7-0.6c0-0.6,0-1.1-0.1-1.7c-1.5-4,0.3-8.3-1-12.3c0-0.6,0-1.1-0.1-1.7
					c-0.2-5.7-2.5-11.2-1-17C1068.1,994.9,1068.2,1006.1,1067.9,1017.4z"/>
				<path class="st36" d="M1067,977.1c0.2,0.2,0.4,0.2,0.7,0c3.7,1.2,7.6-0.5,11.3,0.9c3,0,6,0,9,0c2.7-1,5.6-0.3,8.4-0.5
					c0.2,0.2,0.5,0.3,0.7,0.5c-3.9,1.9-8.1,0.7-12.1,0.9c-5.4,0.2-11,0.6-16.3-0.2c-3.8-0.6-3.7,1.1-3.8,3.5
					c-2.4-1.3-1.5-3.4-0.8-5.1C1064.5,976.1,1066,976.3,1067,977.1z"/>
				<path class="st14" d="M1067,977.1c-4.7,0.1-2.9,2.9-2.2,5.2c0,0.6,0.1,1.1,0.1,1.7c0.3,5.7,0.7,11.3,1,17
					c-2.1-7.4-2.4-15-2.9-22.6C1062.9,975.4,1065,975.5,1067,977.1z"/>
				<path class="st37" d="M1098,977c2.3-1.9,5-2,7.8-2.1c-1.3,0.6-2.5,1.3-3.8,1.9C1100.7,977.9,1099.4,977.7,1098,977z"/>
				<path class="st36" d="M1098,977c1.3,0,2.7-0.1,4-0.1c-1.3,1.8-3.3,0.9-5,1.2c0,0-0.2-0.3-0.2-0.3c-0.1-0.4,0-0.6,0.4-0.7
					C1097.5,977.2,1097.7,977.2,1098,977z"/>
				<path class="st38" d="M957.8,791.1c0,2.5,0,5.1,0,7.6c-0.1,0-0.3,0-0.4,0c0-2.5,0-5,0-7.5C957.5,791.2,957.7,791.2,957.8,791.1z
					"/>
				<path class="st14" d="M1067.1,1080c0,18.7,0,37.4,0,56.1c-1.5-1.1-1.1-2.7-1.1-4.1c0-15.9,0-31.9,0-47.8
					C1066,1082.6,1065.6,1081,1067.1,1080z"/>
				<path class="st14" d="M1066.1,1002.7c1.3,4,1,8.2,1,12.3C1064.8,1011.1,1066.5,1006.8,1066.1,1002.7z"/>
				<path class="st14" d="M1079,978c-3.8,0.1-7.6,0.4-11.3-0.9C1071.5,977.4,1075.4,975.9,1079,978z"/>
				<path class="st37" d="M1097.2,977.1c-0.1,0.2-0.3,0.5-0.4,0.7c-2.9,0.1-5.9,0.2-8.8,0.2C1090.9,976,1094.1,977.4,1097.2,977.1z"
					/>
			</g>
			<path id="Rectangle_7_copy_3-10" class="st6" d="M734.5,984.5l-47,27.2V357.4l47-27.2V984.5z"/>
		</g>
	</g>
	<g>
		<path class="st39" d="M973.2,1390.1c-1.1,22.8-2.1,45.5-3.2,68.3c-0.2,4.3-2.4,7.6-5.1,10.6c-2.5,2.9-5.4,5.4-8,8.2
			c-3.1,5.1-8.4,7.4-13.3,10.1c-16.9,9.1-35.3,13.5-54.2,16.1c-13,1.7-26.1,2.5-39.3,2.1c-1.7,0.1-3.4,0.1-5.1,0
			c-24.6-1.7-49.2-3-73-10.2c-8.8-2.6-17.4-5.8-25.1-11c-0.7-0.4-1.4-1-2.1-1.4c-13.5-9-17.6-21.6-14.8-37.2
			c2.2-12.4,4.6-24.8,5.5-37.4c2.7-28.3-0.1-56.4-3.5-84.4c-2.8-23.1-4.6-46.3-5.8-69.5c-0.4-7.1-1.1-14.2-0.9-21.4
			c0.1-3.6-1.6-5.5-4.9-6.4c-2.7-0.7-5.4-1.7-8-2.8c-5.9-1.8-9.3-5.7-9.7-12.1c-0.1-0.9-0.2-2-0.9-2.7c0-2,0-4,0-6
			c0.8-3.7,0.8-7.3,0-11c0-2.7,0-5.3,0-8c1.7-2.4,0.7-5.2,1.1-7.8c2.6-18.2,7.3-35.8,14.6-52.7c5.4-12.3,14-21.4,26.4-26.5
			c9.9-4.1,18.3-10.8,28-15.2c13.2-5.8,26.8-9.9,41.2-11.2c3,0.2,3.9,2.2,4,4.8c0.2,2.3,1.1,4.1,3.4,5.1c14.6,5.8,29.3,8.5,44.7,3.2
			c4.3-1.5,7.7-3.7,9.1-8.4c0.5-1.7,1.4-3.1,3.3-3.4c9.8,0.5,18.9,3.9,27.8,7.5c19.4,7.9,34.8,20.8,48.2,36.9
			c13.3,16.1,17.6,35.2,21.2,54.7c4.1,22.1,6.2,44.5,5.3,67c-0.2,6.6-0.6,13.3-3.7,19.4c-8.6,14.7-22,20.6-38.4,20.9
			c-3.3,0.1-6.7,0.1-10,0c-3.8-0.1-4.9,1.7-4.4,5.3c1.8,13.4,3.4,26.8,5,40.1c1.9,14.7,3.6,29.4,5.5,44.1c0.8,6.5,1.6,7.7,8,8.8
			c8.1,1.4,16.2,1.2,24.4,0.1c6.7-0.8,6.8-0.8,6.7,5.7C973.4,1385.1,973.8,1387.6,973.2,1390.1z"/>
		<path class="st14" d="M949.2,1784.1c17.8,3.5,35.5,7.4,52.5,13.9c20.1,7.6,39,17.1,54.3,32.6c10.2,10.4,17.3,22.5,16.9,37.6
			c-0.5,14.8-7.8,26.6-18.1,36.6c-15.8,15.4-35.3,24.7-55.8,32.1c-25.2,9-51.4,13.4-78,16.2c-1.9,1.1-4.2-0.3-6,0.9
			c-3.3,0-6.7,0-10,0c-2-0.8-4-0.8-6,0c-7.3,0-14.7,0-22,0c-2.3-0.8-4.7-0.8-7,0c-4.3,0-8.7,0-13,0c-12.5-1.5-25.1-2.2-37.4-4.7
			c-27.7-5.6-54.6-13.4-79-28.2c-7.4-4.5-14.4-9.6-20.6-15.7c-9-8.8-15.8-18.8-18-31.4c0-1,0-2,0-3c0.8-3,0.8-6,0-9c0-1,0-2,0-3
			c5.2-24.4,23-38.1,42.9-49.7c6.9-4,14.1-7.4,21.6-10.3c2-0.8,4.1-2.7,6.3-0.2c2.5,10.1,3.4,20.4,4.3,30.7
			c-1.3,3.8-3.4,7.2-4.2,11.2c-1.7,8.2,2,14.6,10,16.9c7,2,14.3,1.7,21.3,0.8c23.1-3.2,44.4-11.2,63.1-25.7c3.3-2.6,6-5.7,8.6-9
			c1.1-1.4,2-3.8,4.6-2.3c2.6,9.1,3.2,18.6,4.7,27.9c1.7,10.5,4.5,20.7,6,31.2c-0.5,3.3-1.1,6.5-0.9,9.9c0.2,6.2,2.7,9.8,8.6,12
			c8.6,3.2,17.4,2.4,26.1,0.9c19.6-3.4,37.8-10.2,54.4-21.4c5.2-3.5,9.5-7.8,13.5-12.5c8.1-9.5,7.3-26.6-10.6-30
			c-10.6-2-20.8-0.5-31,2.8c-2,0.6-4.2,2.8-6.2-0.1c-0.7-7.1,0.3-14.2,0.7-21.3c0.6-9.9,0.9-19.8,1.7-29.7
			C947.7,1788.6,947,1786,949.2,1784.1z"/>
		<path class="st10" d="M849,866c4.5,2.2,9.5,1.9,14.3,2.9c16.1,3.5,31.5,8.5,44.9,18.4c15.8,11.8,21.2,27,15.7,44.1
			c-2.1,6.5-7.4,11-11,16.6c-1.5,4.7-4.9,8.1-8.6,10.8c-9,6.5-10,15.6-8.7,25.4c0.5,4,0.5,8,1.2,11.9c0.5,2.9-0.8,5.2-3.2,6.8
			c-3.9,2.7-6.5,2.1-7.8-2.6c-1.6-5.8-4.5-10.8-8.5-15.1c-3.9-4.3-8.4-8.2-14.7-6.2c-6.7,2.1-9.7,7.6-10.1,14.1
			c-0.7,10.1,1.7,19.6,8.5,27.4c2.5,2.9,3.8,5.8,2.9,9.5c-0.9,3.1-0.6,6.2-0.1,9.2c-0.4,5.6-4.7,7.6-9,9.3
			c-7.3,2.9-15.1,3.5-22.7,4.6c-6.5,0.6-12.6-0.6-18.3-3.9c-33.5-19.3-54.2-47.6-59.9-86.1c-2.9-19.2-1.2-38,6.9-55.7
			c10.8-23.6,29.8-36.4,55-40.5c2.1-0.3,4.3-0.2,6.3-1c2.3,0,4.7,0,7,0c4,0.9,8,0.9,12,0c1.3,0,2.7,0,4,0c0.7,0.6,1.3,0.6,2,0
			C847.7,866,848.3,866,849,866z"/>
		<path class="st15" d="M1166,1258.9c4.1,1.1,4.9,4.3,5.1,7.9c1.1,3-0.5,6.2,0.9,9.1c0,0.7,0,1.3,0,2c-2.3,5.7-4.7,11.3-7,17
			c-1.9,7.8-7.6,13.1-12.7,18.7c-3.2,3.5-7.2,6.4-11.5,8.7c-6.7,3.6-13.6,5.3-21.1,2.7c-4.9-1.7-9.8,0.3-14.8-0.2
			c-11.8,2.5-22.5,7.9-33.3,12.9c-26.7,12.3-52.8,25.7-80.9,34.8c-4.1,1.3-8.2,2.6-12.5,3.4c-3.2,0.6-4.4,2-4.3,5.3
			c0.1,2.9,0.6,6-0.7,8.8c-0.1-2.2-0.2-4.3-0.2-6.5c0.1-6.6,0.1-6.3-6.5-5.4c-9.6,1.3-19.1,1.7-28.6-1c-3.1-0.9-4.4-2.7-4.8-5.5
			c-2.1-17.1-4.1-34.2-6.2-51.2c-1.5-12-2.9-24-4.7-35.9c-1.1-7.2-1-7.5,6.4-7.5c6.5,0,12.9,0.3,19.4-1c9.4-1.9,17.6-5.9,23.4-13.8
			c1.4-1.8,2.9-3.5,4.4-5.3c1,1.8,0.9,3.8,0.9,5.8c0.7,20.1,1.4,40.2,2.1,60.4c0.1,2.2-0.2,4.6,3.4,3.7
			c27.9-7.6,55.8-15.1,83.7-22.6c7.1-3.9,15.2-4.8,22.9-6.1c7.8-1.3,12.9-4.5,16.2-11.9c5-10.9,13.4-19.4,23-26.4
			c4.8-3.5,8.5-3,10.9,0.6c2.5,3.8,1,10.2-3,12.8c-2.1,1.4-4.6,2-6.7,3.2c-2.3,1.3-4.6,2.8-6,5.1c-1.8,2.9-3.2,6-0.7,9.2
			c2.1,2.7,7.2,3.4,10.6,1.6c3.9-2.1,6.7-5.5,9.5-8.8c4.6-5.5,8.4-11.6,13-17.1C1158.4,1263.3,1160.6,1258.8,1166,1258.9z"/>
		<path class="st40" d="M702,1874c0.5,0.4,1.2,0.8,1.3,1.3c4.9,19.2,18.2,31.7,33.9,42.1c23.6,15.6,50,23.8,77.3,29.6
			c13,2.8,26.2,4.4,39.5,5.8c1.1,0.1,2.4-0.4,2.9,1.2c-50.4,0-100.8,0-151.2,0.1c-2.9,0-3.9-0.4-3.9-3.7
			C702.1,1924.9,702,1899.4,702,1874z"/>
		<path class="st41" d="M841,866c-4,1.6-8,1.6-12,0C833,866,837,866,841,866z"/>
		<path class="st42" d="M702,1192c1.7,3.7,1.6,7.3,0,11C702,1199.3,702,1195.7,702,1192z"/>
		<path class="st43" d="M1172,1276c-2-2.9-0.6-6.1-0.9-9.1c0.3,0,0.6,0.1,0.9,0.1C1172,1270,1172,1273,1172,1276z"/>
		<path class="st44" d="M870,1954c2.3-1.6,4.7-1.5,7,0C874.7,1954,872.3,1954,870,1954z"/>
		<path class="st45" d="M899,1954c2-1.5,4-1.5,6,0C903,1954,901,1954,899,1954z"/>
		<path class="st46" d="M915,1954c1.8-1.9,4-0.8,6-0.9c0,0.3,0,0.6,0,0.9C919,1954,917,1954,915,1954z"/>
		<path class="st47" d="M847,866c-0.7,1.4-1.3,1.2-2,0C845.7,866,846.3,866,847,866z"/>
		<path class="st10" d="M890.3,1880.7c-5.1-19.6-7.8-39.7-10.7-59.7c-1.5-1.3-1.8-3.1-2-4.9c-0.6-6-1.7-12-2.2-18
			c-0.7-6.4-1.9-12.7-2.2-19.1c-2.1-14.2-3.3-28.4-4.8-42.6c-2.4-22.7-4.5-45.4-6.6-68c-2-21-3.8-42.1-5.5-63.1
			c-1.5-18.1-3.1-36.1-4.6-54.2c-1.1-13.9-2.1-27.9-3.3-41.8c-0.2-1.8-0.1-3.7,1.2-5.2c17.8-0.1,35.6-1,53.2-4.5
			c19.5-3.9,37.8-10.6,53.9-22.5c-0.4,29.1-0.6,58.2-1.3,87.4c-1.4,58.4-3,116.8-4.6,175.2c-0.4,14.8-1.1,29.6-1.7,44.4
			c-1,19.6-2,39.2-3.1,58.9c2.5,3.7,0.3,7.5,0.2,11.2c-0.2,8.8-1.6,17.5-2.8,26.3c-0.8,5.3-3.7,8.7-8.6,10.7
			c-14.4,5.9-28,4.2-40.9-4.2C891.8,1885.4,890.7,1883.3,890.3,1880.7z"/>
		<path class="st48" d="M1104.9,1324.9c4.5-1.9,9.3-2.9,14-1.3c10.8,3.7,19.4-0.4,27.7-6.7c7.8-5.9,13.1-13.9,18.4-22
			c1,1.6,1,3.5,1,5.3c0,18.3,0,36.6,0,55c0,1.4,0.8,3.3-0.8,4.1c-1.5,0.7-2.7-0.8-3.9-1.6c-17-9.7-34-19.5-51-29.2
			C1108.4,1327.5,1106.7,1326.2,1104.9,1324.9z"/>
		<path class="st10" d="M771.9,1798.1c-2.1-21.8-4.4-43.7-6.3-65.5c-3-34.6-5.9-69.3-8.6-103.9c-2.2-28.5-4.2-57.1-6.3-85.6
			c-0.1-1.3-0.5-2.6-0.8-3.9c-2.4-4.5-1.7-9.5-2.1-14.2c-1-13.5-2.5-27.1-1.4-40.7c0-0.5,0.3-0.9,0.6-1.3
			c18.9,11.4,40.1,15.3,61.6,17.9c12,1.5,24.1,2.1,36.2,3.1c2.2,2.4,1.9,5.3,1.4,8.1c-0.8,5.3-0.6,10.6-0.8,16
			c-0.8,25.4-1.4,50.9-2.8,76.3c-0.5,9.1-0.6,18.3-0.9,27.4c-0.6,20-1.6,39.9-2.5,59.9c-1,22.1-1.9,44.2-3.5,66.3
			c-0.6,8.1-1.3,16.3-1.4,24.4c-0.2,4.4-1.2,8.8-1,13.3c-1.3,13.2-2.5,26.5-4.1,39.7c-1,8.1-5,13-12.5,15.7c-7.5,2.7-15,4-23,2.1
			c-11.4-2.7-18.7-12.1-17.7-23C774.7,1819.4,773.3,1808.8,771.9,1798.1z"/>
		<path class="st15" d="M736.9,1409.1c-4.5-16.5-7-33.4-9.9-50.3c-4-23.2-7.2-46.6-9.7-70.1c-1.7-16.2-2.9-32.4-4.2-48.7
			c-0.5-6-0.8-11.9-1.3-17.9c4.8,1.7,11.1,2,14.1,5.4c3.1,3.5,0.8,9.9,1.1,15c1.5,20.7,2.8,41.3,4.7,62c1.6,17.2,3.7,34.2,5.5,51.4
			c1.5,14.6,0.7,29.2,0.7,43.8C737.9,1402.8,737.2,1406,736.9,1409.1z"/>
		<path class="st49" d="M813.1,1071.7c1.7-0.7,3-1.4,2.7-3.9c-0.8-6.5-1.3-13.1-1.9-19.6c5.7,2.9,11.7,4.3,18.1,3.8
			c8.4,1.6,16.3,4.9,24.8,6.2c5.1,0.8,10.1,1.5,15.3,1.5c1.9,0,4.5-0.6,5.1,2.5c0.6,3.5-1.6,7.3,0.7,10.7c-0.8,0.3-1.6,0.6-1.7,1.6
			c-0.9,7.8-6.9,9.9-13.1,11.6c-15.3,4.4-29.8,1.2-44.1-4.6c-2.4-1-3.1-2.7-3-5.1C816.1,1074.2,816.3,1071.8,813.1,1071.7z"/>
		<path class="st50" d="M747.1,1483c-0.3,14.3,1.7,28.5,2.4,42.8c0.2,4.5,0.9,8.9,0.5,13.4c-5.9-6.3-6.2-14.3-6.8-22.2
			c-0.6-8.4,1-16.8,2.2-25.1c0.5-3.3,0.7-6.6,0.5-9.9C746.3,1482.4,746.7,1482.7,747.1,1483z"/>
		<path class="st48" d="M1166,1258.9c-6,2.9-9.4,8.3-13.1,13.4c-4.8,6.5-9.4,13.3-15.5,18.8c-3.6,3.2-7.4,4.9-12.3,2.8
			c-5-2.1-6.5-5.4-4.4-10.4c2.2-5.1,6.3-7.9,11.4-9.7c4.2-1.5,7.4-3.8,7.1-8.9c-0.2-5.8-4.1-8.3-8.9-5.1c-10,6.7-18.5,15.1-23.5,26
			c-3.9,8.5-9.3,12.5-18.4,13.5c-7.5,0.8-14.9,3.1-22.4,4.8c-3-4.9-8.7-5.6-13-8.4c-9.2-5.9-18.7-11.3-28.2-16.7
			c-2-1.1-2.9-2.3-2.9-4.7c0.1-59.1,0.1-118.2,0.1-177.4c0-0.3,0.2-0.6,0.3-1.2c5.8,1.3,10.4,5,15.4,7.8
			c23.2,13.2,46.2,26.6,69.3,40c18.6,10.8,37.2,21.7,55.9,32.4c2.6,1.5,3.1,3.5,3.1,6.2c-0.2,25.3-0.3,50.6-0.4,75.9
			C1165.7,1258.3,1165.9,1258.6,1166,1258.9z"/>
		<path class="st9" d="M877.2,1062.1c-2.8-2.1-6.1-0.8-9.1-1.1c-12.5-1.2-24.8-3.2-36.1-9c7.3-1.4,14.8-1.6,21.8-4.4
			c4.1-1.6,8.5-3.3,9.2-8.6c0.2-3-0.5-6,0-9c0.5-3.2-0.7-5.6-2.7-8.1c-6.9-8.3-9.8-18.1-9.1-28.8c0.3-4.2,1.6-8.2,4.6-11.4
			c5-5.5,11.4-6.3,17.5-2c6.8,4.8,11,11.4,13.7,19.2c0.6,1.7-0.4,5.3,2.7,4.7c3.2-0.6,6.4-2.5,6-6.8c-0.3-3.5-0.8-7-1-10.4
			c-0.3-4-0.6-8-0.4-12c0.2-5.9,2.4-10.8,7.2-14.7c4.2-3.4,7.7-7.7,11.6-11.7c2,12.2,4.4,24.4,5.6,36.8c1.7,17.7,2.7,35.4-2.5,52.8
			c-4.9,16.1-13.6,22.6-30.5,23.4C882.7,1061.2,879.7,1060.4,877.2,1062.1z"/>
		<path class="st39" d="M890.3,1880.7c4.9,9.2,24.3,14.8,37,11.5c12.3-3.2,14.4-5.1,15.7-17.5c1.1-10.6,2.2-21.2,3.2-31.8
			c11.8-5.7,24.1-7.4,36.9-4.8c15.3,3.1,21,17.1,12.3,30.1c-7,10.4-17.3,16.9-28.2,22.5c-15.8,8.1-32.6,13.4-50.4,15
			c-4,0.4-8,0.3-12-0.4C890.1,1903,885.3,1895,890.3,1880.7z"/>
		<path class="st39" d="M776.1,1830.1c0.2,0.3,0.5,0.6,0.5,0.8c0.8,19.5,20.7,24.3,34.3,20.6c1.3-0.3,2.5-0.8,3.8-1.2
			c8.3-2.3,12.7-7.3,13.4-16.2c0.9-12.8,2.6-25.4,4-38.2c2.6-3.8,6.9-3.6,10.7-4.4c8.2-1.6,16.5-1.7,24.6,0.2c3.7,0.9,7.4,2,9.3,5.9
			c1,7.8,1.9,15.5,2.9,23.3c-9,13.5-22.3,21.2-36.6,27.6c-14.4,6.4-29.3,10.9-45.2,11.6c-2.5,0.1-5,0.1-7.5-0.1
			c-7-0.5-14.1-1.5-17.5-8.5C769.2,1844,771.4,1836.7,776.1,1830.1z"/>
		<path class="st51" d="M863,1030c0.7,3,1.4,6,0,9C861.4,1036,861.4,1033,863,1030z"/>
		<path class="st14" d="M876.7,1797.7c-12.9-8.7-26.6-6.5-40.4-3.2c-1.4,0.3-2.8,0.9-4.2,1.4c-0.3-4.4,0.4-8.7,1-13
			c13.8-2.2,27.7-2.7,41.5-3.9C875.3,1785.3,876,1791.5,876.7,1797.7z"/>
	</g>
	<g>
		<path class="st14" d="M361,1979c0.8-0.1,1.1-0.6,1.3-1.3c5.1-17.8,17.2-30.1,32-40.1c21.2-14.4,44.8-23,69.7-28.8
			c2.1,2.1,2,5,2.1,7.5c0.4,12.3,2.3,24.4,2.5,36.7c0,2,0.1,4-0.4,5.9c-4.5,5.7-5.7,12-4.3,19.1c2.3,11.5,9.6,17,21.4,15.5
			c8-1,15.4-4,22.7-7.4c8.9-4.1,17.9-7.9,26.7-12.3c1.4-0.7,2.9-1.7,4.7-0.8c0.7,0.9,0.8,2,0.6,3.1c-0.9,4.8-0.6,9.6-0.2,14.5
			c0,0.5,0,1.1-0.2,1.6c-6.5,8.1-4.1,16.7-0.7,24.9c2.1,5.2,7.1,7.1,12.6,7.6c8.2,0.7,15.9-1.3,23.3-4.6c12.5-5.5,25-10.9,37-17.4
			c10.8-5.8,13.8-14,9.2-25.4c-2.3-5.9-6.7-8.5-13-7.6c-10.3,1.4-19.8,5.5-29.3,9.5c-2,0.8-4.1,2.8-6.2,0.1c-1.5-4.7,0-9.3,0.5-13.8
			c2.2-19.9,4.2-39.9,6.7-59.8c0.3-2.1,0-4.4,2.5-5.6c9.9,1.3,19.8,2.2,29.6,3.8c30.9,5.1,60.7,13.6,87.8,30
			c11.3,6.9,21.6,15,29.4,25.9c13.7,18.9,13.7,38.9,0.2,57.9c-9.6,13.4-22.8,22.7-37.2,30.4c-28.3,15-58.9,22.4-90.4,26.9
			c-6.1,0.9-12.5,0.2-18.3,2.9c-1.7,0-3.3,0-5,0c-1-0.7-2-0.7-3,0c-1.7,0-3.3,0-5,0c-2-0.8-4-0.8-6,0c-8.3,0-16.7,0-25,0
			c-2.3-0.8-4.7-0.8-7,0c-1.7,0-3.3,0-5,0c-1-0.7-2-0.7-3,0c-2,0-4,0-6,0c-10.5-1.5-21.1-1.8-31.6-3.7c-27.5-4.9-54.3-12.3-79-25.7
			c-16.5-9-31.6-19.8-41.2-36.7c-2.7-4.7-4.1-9.7-5.2-14.9c0-1,0-2,0-3c0.8-3.7,0.8-7.3,0-11C361,1981.7,361,1980.3,361,1979z"/>
		<path class="st14" d="M553,988c1.7,2,4.2,1.5,6.4,2c14.4,3.3,26.3,9.9,35,22.7c5.6,8.2,12.5,15.6,16.1,25
			c7.1,18.5,8.8,37.1-0.7,55.4c-2.8,8-9.7,9.8-16.8,11.2c-2.4,0.5-5,0.1-7.5,0.1c-6.8,0.2-9.1,2.1-10.2,9c-1.6,4.4-0.5,8.8,0.1,13.2
			c-0.4,10.5,1.8,20,9.3,28c2.7,2.9,5.8,6,6.3,10.5c9.5,15.7,15.7,32.5,17.6,50.8c0.4,3.7,1.4,7.6-0.4,11.3
			c-2.1,1.5-3.8,0.3-5.5-0.7c-8.8-5-17-3.7-24.5,2.6c-5.4,4.5-10.7,9-15.6,14c-10.8,11-23.6,15.1-38.7,10.4
			c-2.4-0.7-4.8-1.4-7.2-2.1c-9.3-2.6-18.3-4-27.9-0.6c-6.2,2.2-13,2.8-19.6,3.4c-14.6,1.5-24-8.5-21.8-23c0.5-3.3,0.5-6.6,0.5-10
			c0-2.2,0.1-4.3,1.4-6.2c1.3-18.8,0.4-37.5-3.4-56.1c-5.9-29.1-11.3-58.2-10.4-88.1c0.4-13.5,2.1-26.9,7.6-39.5
			c5.1-11.8,13.3-20.5,25-26c15.8-7.4,32.1-12.8,49.3-15.6c1.6-0.3,3.7,0.2,4.8-1.8c3.3,0,6.7,0,10,0c4.3,0.8,8.7,0.8,13,0
			C547.7,988,550.3,988,553,988z"/>
		<path class="st15" d="M800,1381c3.6-4.7,7.2-9.5,11-14.2c6.3-7.7,8.9-7.5,13.1,1.2c0,4.7,0,9.3,0,14c-2,1.2-1.9,3.4-2.6,5.2
			c-5,13.5-13.3,24.7-24.5,33.7c-4.6,6.3-11.6,8.4-18.5,7.5c-7.9-1-15.7-1.4-23.6-0.5c-9.4,2-17.9,6.1-26.5,10
			c-23.6,10.7-46.7,22.6-71,31.9c-12.1,4.7-24.5,8.2-37.2,11.2c-8.1,4.1-16.6,2.2-25,2c-1.5,0-3-0.5-4.4-0.9
			c-6.3-1.6-7.7-2.9-8.5-9.4c-3.7-28.2-6.9-56.5-10.5-84.8c-0.9-6.8,0.6-8,7.4-7.2c12.5,1.5,24.5-0.6,36.3-4.8
			c4.8-1.7,8.4-4.6,9.8-9.8c0.3-1.2,0.7-2.7,2.3-2.9c0.4,9.3,0.9,18.6,1.3,27.8c0.4,11.1,1,22.2,1,33.4c0,4.6,0.9,5.6,5.5,4.3
			c23.8-6.6,47.7-12.9,71.6-19.3c2.7-0.7,5.4-1.6,8-2.4c8.7-4.2,18.1-5.3,27.4-7.2c6.6-1.3,11.2-4,14-10.4
			c5.1-11.3,13.5-20.1,23.3-27.4c5.6-4.2,8.8-3.8,11.5,0.4c2.8,4.4,1.5,9.6-3.3,13c-1.5,1.1-3.2,1.7-4.9,2.5
			c-2.4,1.1-4.8,2.4-6.6,4.4c-3.4,3.7-4.1,8.1-1.6,10.8c2.9,3.1,8.7,3.3,12.3,0.2c3.1-2.7,6.1-5.7,8.8-8.8
			C797.1,1383.2,798.4,1381.9,800,1381z"/>
		<path class="st40" d="M361,1997c0.4,0.3,0.9,0.6,1,0.9c5.4,19.8,19.2,32.7,35.6,43.3c24,15.6,50.7,24,78.4,29.7
			c11.9,2.5,23.9,4.3,36,5.4c1.9,0.2,4.4-0.5,5.9,1.7c-51.1,0-102.1,0-153.2,0.1c-2.9,0-3.9-0.4-3.9-3.7
			C361.1,2048.6,361,2022.8,361,1997z"/>
		<path class="st52" d="M545,988c-4.3,1.6-8.7,1.6-13,0C536.3,988,540.7,988,545,988z"/>
		<path class="st53" d="M361,1983c1.6,3.7,1.6,7.3,0,11C361,1990.3,361,1986.7,361,1983z"/>
		<path class="st54" d="M532,2078c2.3-1.6,4.7-1.5,7,0C536.7,2078,534.3,2078,532,2078z"/>
		<path class="st55" d="M564,2078c2-1.5,4-1.6,6,0C568,2078,566,2078,564,2078z"/>
		<path class="st56" d="M524,2078c1-1.4,2-1.3,3,0C526,2078,525,2078,524,2078z"/>
		<path class="st57" d="M575,2078c1-1.3,2-1.5,3,0C577,2078,576,2078,575,2078z"/>
		<path class="st58" d="M627.6,1363.3c-2,13.7-13.2,15.3-23.6,17.5c-9.1,1.9-18.4,3.4-27.7,1.1c-3-0.7-3.8,0.2-3.5,3.2
			c1.5,12.2,3,24.4,4.5,36.6c1.9,15.2,3.8,30.3,5.6,45.5c0.4,3,0.8,5.9,1,8.9c0.2,2.6,2.1,3.2,4,3.8c8.7,2.8,17.7,2.5,26.7,1.7
			c1.8-0.2,3.6-0.4,5.4-0.5c6.2,27,10.7,54.4,14.8,81.8c3.8,25.3,7.3,50.6,9.6,76.1c1.8,19.2,4,38.3,2.6,57.7
			c-0.6,8.6-4.8,15-10.3,21c-10.1,11.1-23.2,17.6-36.7,23.5c-1.7,2-4,2.9-6.4,3.6c-17,5.2-34.3,8.4-52.2,8.8
			c-6.2,0.2-12.4,1.6-18.7,0.9c-14.4-1.2-29-1.2-43.2-4.1c-3.1-0.6-6.3-0.8-8.7-3.3c-16.3-4.6-31.8-10.8-44.9-21.9
			c-4.5-3.8-8.3-8.2-11.9-12.8c-4.9-6.2-2.8-13.4-3-20.3c-0.1-4.8,0.6-9.6,0.5-14.4c-0.5-32.6,4.5-64.6,10.6-96.5
			c8.3-43.4,16.9-86.7,25.3-130.1c0.3-1.6,0.3-3.3,0.4-5c-0.6-6.5,0.5-12.9,0.4-19.3c-0.1-19.9-2.3-39.7-3.7-59.6
			c-0.4-5.6-1.1-11.2-1.3-16.9c-0.2-6.8-0.4-13.6-6.5-18.3c-2.6-2.8-3.7-6-4-9.9c-1.2-18.4-1.4-36.8-0.8-55.3
			c0.3-10.1,1-20.2,3-30.2c1.7-9,6.2-16.4,13.8-21.7c0,5.6-0.2,11.3-0.6,16.9c-1,14.5,5.2,22,20.7,20.8c8.6-0.7,17.1-2,25.4-4.9
			c5.5-1.9,10.9-0.6,16.2,0.6c5,1.1,10,2.5,14.9,4c13.3,3.9,24.6,0.5,34.4-8.8c5.9-5.6,11.7-11.3,18.1-16.4
			c8.3-6.5,16.9-7.1,25.9-1.5c1.3,0.8,2.6,1.5,4.2,1.4c14.4,18.1,17.3,39.8,19.9,61.7c1.7,13.9,2.2,27.8,2.1,41.8
			C630.1,1341.5,629.5,1352.5,627.6,1363.3z"/>
		<path class="st15" d="M542.3,1752.2c19.8-1,39.2-4.5,58-11.1c-2.3,18.9-4.5,37.9-6.8,56.8c-2.2,18.4-4.4,36.9-6.5,55.3
			c-1.5,13-3.1,26-4.5,39c-0.3,2.6-0.3,5.3-0.5,7.9c-1.9,8.9-2.3,18.1-3.4,27.1c-2,16.3-3.7,32.7-5.4,49c-0.1,1.1,0,2.3-0.1,3.5
			c1.4,6.7-0.4,13.1-1.6,19.5c-0.1,0.6-0.6,1.2-1,1.7c-3.6,5.4-10.8,7.4-18.3,5.2c-9-2.7-13-7.1-13.1-14.5c0-0.3,0-0.5-0.1-0.8
			c-1.1-5,0-10,0-15c0-0.9-0.1-1.9-0.1-2.8c-2.4-2.9-2.1-6.5-2.4-10c-0.8-8.8-0.7-17.6-1.7-26.3c0-12.5-1.9-25-1.2-37.5
			c-0.3-11.3-1.3-22.6-1.1-33.9c0.2-14.4,1.9-28.5,6.1-42.3c2.2-7.3,3.9-14.8,5.1-22.4c1.3-8.8-1-17.2-1.6-25.8
			C541.5,1767.4,540.8,1759.8,542.3,1752.2z"/>
		<path class="st48" d="M754.9,1427.9c6-2.3,11.9-3.3,18.3-1.4c8.9,2.8,16.5-1,23.8-5.6c1.8,3.1,1,6.5,1,9.7c0.1,7.4,0,14.9,0,23
			c-9.4-5.4-18.5-10.4-27.4-15.6C765.3,1434.9,759.4,1432.5,754.9,1427.9z"/>
		<path class="st15" d="M471.1,1747.1c17,4.1,34.4,4.8,51.8,5.8c1.5,1.7,0.9,3.8,0.7,5.7c-3.2,27.1-6.4,54.2-9.6,81.3
			c-2.3,20.3-4.8,40.6-6.8,61c-2,13.8-2.9,27.8-4.7,41.6c-0.3,2.1-0.6,4.3-0.9,6.4c-0.1,5-0.9,9.9-1.4,14.8
			c-0.9,9.2-7.5,14.6-16.7,13.5c-5.5-0.6-10.7-2.7-14.3-7.2c-2.3-2.8-4.1-6.1-2.3-10c0.4-17.2-2.3-34.1-3-51.2
			c-0.8-23.6-2-47.2-2.1-70.8c-0.1-15.1,1.4-29.8,5.8-44.3C472.1,1778.5,475.2,1763,471.1,1747.1z"/>
		<path class="st59" d="M437,1332c6.9,1.4,7.5,6.9,7.8,12.4c1.5,28.7,5.4,57.2,5.3,86c0,5.3-0.2,10.6-2,15.7
			c-5.7-9.6-7.2-20.3-7.9-31C438.4,1387.4,436.8,1359.7,437,1332z"/>
		<path class="st48" d="M800,1381c-3.1,5.2-7.4,9.4-11.8,13.3c-4.3,3.8-10.8,3.6-14.5-0.2c-3-3-2.4-8,1.6-12.5
			c2.5-2.8,5.8-4.4,9.2-5.7c5.3-2.1,7.9-6,6.9-10.1c-1.2-5.3-4.6-7-9-4c-10.4,7-19,15.8-24.2,27.2c-3.5,7.5-8.4,11.1-16.4,12.3
			c-9,1.3-17.8,3.8-26.7,5.8c0.3-0.9,0.6-1.5-0.8-2.2c-19.7-9.9-38.3-21.9-57.7-32.6c-1.9-1-2.7-2.4-2.5-4.4c0-0.7,0-1.3,0-2
			c0-57.8,0-115.6,0-173.4c0-5.7,0-5.8,5-2.9c29.6,17.1,59.2,34.3,88.8,51.4c14.5,8.4,29.1,16.7,43.8,24.9c4.4,2.5,6.7,5.3,6.6,10.9
			c-0.3,33-0.2,66-0.1,99C798.1,1377.4,796.7,1380.1,800,1381z"/>
		<path class="st9" d="M574,1113c0.8-7.7,3.5-10.3,11.2-9.8c9.9,0.7,18.3-2,24.5-10.2c0.4,18.6-0.5,37.1-6.6,54.9
			c-2.4,6.9-6.1,12.8-12.3,17.1c-2.7-3.7-5.1-7.7-8.3-11.1c-7.3-7.7-8.8-17-8.5-26.9C574.6,1122.3,573.9,1117.7,574,1113z"/>
		<path class="st39" d="M539,1991.8c2.8,9.9,10,13.9,19.6,14.1c7.4,0.1,11.8-4.5,12.4-11.8c0.4-4.7,1.3-9.5,1.9-14.2
			c7.1-2.8,14.2-5.6,21.4-8.3c4.4-1.7,8.9-2.7,13.5-3.3c6.6-0.8,11.7,1.8,13.9,8c5,14.2,2.1,21.3-8.7,27
			c-14.1,7.5-28.6,14.1-43.5,20c-6.1,2.4-12.5,3.4-19.1,2.7c-8.2-0.9-13.9-6.1-15.2-14.1c-0.6-3.4-1-6.9-1-10.4
			C534.3,1997.6,535.1,1993.9,539,1991.8z"/>
		<path class="st39" d="M466.9,1960c1.9,10.8,8.9,16.4,19.7,16c7.1-0.3,11.7-5.2,12.3-12.9c0.4-4.9,1-9.9,1.5-14.8
			c9.7-5.9,20.4-9.5,31.3-12.2c1.5-0.4,3-0.2,4.2,0.8c2,7.1,0.5,14.4,1.8,21.6c0.9,4.8,0.7,9.8,1,14.7
			c-11.9,5.5-23.8,11.1-35.7,16.4c-6.7,3-13.7,5.2-21.1,5.3c-11.3,0.1-17.6-5.2-19.3-16.4c-0.5-3.1-0.7-6.3-0.7-9.4
			C461.9,1965.2,463.3,1962,466.9,1960z"/>
		<path class="st60" d="M538.9,1976c1.2,5,0.3,10,0,15C537.3,1986,537.4,1981,538.9,1976z"/>
		<path class="st61" d="M559.9,2027.8c-3.3,0-6.5,0-9.8,0c0-0.2,0-0.3,0-0.5c3.2,0,6.4,0,9.6,0
			C559.7,2027.5,559.8,2027.6,559.9,2027.8z"/>
		<path class="st62" d="M574,1113c1.6,4.7,1.6,9.3,0.1,14C573.4,1122.3,572.6,1117.7,574,1113z"/>
		<path class="st40" d="M506,1901.2c1.4-13.9,2.7-27.7,4.2-41.6c1.8-15.7,3.8-31.3,5.7-46.9c2.4-19.9,4.7-39.9,7.1-59.8
			c6.4-0.2,12.9-0.5,19.3-0.7c0.2,1.8,0.6,3.6,0.6,5.4c-0.1,11.3,1.3,22.5,2.6,33.7c0.9,7.4-1,14.8-2.8,22.1
			c-2.3,9.2-5.1,18.3-6.8,27.5c-2.7,15.5-2.1,31.1-1.3,46.7c0.2,3.8,0.3,7.6,0.3,11.4c-1.3,1.2-3,1.2-4.6,1.5
			c-6.3,1.2-12.8,0.7-19.1,1.7C509.3,1902.7,507.4,1902.5,506,1901.2z"/>
		<path class="st14" d="M506,1901.2c9.6-0.7,19.2-1.3,28.8-2c0.4,12.6,0.8,25.1,1.2,37.7c-10.5,1-20,5.3-29.5,9.4
			c-2,0.8-3.8,2.1-6,2c1.5-14.2,3.1-28.4,4.7-42.7C505.3,1904.1,505.7,1902.7,506,1901.2z"/>
	</g>
	<g>
		<path class="st14" d="M275.9,1660.1c-0.9,19.3-1.8,38.6-2.8,57.9c-0.2,3.9-2.4,6.9-4.8,9.6c-2.7,3.1-5.7,6-8.6,9
			c-4.4,6.1-11,9-17.4,12.1c-20.5,9.7-42.4,14.2-65,15.8c-9.5,0.7-18.9,0.9-28.4,0.9c-2,0.1-4,0.1-5.9-0.1
			c-13.4-1.4-26.8-1.8-40.1-3.9c-16-2.5-31.7-5.6-46.5-12.5c-5.6-2.6-10.7-6-15.8-9.4c-5-5.2-9.2-10.9-10.9-18.1
			c-1-4.1-1.3-8.2-0.6-12.3c2.2-13.1,4.5-26.2,6-39.4c1.9-16.9,2.4-33.9,0.9-50.8c-3-34.5-8.2-68.8-10.7-103.3
			c-0.7-10-1.6-19.9-2.3-29.9c-0.3-4.7-2.3-7.3-7-8.2c-1.8-0.3-3.5-1.1-5.2-1.8c-4.9-1.5-8.8-4-9.8-9.5c0-1.3,0-2.7,0-4
			c0.8-2.7,0.8-5.3,0-8c0-2.3,0-4.7,0-7c1.3-8.9,3-17.6,5.6-26.2c6.2-19.9,12.9-39.5,20.8-58.8c3.6-8.7,9.6-15.4,17.5-20.6
			c20.4-13.4,42.7-21.4,67-24.1c1.5-0.2,3-0.5,4.4,0.4c1.1,1.1,1.9,2.5,1.8,4c-0.2,4.8,2.7,6.6,6.7,7.9c13,4.3,26,6.7,39.6,3.3
			c6.4-1.6,12.6-3.5,14.6-11c0.2-0.8,1-1.3,1.8-1.6c10.8,0.6,20.7,4.6,30.4,8.9c13,5.8,24.7,13.7,34.6,24.1
			c3.7,3.9,7.6,7.5,11.4,11.1c5.9,5.6,9.3,12.9,12.3,20.4c6.3,15.9,9.2,32.6,11.7,49.4c2.6,18.3,3.7,36.7,3.2,55.2
			c-0.2,5.5-0.7,10.9-2.8,16.1c-12.2,22.3-32.7,25.3-55.1,23.4c-12.1-1-11.9-1.5-10.5,10.8c4.3,36.4,9.1,72.7,13.5,109.1
			c1,8,1.6,8.9,9.4,10.5c9.6,2,19.2,1.5,28.8,0.6C270.4,1659.7,273.2,1658,275.9,1660.1z"/>
		<path class="st14" d="M252.3,2037.8c34.9,4.6,68.6,13,99.3,31c11.4,6.7,21.8,14.7,29.9,25.3c14.7,19.2,14.8,40.6,0.1,59.8
			c-11.5,15.1-27.1,24.9-44,32.8c-27.2,12.8-56.2,19.4-85.8,23.4c-6.6,0.9-13.5,0-19.8,2.9c-2.7,0-5.3,0-8,0
			c-1.8-1.1-3.7-0.3-5.5-0.5c-2,0-4,0-6,0c-6,0-11.9,0-17.9,0c-2.5,0.3-5.2-0.6-7.7,0.5c-4.7,0-9.3,0-14,0
			c-8.5-1.8-17.1-1.3-25.7-2.6c-29.8-4.5-58.7-11.8-85.7-25.6c-15.4-7.9-29.4-17.6-39.8-31.8c-14.9-20.2-13.5-44.9,3.4-63.5
			c9.9-10.9,21.4-19.5,34.4-26.1c3-1.5,5.2-4,8.1-5.5c1.3,0.8,1.5,2.1,1.6,3.5c1,11.7,2.7,23.3,4.7,34.9c0.2,1.3,0.3,2.6,0.1,3.9
			c-0.6,2.4-1.5,4.8-2,7.2c-2.2,9.8,2.1,16.6,12,18.8c6.8,1.5,13.6,1.4,20.3,0.4c25.1-3.9,48.4-12.2,68-28.9c1.7-1.4,3.1-3,4.6-4.6
			c1.2-1.2,2.3-3.1,4.5-1.7c1.7,3.3,1.7,7.1,2.2,10.6c1.8,12.3,4,24.5,7,36.6c0.3,1.3,0.5,2.6,0.3,3.9c-1,4.2-3.6,7.8-4.2,12.2
			c-1.3,8.6,2.4,14.7,10.8,17c7.7,2.1,15.5,1.9,23.3,0.6c24.3-3.9,46.7-12.2,65.9-28c6.3-5.2,11.5-11.2,11.8-20
			c0.3-8.6-3.5-14.2-11.7-17.1c-8.1-2.8-16.4-2.3-24.7-1.4c-3.5,0.4-6.8,1.4-10.2,2.3c-1.7,0.4-3.6,1.3-4.8-1.1
			c-0.2-11.2,1-22.3,1.6-33.4c0.5-9.8,0.5-19.6,1.6-29.4C250.7,2042,250.1,2039.6,252.3,2037.8z"/>
		<path class="st10" d="M152,1108c3.6,2.4,7.8,2,11.8,2.9c14.6,3.3,28.6,7.9,41,16.4c10.8,7.4,19.1,16.7,20.6,30.4
			c1.1,10.3-1.9,19.4-8.4,27.3c-0.9,4.1-3.8,6.9-6.5,9.8c-2.3,2.6-4.6,5.3-7.4,7.4c-8.8,6.6-9.6,15.7-8.3,25.5
			c0.3,2.5,0.6,4.9,0.1,7.4c-1,3-0.4,6.1-0.4,9.1c-0.4,1.6-1.6,2.5-2.9,3.3c-3.7,2.3-5.8,1.7-7.1-2.4c-2-6-4.9-11.2-9.4-15.7
			c-3.9-3.9-8.3-6.3-13.9-4.3c-5.7,2.1-7.9,6.9-8.6,12.4c-1.2,9.5,1.3,18.1,6.8,25.9c5.5,7.9,6.7,17.1,7.6,26.3
			c-0.8,2.5-0.8,4.9-0.1,7.4c0.2,4.5-2.4,7.5-5.6,10.2c-9.6,6.4-20.4,7.3-31.5,6.7c-4.4-0.2-8.9-1-13.3-2.1
			c-10.1-2.6-19.6-6.3-28-12.7c-6.7-5.1-11.1-11.4-12.7-19.7c-1.7-8.6-4.7-16.6-8.6-24.4c-6.1-12-13-23.8-15.5-37.2
			c-4.9-26.5-2.4-52.2,12.3-75.5c12.5-19.7,30.7-31.3,53.9-34.7C129.3,1108,140.7,1108,152,1108z"/>
		<path class="st63" d="M194,2212c6.4,0,12.7,0,19.1,0c0.3,0.2,0.4,0.4,0.3,0.6c-0.1,0.2-0.2,0.3-0.3,0.3c-6.3,0-12.7,0-19,0
			c-0.3-0.2-0.4-0.4-0.3-0.6C193.8,2212.2,193.9,2212,194,2212z"/>
		<path class="st64" d="M521.1,1525c0.3,0,0.6,0,0.9,0c0,3.3,0,6.7,0,10c-0.3,0-0.6,0-1,0C518.8,1531.7,518.8,1528.3,521.1,1525z"/>
		<path class="st65" d="M1,1454c1.5,2.7,1.5,5.3,0,8C1,1459.3,1,1456.7,1,1454z"/>
		<path class="st66" d="M194,2212c0,0.3,0,0.6,0,1c-2.3,0-4.7,0-7,0C189.1,2211,191.6,2212.4,194,2212z"/>
		<path class="st67" d="M213,2213c0-0.3,0-0.6,0-0.9c2,0,4,0.1,6,0.1c0.3,0.2,0.3,0.4,0.2,0.6c-0.1,0.2-0.2,0.3-0.3,0.3
			C217,2213,215,2213,213,2213z"/>
		<path class="st68" d="M219,2213c0-0.3,0-0.6,0.1-0.9c1.7,0.2,3.6-1,4.9,0.9C222.3,2213,220.7,2213,219,2213z"/>
		<path class="st10" d="M252.3,2037.8c-1.3,23.4-2.6,46.8-3.9,70.2c2.2,4.6,0.4,9.1,0.1,13.7c-0.5,7.9-1.4,15.8-3,23.7
			c-0.8,4.1-2.9,7-6.6,8.7c-15.1,7.1-29.6,5.7-43.6-3c-2.9-1.8-5.2-4.2-5-8.1c-4.4-17.2-7-34.7-9.7-52.2c-1.8-1.5-1.8-3.8-2.1-5.9
			c-1.1-7.6-2-15.3-2.9-23c-1.1-9-2.3-18-3.2-27c-2.1-14.5-3.3-29.1-4.8-43.6c-2.4-23-4.7-46-6.7-69c-1.9-20.9-3.7-41.7-5.5-62.6
			c-1.5-17.4-2.9-34.8-4.5-52.2c-1.2-12.9-1.9-25.9-3.2-38.8c-0.2-1.7,0.1-3.3,1.3-4.7c16.6,0,33.2-0.7,49.6-3.4
			c22.1-3.7,42.8-10.8,61.1-24c-0.6,33.8-1,67.6-1.7,101.4c-1.3,65.3-3,130.5-5.7,195.8C252.2,2035.2,252.3,2036.5,252.3,2037.8z"/>
		<path class="st15" d="M521.1,1525c0,3.4,0,6.7-0.1,10.1c-2.4,13.4-8.2,25.1-16.3,35.9c-0.7,0.9-1.2,1.9-1.8,2.9
			c-8.5,11.8-18.6,21.1-34,22.2c-1.3-0.1-2.8,0.2-4-0.3c-15.4-5.7-29.3-0.2-43.3,5.4c-22.4,9-43.8,20-65.8,30.1
			c-25.9,11.8-52,22.9-80,28.9c-12,2-24.1,3.2-36.2,0.9c-0.7-0.1-1.3-0.2-2-0.4c-8.4-2.1-8.4-2.1-9.5-10.6
			c-5-40-9.9-79.9-14.9-119.9c-0.4-3.5,0.3-4.2,3.9-3.7c10.2,1.5,20.5,2,30.9,0.6c12.6-1.7,22.7-7.3,29.8-18c1-1.5,2.1-3,3.2-4.4
			c2,11.2,1,22.6,1.8,33.8c1.3,18.4,1.7,36.8,2.1,55.3c0.1,4.2,1.1,4.9,5,3.8c36.3-10.1,72.7-20,109.3-29.1
			c4.3-1.1,8.8-1.4,12.9-3.4c3.4-2.6,7.6-2.4,11.4-3.1c6.9-1.2,11.8-4.4,14.8-11.1c6.1-13.6,16-24.4,27.5-33.7
			c0.8-0.6,1.6-1.2,2.4-1.8c5.4-3.6,9.5-3.4,12.4,0.4c3.4,4.5,2.9,10.6-1.2,14.5c-2.2,2.1-5,3.3-7.8,4.4c-4.3,1.7-7.9,4.2-10.5,8.1
			c-2.9,4.2-3.1,7.7-0.8,10.6c2.4,3,8.2,4.8,11.8,3.4c4.8-1.9,8.4-5.2,11.7-9.1c5.7-6.8,10.8-14,16-21.1c1.4-1.9,3.1-3.5,5.1-4.6
			c1.4-1.4,2.6-3,4.2-4.2c5.6-4.7,9.1-3.5,11,3.4C520.4,1522.4,520.8,1523.7,521.1,1525z"/>
		<path class="st48" d="M468.9,1595.9c14.3-2.8,24.5-12,34-22.2c0,12.8,0.1,25.6,0.1,38.4c0,2.5,0.2,4.4-3.4,2.2
			c-9.1-5.5-18.3-10.7-27.6-15.8C470.7,1597.9,470.9,1595.7,468.9,1595.9z"/>
		<path class="st10" d="M67.5,2058.8c-3.3-28.8-6-57.6-8.4-86.5c-4-49.1-7.9-98.3-11.6-147.4c-2.2-28.7-5-57.4-6.1-86.2
			c24.4,17,52.6,20.6,81.1,23.6c6.9,0.7,13.9,0.2,20.8,1.8c1.4,1.9,1.3,4.1,1.3,6.2c-0.4,26.9-1.4,53.9-2.8,80.8
			c-0.5,9.3-0.6,18.6-0.9,27.9c-0.6,20.3-1.5,40.6-2.4,60.8c-1,22.8-1.9,45.5-3.5,68.3c-0.6,7.9-1.3,15.9-1.3,23.9
			c0,2.7-0.2,5.3-1,7.9c0.4,7.9-1,15.7-1.2,23.5c-1.5,12.4-2.4,24.8-4,37.1c-1,8-4.6,13.3-12.3,16.5c-13.4,5.7-28.8,3.9-37.7-5.1
			c-3.1-3.1-5-6.6-4.4-11.1c-1.5-10.9-3.1-21.9-4.6-32.8C68.1,2064.9,67.8,2061.9,67.5,2058.8z"/>
		<path class="st40" d="M131.4,2040.5c4.5-70.8,7.3-141.7,9.8-212.6c0.7-21.3,1.4-42.6,2.1-63.9c1.9,0,3.8,0,5.7,0.1
			c7.2,90.5,14.9,180.9,24.8,271.2c-1,1.9-2.9,2-4.7,2.1c-10.3,0.6-20.4,2.3-30.6,3.6C136.1,2041.3,133.6,2042.4,131.4,2040.5z"/>
		<path class="st15" d="M36.3,1669.7c-3.9-19.2-7.9-38.3-10.8-57.7c-3.1-20.7-6.4-41.3-8.6-62c-2.6-24.4-4.8-48.9-6.1-73.4
			c0-0.8-0.3-1.6-0.5-2.4c0.2,0,0.3-0.1,0.5,0c13.4,3.8,13.2,3.8,14.1,17.7c2.4,35.7,6.1,71.3,10.6,106.8
			C38.6,1622.2,39.2,1645.9,36.3,1669.7z"/>
		<path class="st17" d="M116,1318c0-2.4,0-4.8,0-7.1c10.5,1.5,21,3.1,31.7,0.5c4.7-1.2,9.2-2.7,13.3-5.3c5.6,0.1,11.1,1.3,16.7,1.6
			c1.3,0.1,2.6,0.3,3.5,1.4c-0.2,3.9-0.4,7.8-0.6,11.8c-1.4,8.4-7.4,11.4-14.8,13.2c-16.1,4-31.3,1.1-46.2-4.9
			c-2.1-0.8-2.7-2.1-2.7-4.2C116.8,1322.6,116.3,1320.3,116,1318z"/>
		<path class="st48" d="M504.9,1522c-6.7,8.7-13.3,17.4-19.9,26.1c-2.6,3.4-5.7,6-9.2,8.4c-5,3.4-11.9,2.7-16.1-1.5
			c-3.3-3.3-3-7.2-0.9-11c3-5.5,7.8-8.9,13.7-11c4.2-1.5,7.7-3.7,9-8.5c1-3.9-0.4-7-3.1-9.4c-2.7-2.4-5.7-1.1-8.3,0.6
			c-8.3,5.3-14.5,12.6-20.8,20c-3.9,4.6-7.5,9.4-9.5,15.1c-2.8,7.8-8.5,11.5-16.4,12.5c-3.8,0.5-7.5,1.3-11.3,1.9
			c0.3-0.9,0.5-1.5-0.8-2.2c-14.5-8.1-28.9-16.3-43.3-24.5c-12.5-7.2-24.9-14.5-37.6-21.5c-3.2-1.8-3.3-4-3.3-7c0-44.5,0-89,0-133.5
			c0-26.8,0-53.6,0-80.5c0-1.6,0-3.3,0-5.7c11.9,6.8,23.2,13.3,34.5,19.8c18.4,10.6,36.8,21.2,55.2,31.9
			c21.8,12.6,43.7,25.3,65.5,37.9c6,3.5,12,7.1,18.2,10.3c2.8,1.5,3.5,3.3,3.6,6.3c0.6,17.5-1.2,34.9-1.1,52.4
			c0.2,22.7,0,45.5,0.1,68.2C503.1,1518.8,501.9,1521.2,504.9,1522z"/>
		<path class="st9" d="M181.2,1309.1c-5.5,0.4-10.8-1-16.3-1.1c-1.5,0-2.9-0.6-3.9-1.8c2.5-2.6,5-5.1,5-9.1c0.2-2.3-0.6-4.7,0-7
			c-1.9-9.3-2.7-18.8-8.6-27c-5.2-7.2-7.2-15.6-6.5-24.5c0.5-7,3.4-12.6,10.3-15.1c6.4-2.2,11.2,1.1,15.4,5.5
			c3.9,4.1,7,8.8,8.7,14.3c1.7,5.5,1.9,5.5,6.7,2.4c0.7-0.4,1.1-1.2,1.7-1.7c0.9-3-0.7-6,0.2-8.9c-0.3-5.1-0.8-10.3-0.8-15.4
			c0-6.9,2-12.9,8-17.4c6.2-4.8,10.7-11.3,15.8-17.2c4.7,21.8,8.2,43.7,8.7,66c0.3,13.9-0.5,27.9-6.6,40.9c-4.5,9.6-12,14.7-22.4,16
			C191.5,1308.6,186.4,1309.2,181.2,1309.1z"/>
		<path class="st39" d="M190.3,2143.1c4.7,9.9,14.2,11.9,23.4,13.7c8.3,1.6,16.5,0.1,24.3-3.5c3.6-1.6,5.4-3.9,6.1-7.7
			c2.4-12.4,3.1-25,4.3-37.5c11.7-4.2,23.6-5.8,35.8-3c15.5,3.6,20.9,17.6,12.1,30.8c-6.4,9.6-15.6,15.8-25.5,21.2
			c-18,9.8-37.2,16.1-57.8,17.6c-4.9,0.3-9.7,0-14.4-1.1c-10.8-2.6-14.9-9-12.8-19.9C186.5,2149.6,188.1,2146.2,190.3,2143.1z"/>
		<path class="st39" d="M73.1,2100.8c5.4,15.2,18.6,21.4,36.2,16.8c1.4-0.4,2.8-1,4.3-1.4c7.9-2.3,11.9-7.5,12.6-15.8
			c1-12.2,2.6-24.4,4-36.6c1.4-2.5,3.9-3.5,6.4-4.3c10.1-3.5,20.5-3.3,30.9-2.3c3.5,0.4,7.3,1.1,9.4,4.7c1.3,9.7,2.6,19.3,3.8,29
			c-17.2,20.1-40.5,29-65.2,35.1c-9.1,2.2-18.3,3.2-27.7,2.2C71.6,2126.4,65.6,2115.2,73.1,2100.8z"/>
		<path class="st69" d="M301.5,2120.7c0.8,2,0.7,3.6,0.1,5.6C300.8,2124.3,300.9,2122.7,301.5,2120.7z"/>
		<path class="st70" d="M193.9,1235c0.4,3,1.8,6-0.2,8.9C192.7,1240.9,192.4,1238,193.9,1235z"/>
		<path class="st71" d="M166,1290c0.8,2.3,1,4.7,0,7C164.4,1294.7,164.4,1292.3,166,1290z"/>
		<path class="st14" d="M176.8,2061.8c-15.9-6.9-31.4-5-46.8,1.9c0.5-7.7,0.9-15.5,1.4-23.2c14.1-1.8,28.3-3.5,42.4-5.3
			C174.8,2044.1,175.8,2053,176.8,2061.8z"/>
	</g>
</g>
</svg>
