<?xml version="1.0" encoding="UTF-8"?>
<svg width="27px" height="24px" viewBox="0 0 27 24" version="1.1" xmlns="http://www.w3.org/2000/svg" xmlns:xlink="http://www.w3.org/1999/xlink">
    <!-- Generator: Sketch 50 (54983) - http://www.bohemiancoding.com/sketch -->
    <title>Shape</title>
    <desc>Created with Sketch.</desc>
    <defs></defs>
    <g id="Style-Guide-Product-Website" stroke="none" stroke-width="1" fill="none" fill-rule="evenodd">
        <g id="Icons---Desktop" transform="translate(-61.000000, -93.000000)" fill="#FFFFFF" fill-rule="nonzero">
            <g id="Twitter" transform="translate(60.000000, 90.000000)">
                <g id="008-twitter" transform="translate(1.822806, 3.858156)">
                    <path d="M25.1134109,2.67631607 C24.5464125,2.94880953 23.9578242,3.16378335 23.3538679,3.31941683 C24.0193584,2.63403608 24.5197207,1.77677069 24.8020067,0.819907961 C24.8825798,0.546740171 24.6088178,0.310525221 24.381222,0.456785634 C23.5410216,0.996917451 22.6359893,1.40211746 21.6911993,1.66125936 C21.6363847,1.67629673 21.5798279,1.68391657 21.5230845,1.68391657 C21.3509878,1.68391657 21.1836819,1.61466372 21.0520894,1.48897012 C20.0468851,0.52880321 18.7540441,0 17.4118015,0 C16.8309905,0 16.2445798,0.0981138319 15.6688086,0.291644208 C13.8848758,0.891318646 12.5084129,2.4861573 12.0765534,4.45382851 C11.914536,5.1918738 11.8706719,5.93059341 11.9460809,6.64942052 C11.9547293,6.73202495 11.9187047,6.78967947 11.8964926,6.81671977 C11.8574815,6.8641246 11.8021692,6.89129977 11.7447414,6.89129977 C11.7383329,6.89129977 11.7317377,6.89096261 11.7252047,6.89028829 C7.82023865,6.49709121 4.2989127,4.45814417 1.80985614,1.1491119 C1.68293012,0.980329133 1.43953082,1.00103081 1.33836331,1.18909918 C0.850942513,2.09538778 0.593357357,3.13195535 0.593357357,4.18672962 C0.593357357,5.803214 1.19258505,7.32657454 2.23344062,8.43711523 C1.79573251,8.32463834 1.37208581,8.14749398 0.978552937,7.91060471 C0.788163909,7.79596999 0.553910742,7.94330932 0.55123534,8.17932197 C0.523983578,10.580717 1.82124215,12.7175082 3.76457905,13.679698 C3.72544352,13.6807095 3.686308,13.6811815 3.64711026,13.6811815 C3.33906579,13.6811815 3.02716376,13.648949 2.72017701,13.5853604 C2.50577159,13.54099 2.32564864,13.7614258 2.39222258,13.9867168 C3.02299512,16.1210129 4.7185774,17.6942058 6.74765158,18.0513941 C5.06364196,19.2765695 3.10257275,19.9228396 1.06149038,19.9228396 L0.425180383,19.922435 C0.229129459,19.922435 0.0633167923,20.0609407 0.0133552271,20.2667438 C-0.0358597144,20.4694449 0.0547928391,20.6832724 0.221974316,20.7886689 C2.52194844,22.2393375 5.14539725,23.0060415 7.80984814,23.0060415 C10.1421137,23.0060415 12.323748,22.5044135 14.2942122,21.5151833 C16.1006059,20.6082878 17.6968872,19.311904 19.0386944,17.6620407 C20.2886668,16.1251263 21.2661216,14.350918 21.9438069,12.3887762 C22.589823,10.5184097 22.9312789,8.52268667 22.9312789,6.6173228 L22.9312789,6.52655907 C22.9312167,6.22061924 23.0588893,5.93275124 23.2816321,5.7367933 C24.1268722,4.99301628 24.8629187,4.11747676 25.4692393,3.13451778 C25.6293279,2.87497129 25.3768447,2.54967842 25.1134109,2.67631607 Z" id="Shape"></path>
                </g>
            </g>
        </g>
    </g>
</svg>