<?xml version="1.0" encoding="UTF-8"?>
<svg width="26px" height="26px" viewBox="0 0 26 26" version="1.1" xmlns="http://www.w3.org/2000/svg" xmlns:xlink="http://www.w3.org/1999/xlink">
    <!-- Generator: Sketch 50 (54983) - http://www.bohemiancoding.com/sketch -->
    <title>Shape</title>
    <desc>Created with Sketch.</desc>
    <defs></defs>
    <g id="Style-Guide-Product-Website" stroke="none" stroke-width="1" fill="none" fill-rule="evenodd">
        <g id="Icons---Desktop" transform="translate(-32.000000, -32.000000)" fill="#FFFFFF" fill-rule="nonzero">
            <g id="Phone-Icon" transform="translate(30.000000, 30.000000)">
                <path d="M26.729311,22.2737953 L22.8985808,18.4037553 C22.1355704,17.6360964 20.8720102,17.6594199 20.0824187,18.4573129 L18.1524805,20.4064061 C18.0305499,20.3385233 17.9043435,20.2676171 17.7716522,20.1923917 C16.5529163,19.5102523 14.8848687,18.5752979 13.1295955,16.8009147 C11.36912,15.0227882 10.442704,13.3352201 9.76535144,12.1033235 C9.69387488,11.9728128 9.62539136,11.8469813 9.55776299,11.7274845 L10.8530351,10.4210104 L11.4898392,9.77695151 C12.2806421,8.97790677 12.3024485,7.70188271 11.5412196,6.93199231 L7.7104895,3.06152036 C6.94926061,2.29270975 5.68513036,2.31603321 4.89432742,3.11507796 L3.81469648,4.21192883 L3.84419926,4.24151508 C3.4821844,4.70812842 3.17967395,5.24629585 2.95455486,5.82664708 C2.74703768,6.37906774 2.61783828,6.90622131 2.55876144,7.43445467 C2.05293831,11.6703996 3.96919416,15.5417354 9.16966595,20.7950586 C16.3582977,28.0561438 22.1513907,27.5076103 22.4013092,27.4808315 C22.9456143,27.4151083 23.4672577,27.2837338 23.9973815,27.0757662 C24.5669135,26.8510259 25.0993177,26.5458772 25.5609579,26.1809801 L25.5845458,26.202144 L26.6782868,25.1202662 C27.4674507,24.3213654 27.4901835,23.0449095 26.729311,22.2737953 Z" id="Shape"></path>
            </g>
        </g>
    </g>
</svg>