<?xml version="1.0" encoding="UTF-8"?>
<svg width="26px" height="19px" viewBox="0 0 26 19" version="1.1" xmlns="http://www.w3.org/2000/svg" xmlns:xlink="http://www.w3.org/1999/xlink">
    <!-- Generator: Sketch 50 (54983) - http://www.bohemiancoding.com/sketch -->
    <title>Combined Shape</title>
    <desc>Created with Sketch.</desc>
    <defs></defs>
    <g id="Style-Guide-Product-Website" stroke="none" stroke-width="1" fill="none" fill-rule="evenodd">
        <g id="Icons---Desktop" transform="translate(-32.000000, -66.000000)" fill="#FFFFFF" fill-rule="nonzero">
            <g id="Email-Icon" transform="translate(30.000000, 60.000000)">
                <g id="Group" transform="translate(2.000000, 6.000000)">
                    <path d="M2.8612712,5.63217859 C2.28922632,5.28499031 1.74922837,4.80749239 1.24181065,4.19981516 C0.73434445,3.59218136 0.480490142,3.02776692 0.480490142,2.50691933 C0.480490142,1.86210385 0.671947487,1.32470694 1.05486218,0.894772043 C1.43782535,0.464924014 1.98461085,0.25 2.69512171,0.25 L23.0706145,0.25 C23.670246,0.25 24.1893964,0.444204783 24.6277266,0.832831533 C25.0661053,1.22137141 25.2853916,1.68853143 25.2853916,2.23426815 C25.2853916,2.88733658 25.0594147,3.51156313 24.6069761,4.10660033 C24.1548769,4.70189816 23.5920922,5.2104532 22.9184765,5.63191798 C19.4488757,7.78984543 17.2893203,9.13338114 16.4404889,9.66239479 C16.3482267,9.72038258 16.1519696,9.84626168 15.8521539,10.0407271 C15.5521442,10.235149 15.3031382,10.392259 15.1046993,10.5121004 C14.9062605,10.631855 14.6663692,10.7661173 14.3849768,10.9150613 C14.1037299,11.0635708 13.8381428,11.1755068 13.5890883,11.2495226 C13.3398883,11.3241032 13.1091117,11.3611111 12.8969038,11.3611111 L12.8829409,11.3611111 L12.8690264,11.3611111 C12.6568185,11.3611111 12.4261389,11.3241466 12.1769389,11.2495226 C11.9277874,11.1755068 11.6624427,11.0637011 11.3809534,10.9150613 C11.0993671,10.7662911 10.8594757,10.6318984 10.6610369,10.5121004 C10.4627435,10.392259 10.2135435,10.235149 9.91363087,10.0407271 C9.61376669,9.84643542 9.41775199,9.72038258 9.32548981,9.66239479 C8.48572464,9.13338114 7.27686228,8.37906213 5.69885426,7.39939434 C4.12089472,6.41972655 3.17504986,5.83055329 2.8612712,5.63217859 Z M23.9009768,7.82915645 C24.4272532,7.50119744 24.8885147,7.13505535 25.2853916,6.73148148 L25.2853916,16.7494559 C25.2853916,17.3050108 25.0687237,17.7798686 24.6348548,18.1753551 C24.2011313,18.5708416 23.6797032,18.7685185 23.0707643,18.7685185 L2.69526283,18.7685185 C2.08617852,18.7685185 1.5647019,18.5708416 1.1310269,18.1753551 C0.697254923,17.7800012 0.480490142,17.3049666 0.480490142,16.7494559 L0.480490142,6.73148148 C0.886530186,7.14358467 1.35254295,7.50972676 1.87867388,7.82915645 C5.21915926,9.8983343 7.5122795,11.3495562 8.75813156,12.1822478 C9.28406856,12.535397 9.71090755,12.8110752 10.0384061,13.0086196 C10.3660016,13.2062966 10.8021008,13.4081719 11.3464611,13.6141572 C11.8908214,13.8204518 12.3984321,13.9232898 12.8690506,13.9232898 L12.8829651,13.9232898 L12.8970735,13.9232898 C13.367789,13.9232898 13.8751088,13.8204518 14.4194691,13.6141572 C14.9640233,13.4081719 15.3998316,13.2062966 15.7275241,13.0086196 C16.0552166,12.8110752 16.4819101,12.535397 17.0078956,12.1822478 C18.5764465,11.1475041 20.8745119,9.6963706 23.9009768,7.82915645 Z" id="Combined-Shape"></path>
                </g>
            </g>
        </g>
    </g>
</svg>