<svg xmlns="http://www.w3.org/2000/svg" width="160" height="200" viewBox="0 0 16 20"><g fill="none"><g transform="translate(-28 -26)translate(24 24)"><polygon points="0 0 24 0 24 24 0 24" style="fill-opacity:0.1;fill:#F00;opacity:0"/><g fill="#000"><path d="M17.8 5.1C18.7 5.1 19.4 5.8 19.4 6.6L19.4 20.5C19.4 21.3 18.7 22 17.8 22L5.5 22C4.7 22 4 21.3 4 20.5L4 6.6C4 5.8 4.7 5.1 5.5 5.1L7.7 5.1C8 4.8 8.3 4.5 8.7 4.4 9.1 4.3 9.4 4 9.5 3.7 9.8 2.7 10.6 2 11.7 2 12.7 2 13.6 2.7 13.9 3.7 14 4 14.3 4.3 14.6 4.4 15.1 4.5 15.4 4.8 15.7 5.1L17.8 5.1ZM11.7 3.5C11.3 3.5 10.9 3.9 10.9 4.3 10.9 4.7 11.3 5.1 11.7 5.1 12.1 5.1 12.5 4.7 12.5 4.3 12.5 3.9 12.1 3.5 11.7 3.5ZM17.8 20.5L17.8 6.6 16.3 6.6 16.3 8.2 7.1 8.2 7.1 6.6 5.5 6.6 5.5 20.5 17.8 20.5ZM10.6 14.7L14.3 11.1 15.4 12.3 10.6 16.9 7.9 14.5 9.1 13.2 10.6 14.7Z"/></g></g></g></svg>