<svg xmlns="http://www.w3.org/2000/svg" viewBox="0 0 21 18"><g fill="none"><g transform="translate(-25 -123)translate(24 120)"><polygon points="0 0 24 0 24 24 0 24" style="fill-opacity:0.1;fill:#F00;opacity:0"/><path d="M13 3C8 3 4 7 4 12L1 12 4.9 15.9 5 16 9 12 6 12C6 8.1 9.1 5 13 5 16.9 5 20 8.1 20 12 20 15.9 16.9 19 13 19 11.1 19 9.3 18.2 8.1 16.9L6.6 18.4C8.3 20 10.5 21 13 21 18 21 22 17 22 12 22 7 18 3 13 3L13 3ZM12 8L12 13 16.3 15.5 17 14.3 13.5 12.3 13.5 8 12 8 12 8Z" fill="#000"/></g></g></svg>