<?xml version="1.0" encoding="UTF-8"?>
<svg width="21px" height="18px" viewBox="0 0 21 18" version="1.1" xmlns="http://www.w3.org/2000/svg" xmlns:xlink="http://www.w3.org/1999/xlink">
    <!-- Generator: Sketch 50.2 (55047) - http://www.bohemiancoding.com/sketch -->
    <title>ic_rsv_history_w</title>
    <desc>Created with Sketch.</desc>
    <defs></defs>
    <g id="Assets-ðŸ•" stroke="none" stroke-width="1" fill="none" fill-rule="evenodd">
        <g id="Icons---24px" transform="translate(-265.000000, -27.000000)" fill-rule="nonzero">
            <g id="ic_rsv_history_w" transform="translate(264.000000, 24.000000)">
                <polygon id="Shape" fill-opacity="0.1" fill="#FF0000" opacity="0" points="0 0 24 0 24 24 0 24"></polygon>
                <path d="M13,3 C8,3 4,7 4,12 L1,12 L4.9,15.9 L5,16 L9,12 L6,12 C6,8.1 9.1,5 13,5 C16.9,5 20,8.1 20,12 C20,15.9 16.9,19 13,19 C11.1,19 9.3,18.2 8.1,16.9 L6.6,18.4 C8.3,20 10.5,21 13,21 C18,21 22,17 22,12 C22,7 18,3 13,3 Z M12,8 L12,13 L16.3,15.5 L17,14.3 L13.5,12.3 L13.5,8 L12,8 Z" id="Shape" fill="#FFFFFF"></path>
            </g>
        </g>
    </g>
</svg>