<?xml version="1.0" encoding="UTF-8"?>
<svg width="16px" height="20px" viewBox="0 0 16 20" version="1.1" xmlns="http://www.w3.org/2000/svg" xmlns:xlink="http://www.w3.org/1999/xlink">
    <!-- Generator: Sketch 50.2 (55047) - http://www.bohemiancoding.com/sketch -->
    <title>ic_rsv_list_w</title>
    <desc>Created with Sketch.</desc>
    <defs></defs>
    <g id="Assets-ðŸ•" stroke="none" stroke-width="1" fill="none" fill-rule="evenodd">
        <g id="Icons---24px" transform="translate(-124.000000, -26.000000)" fill-rule="nonzero">
            <g id="ic_rsv_list_w" transform="translate(120.000000, 24.000000)">
                <polygon id="Shape" fill-opacity="0.1" fill="#FF0000" opacity="0" points="0 0 24 0 24 24 0 24"></polygon>
                <g id="Group" transform="translate(4.000000, 2.000000)" fill="#FFFFFF">
                    <path d="M13.8,3.1 C14.7,3.1 15.4,3.8 15.4,4.6 L15.4,18.5 C15.4,19.3 14.7,20 13.8,20 L1.5,20 C0.7,20 0,19.3 0,18.5 L0,4.6 C0,3.8 0.7,3.1 1.5,3.1 L3.7,3.1 C4,2.8 4.3,2.5 4.7,2.4 C5.1,2.3 5.4,2 5.5,1.7 C5.8,0.7 6.6,0 7.7,0 C8.7,0 9.6,0.7 9.9,1.7 C10,2 10.3,2.3 10.6,2.4 C11.1,2.5 11.4,2.8 11.7,3.1 L13.8,3.1 Z M7.7,1.5 C7.3,1.5 6.9,1.9 6.9,2.3 C6.9,2.7 7.3,3.1 7.7,3.1 C8.1,3.1 8.5,2.7 8.5,2.3 C8.5,1.9 8.1,1.5 7.7,1.5 Z M13.8,18.5 L13.8,4.6 L12.3,4.6 L12.3,6.2 L3.1,6.2 L3.1,4.6 L1.5,4.6 L1.5,18.5 L13.8,18.5 Z M6.6,12.7 L10.3,9.1 L11.4,10.3 L6.6,14.9 L3.9,12.5 L5.1,11.2 L6.6,12.7 Z" id="Shape"></path>
                </g>
            </g>
        </g>
    </g>
</svg>