<?xml version="1.0" encoding="UTF-8"?>
<svg width="20px" height="20px" viewBox="0 0 20 20" version="1.1" xmlns="http://www.w3.org/2000/svg" xmlns:xlink="http://www.w3.org/1999/xlink">
    <!-- Generator: Sketch 50.2 (55047) - http://www.bohemiancoding.com/sketch -->
    <title>ic_settings_sms_w</title>
    <desc>Created with Sketch.</desc>
    <defs></defs>
    <g id="Assets-ðŸ•" stroke="none" stroke-width="1" fill="none" fill-rule="evenodd">
        <g id="Icons---24px" transform="translate(-506.000000, -26.000000)">
            <g id="ic_settings_sms_w" transform="translate(504.000000, 24.000000)">
                <polygon id="Bounds" fill-opacity="0.1" fill="#FF0000" opacity="0" points="0 0 24 0 24 24 0 24"></polygon>
                <path d="M13.8468085,17.9361702 L3.35319149,17.9361702 L3.35319149,5.55319149 L10.1659574,5.55319149 L10.1659574,4.2 L2.67659574,4.2 C2.30212766,4.2 2,4.50212766 2,4.87659574 L2,21.2851064 C2,21.6595745 2.30212766,21.9617021 2.67659574,21.9617021 L14.5234043,21.9617021 C14.8978723,21.9617021 15.2,21.6595745 15.2,21.2851064 L15.2,11.106383 L13.8468085,11.8808511 L13.8468085,17.9361702 Z M8.6,18.8 C9.17446809,18.8 9.64255319,19.2680851 9.64255319,19.8425532 C9.64255319,20.4170213 9.17446809,20.8851064 8.6,20.8851064 C8.02553191,20.8851064 7.55744681,20.4170213 7.55744681,19.8425532 C7.55744681,19.2680851 8.02553191,18.8 8.6,18.8 Z M20.093617,2 C20.7021277,2 21.1914894,2.49361702 21.1957447,3.09787234 L21.1957447,8.07234043 C21.1957447,8.68085106 20.7021277,9.17021277 20.0978723,9.17021277 L16.5489362,9.17021277 L12.9319149,11.2425532 C12.8893617,11.2723404 12.8425532,11.2851064 12.7957447,11.2851064 C12.7319149,11.2851064 12.6723404,11.2638298 12.6255319,11.2170213 C12.5446809,11.1361702 12.5276596,11.0085106 12.5914894,10.9106383 L13.4595745,9.17021277 L12.2808511,9.17021277 C11.6723404,9.17021277 11.1829787,8.68085106 11.1829787,8.07234043 L11.1829787,3.09787234 C11.1829787,2.49361702 11.6765957,2 12.2808511,2 L20.093617,2 Z M14,6.40425532 C14.4510638,6.40425532 14.8212766,6.03829787 14.8212766,5.58297872 C14.8212766,5.12765957 14.4510638,4.76170213 14,4.76170213 C13.5446809,4.76170213 13.1787234,5.12765957 13.1787234,5.58297872 C13.1787234,6.03829787 13.5446809,6.40425532 14,6.40425532 Z M16.187234,6.40425532 C16.6382979,6.40425532 17.0085106,6.03829787 17.0085106,5.58297872 C17.0085106,5.12765957 16.6425532,4.76170213 16.187234,4.76170213 C15.7319149,4.76170213 15.3659574,5.12765957 15.3659574,5.58297872 C15.3659574,6.03829787 15.7319149,6.40425532 16.187234,6.40425532 Z M18.3744681,6.40425532 C18.8297872,6.40425532 19.1957447,6.03829787 19.1957447,5.58297872 C19.1957447,5.12765957 18.8297872,4.76170213 18.3744681,4.76170213 C17.9191489,4.76170213 17.5531915,5.12765957 17.5531915,5.58297872 C17.5531915,6.03829787 17.9234043,6.40425532 18.3744681,6.40425532 Z" id="Combined-Shape" fill="#FFFFFF" fill-rule="nonzero"></path>
            </g>
        </g>
    </g>
</svg>