<svg xmlns="http://www.w3.org/2000/svg" viewBox="0 0 512 512"><path d="M438.1 273.3h-39.6c4 11.1 6.2 23 6.2 35.4v149.7c0 5.2-0.9 10.2-2.5 14.8h65.5c24.5 0 44.3-19.9 44.3-44.3v-81.6C512 306.5 478.8 273.3 438.1 273.3z"/><path d="M107.3 308.7c0-12.4 2.2-24.4 6.2-35.4H73.9c-40.8 0-73.9 33.2-73.9 73.9v81.6c0 24.5 19.9 44.3 44.3 44.3h65.5c-1.6-4.6-2.5-9.6-2.5-14.8V308.7z"/><path d="M301.3 234.8h-90.5c-40.8 0-73.9 33.2-73.9 73.9v149.7c0 8.2 6.6 14.8 14.8 14.8h208.8c8.2 0 14.8-6.6 14.8-14.8v-149.6C375.2 268 342 234.8 301.3 234.8z"/><path d="M256 38.8c-49 0-88.9 39.9-88.9 88.9 0 33.2 18.3 62.3 45.4 77.5 12.9 7.2 27.7 11.4 43.4 11.4 15.8 0 30.6-4.1 43.4-11.4 27.1-15.2 45.4-44.3 45.4-77.5C344.9 78.7 305 38.8 256 38.8z"/><path d="M99.9 121.7c-36.7 0-66.5 29.8-66.5 66.5 0 36.7 29.8 66.5 66.5 66.5 9.3 0 18.2-1.9 26.2-5.4 13.9-6 25.4-16.6 32.5-29.9 5-9.3 7.8-19.9 7.8-31.2C166.4 151.5 136.6 121.7 99.9 121.7z"/><path d="M412.1 121.7c-36.7 0-66.5 29.8-66.5 66.5 0 11.3 2.8 21.9 7.8 31.2 7.1 13.3 18.6 23.9 32.5 29.9 8 3.5 16.9 5.4 26.2 5.4 36.7 0 66.5-29.8 66.5-66.5C478.6 151.5 448.7 121.7 412.1 121.7z"/></svg>