<svg xmlns="http://www.w3.org/2000/svg" width="200" height="200" viewBox="0 0 20 20"><g fill="none"><g transform="translate(-26 -170)translate(24 168)"><polygon points="0 0 24 0 24 24 0 24" style="fill-opacity:0.1;fill:#F00;opacity:0"/><path d="M12 13.8L10.2 15.6C9.7 16.1 8.9 16.1 8.4 15.6 7.9 15.1 7.9 14.2 8.4 13.7L10.2 12 8.4 10.2C7.9 9.7 7.9 8.9 8.4 8.4 8.9 7.9 9.7 7.9 10.2 8.4L12 10.2 13.7 8.4C14.2 7.9 15.1 7.9 15.6 8.4 16.1 8.9 16.1 9.7 15.6 10.2L13.8 12 15.6 13.7C16.1 14.2 16.1 15.1 15.6 15.6 15.1 16.1 14.2 16.1 13.7 15.6L12 13.8ZM12 2C17.5 2 22 6.5 22 12 22 17.5 17.5 22 12 22 6.5 22 2 17.5 2 12 2 6.5 6.5 2 12 2ZM12 19.4C16.1 19.4 19.4 16.1 19.4 12 19.4 7.9 16.1 4.6 12 4.6 7.9 4.6 4.6 7.9 4.6 12 4.6 16.1 7.9 19.4 12 19.4Z" fill="#DC3545"/></g></g></svg>