<?xml version="1.0" encoding="UTF-8"?>
<svg width="21px" height="18px" viewBox="0 0 21 18" version="1.1" xmlns="http://www.w3.org/2000/svg" xmlns:xlink="http://www.w3.org/1999/xlink">
    <!-- Generator: Sketch 50.2 (55047) - http://www.bohemiancoding.com/sketch -->
    <title>ic_history</title>
    <desc>Created with Sketch.</desc>
    <defs></defs>
    <g id="Assets-ðŸ•" stroke="none" stroke-width="1" fill="none" fill-rule="evenodd">
        <g id="Icons---24px" transform="translate(-25.000000, -123.000000)">
            <g id="ic_history" transform="translate(24.000000, 120.000000)">
                <polygon id="Bounds" fill-opacity="0.1" fill="#FF0000" opacity="0" points="0 0 24 0 24 24 0 24"></polygon>
                <path d="M13,3 C8.03,3 4,7.03 4,12 L1,12 L4.89,15.89 L4.96,16.03 L9,12 L6,12 C6,8.13 9.13,5 13,5 C16.87,5 20,8.13 20,12 C20,15.87 16.87,19 13,19 C11.07,19 9.32,18.21 8.06,16.94 L6.64,18.36 C8.27,19.99 10.51,21 13,21 C17.97,21 22,16.97 22,12 C22,7.03 17.97,3 13,3 L13,3 Z M12,8 L12,13 L16.28,15.54 L17,14.33 L13.5,12.25 L13.5,8 L12,8 L12,8 Z" id="Shape" fill="#FFFFFF"></path>
            </g>
        </g>
    </g>
</svg>