<svg viewBox="0 0 18 18"><path d="M0 0v6h6V0H0zM4 4H2V2h2V4z"/><path d="m12 0v6h6v-6h-6zm4 4h-2v-2h2v2z"/><path d="m0 12v6h6v-6h-6zm4 4h-2v-2h2v2z"/><rect width="3" x="15" y="7" height="2"/><polygon points="13 10 11 10 11 12 10 12 10 14 8 14 8 17 9 17 9 18 11 18 11 16 10 16 10 14 12 14 12 16 14 16 14 14 12 14 12 12 13 12 13 10 15 10 15 8 13 8 "/><polygon points="10 8 10 8 10 4 11 4 11 2 10 2 10 1 11 1 11 0 10 0 9 0 8 0 8 2 9 2 9 4 8 4 8 8 6 8 6 7 4 7 4 8 2 8 2 7 0 7 0 9 2 9 2 10 4 10 4 9 5 9 5 10 8 10 8 12 10 12 10 10 11 10 11 8 "/><rect width="2" x="15" y="11" height="2"/><rect width="2" x="16" y="16" height="2"/></svg>