<?xml version="1.0" encoding="UTF-8"?>
<svg width="16px" height="20px" viewBox="0 0 16 20" version="1.1" xmlns="http://www.w3.org/2000/svg" xmlns:xlink="http://www.w3.org/1999/xlink">
    <!-- Generator: Sketch 50.2 (55047) - http://www.bohemiancoding.com/sketch -->
    <title>ic_rsv_request</title>
    <desc>Created with Sketch.</desc>
    <defs></defs>
    <g id="Assets-ðŸ•" stroke="none" stroke-width="1" fill="none" fill-rule="evenodd">
        <g id="Icons---24px" transform="translate(-28.000000, -74.000000)">
            <g id="ic_rsv_request" transform="translate(24.000000, 72.000000)">
                <polygon id="Bounds" fill-opacity="0.1" fill="#FF0000" opacity="0" points="0 0 24 0 24 24 0 24"></polygon>
                <g id="ic_reservation" transform="translate(4.000000, 2.000000)" fill="#FFFFFF" fill-rule="nonzero">
                    <path d="M13.8461538,3.07692308 C14.6971154,3.07692308 15.3846154,3.76442308 15.3846154,4.61538462 L15.3846154,18.4615385 C15.3846154,19.3125 14.6971154,20 13.8461538,20 L1.53846154,20 C0.6875,20 0,19.3125 0,18.4615385 L0,4.61538462 C0,3.76442308 0.6875,3.07692308 1.53846154,3.07692308 L3.67307692,3.07692308 C3.96153846,2.76442308 4.32692308,2.51923077 4.74519231,2.39903846 C5.10096154,2.29326923 5.375,2.02403846 5.47596154,1.66826923 C5.75,0.706730769 6.63942308,0 7.69230769,0 C8.74519231,0 9.63461538,0.706730769 9.90865385,1.66826923 C10.0144231,2.02403846 10.2836538,2.29807692 10.6394231,2.39903846 C11.0625,2.51923077 11.4278846,2.75961538 11.7115385,3.07692308 L13.8461538,3.07692308 Z M7.70192308,1.53846154 C7.27884615,1.53846154 6.93269231,1.88461538 6.93269231,2.30769231 C6.93269231,2.73076923 7.27884615,3.07692308 7.70192308,3.07692308 C8.125,3.07692308 8.47115385,2.73076923 8.47115385,2.30769231 C8.47115385,1.88461538 8.125,1.53846154 7.70192308,1.53846154 Z M13.8461538,18.4615385 L13.8461538,4.61538462 L12.3076923,4.61538462 L12.3076923,6.15384615 L3.07692308,6.15384615 L3.07692308,4.61538462 L1.53846154,4.61538462 L1.53846154,18.4615385 L13.8461538,18.4615385 Z M7.58617325,15.6004656 L7.55233743,15.5999464 C7.03121251,15.5848885 6.66381411,15.2107789 6.67860063,14.710495 C6.69312073,14.2187784 7.06944432,13.8618036 7.5733849,13.8618036 L7.603624,13.8623229 C8.13926902,13.8777701 8.50253784,14.2481153 8.4874849,14.762808 C8.47256517,15.2559525 8.1021029,15.6004656 7.58617325,15.6004656 Z M9.77817491,11.3610329 C9.65561997,11.5306933 9.38613232,11.7413733 9.04657521,11.999174 L8.67264943,12.2507439 C8.4673699,12.4062551 8.34348285,12.5525499 8.2969919,12.6965081 C8.26035863,12.8098313 8.24237502,12.8398172 8.23917794,13.070358 L8.23864509,13.1289019 L6.81088004,13.1289019 L6.81500961,13.0111651 C6.83246037,12.5272371 6.84471586,12.2425659 7.05052823,12.007352 C7.37343386,11.6379155 8.08571784,11.1909831 8.11595694,11.172031 C8.21799724,11.0971312 8.30405213,11.0118466 8.36812705,10.9207207 C8.51799042,10.7193869 8.58432995,10.5608901 8.58432995,10.4051193 C8.58432995,10.1889873 8.51852327,9.98908139 8.38837525,9.81111323 C8.26328929,9.6393759 8.02563927,9.55240386 7.6819526,9.55240386 C7.34106337,9.55240386 7.10767613,9.65780878 6.96807007,9.8740706 C6.82446765,10.0964335 6.75186717,10.3299599 6.75186717,10.5685488 L6.75186717,10.6278716 L5.27974256,10.6278716 L5.2824068,10.5659527 C5.32037219,9.68727543 5.64221212,9.05458628 6.23860176,8.68540943 C6.61332681,8.4503253 7.07956842,8.33116062 7.62360579,8.33116062 C8.33575656,8.33116062 8.93694182,8.49978254 9.41024367,8.83235324 C9.88980648,9.16933745 10.1330514,9.67403491 10.1330514,10.3324262 C10.1330514,10.7006944 10.0136935,11.0466355 9.77817491,11.3610329 Z" id="Shape"></path>
                </g>
            </g>
        </g>
    </g>
</svg>