<?xml version="1.0" encoding="UTF-8"?>
<svg width="16px" height="20px" viewBox="0 0 16 20" version="1.1" xmlns="http://www.w3.org/2000/svg" xmlns:xlink="http://www.w3.org/1999/xlink">
    <!-- Generator: Sketch 50.2 (55047) - http://www.bohemiancoding.com/sketch -->
    <title>ic_rsv_list</title>
    <desc>Created with Sketch.</desc>
    <defs></defs>
    <g id="Assets-ðŸ•" stroke="none" stroke-width="1" fill="none" fill-rule="evenodd">
        <g id="Icons---24px" transform="translate(-28.000000, -26.000000)">
            <g id="ic_rsv_list" transform="translate(24.000000, 24.000000)">
                <polygon id="Bounds" fill-opacity="0.1" fill="#FF0000" opacity="0" points="0 0 24 0 24 24 0 24"></polygon>
                <g id="ic_reservation" transform="translate(4.000000, 2.000000)" fill="#FFFFFF" fill-rule="nonzero">
                    <path d="M13.8461538,3.07692308 C14.6971154,3.07692308 15.3846154,3.76442308 15.3846154,4.61538462 L15.3846154,18.4615385 C15.3846154,19.3125 14.6971154,20 13.8461538,20 L1.53846154,20 C0.6875,20 0,19.3125 0,18.4615385 L0,4.61538462 C0,3.76442308 0.6875,3.07692308 1.53846154,3.07692308 L3.67307692,3.07692308 C3.96153846,2.76442308 4.32692308,2.51923077 4.74519231,2.39903846 C5.10096154,2.29326923 5.375,2.02403846 5.47596154,1.66826923 C5.75,0.706730769 6.63942308,0 7.69230769,0 C8.74519231,0 9.63461538,0.706730769 9.90865385,1.66826923 C10.0144231,2.02403846 10.2836538,2.29807692 10.6394231,2.39903846 C11.0625,2.51923077 11.4278846,2.75961538 11.7115385,3.07692308 L13.8461538,3.07692308 Z M7.70192308,1.53846154 C7.27884615,1.53846154 6.93269231,1.88461538 6.93269231,2.30769231 C6.93269231,2.73076923 7.27884615,3.07692308 7.70192308,3.07692308 C8.125,3.07692308 8.47115385,2.73076923 8.47115385,2.30769231 C8.47115385,1.88461538 8.125,1.53846154 7.70192308,1.53846154 Z M13.8461538,18.4615385 L13.8461538,4.61538462 L12.3076923,4.61538462 L12.3076923,6.15384615 L3.07692308,6.15384615 L3.07692308,4.61538462 L1.53846154,4.61538462 L1.53846154,18.4615385 L13.8461538,18.4615385 Z M6.62341436,12.6982985 L10.260457,9.12362462 L11.3842617,10.2628356 L6.62341436,14.9335612 L3.9398173,12.4559495 L5.11644326,11.2277317 L6.62341436,12.6982985 Z" id="Shape"></path>
                </g>
            </g>
        </g>
    </g>
</svg>