<?xml version="1.0" encoding="iso-8859-1"?>
<!-- Generator: Adobe Illustrator 19.0.0, SVG Export Plug-In . SVG Version: 6.00 Build 0)  -->
<svg version="1.1" id="Capa_1" xmlns="http://www.w3.org/2000/svg" xmlns:xlink="http://www.w3.org/1999/xlink" x="0px" y="0px"
	 viewBox="0 0 512 512" style="enable-background:new 0 0 512 512;" xml:space="preserve">
<g>
	<g>
		<path d="M224,96c0-53.024-35.808-96-80-96S64,42.976,64,96c0,45.792,26.752,83.936,62.496,93.536L96.32,458.592
			C96.096,460.352,96,462.176,96,464c0,26.496,21.504,48,48,48c26.496,0,48-21.504,48-48c0-1.536-0.064-3.072-0.224-4.576
			l-25.664-271.616C199.456,176.256,224,139.744,224,96z"/>
	</g>
</g>
<g>
	<g>
		<path d="M432,0c-8.832,0-16,7.168-16,16v80c0,8.832-7.168,16-16,16c-8.832,0-16-7.168-16-16V16c0-8.832-7.168-16-16-16
			c-8.832,0-16,7.168-16,16v80c0,8.832-7.168,16-16,16c-8.832,0-16-7.168-16-16V16c0-8.832-7.168-16-16-16c-8.832,0-16,7.168-16,16
			v96c0,38.048,26.752,69.888,62.432,77.92l-30.144,268.672c-0.192,1.76-0.288,3.584-0.288,5.408c0,26.496,21.504,48,48,48
			c26.496,0,48-21.504,48-48c0-1.536-0.064-3.072-0.224-4.576l-25.6-270.944C423.456,178.784,448,148.352,448,112V16
			C448,7.168,440.832,0,432,0z"/>
	</g>
</g>
<g>
</g>
<g>
</g>
<g>
</g>
<g>
</g>
<g>
</g>
<g>
</g>
<g>
</g>
<g>
</g>
<g>
</g>
<g>
</g>
<g>
</g>
<g>
</g>
<g>
</g>
<g>
</g>
<g>
</g>
</svg>
