<?xml version="1.0" encoding="UTF-8"?>
<svg width="200px" height="348px" viewBox="0 0 200 348" version="1.1" xmlns="http://www.w3.org/2000/svg" xmlns:xlink="http://www.w3.org/1999/xlink">
    <!-- Generator: Sketch 50.2 (55047) - http://www.bohemiancoding.com/sketch -->
    <title>4 Make Reservations</title>
    <desc>Created with Sketch.</desc>
    <defs>
        <rect id="path-1" x="0" y="-8.53e-14" width="200" height="348"></rect>
        <rect id="path-3" x="0" y="0" width="156" height="140"></rect>
        <filter x="-28.8%" y="-21.4%" width="157.7%" height="164.3%" filterUnits="objectBoundingBox" id="filter-4">
            <feOffset dx="0" dy="15" in="SourceAlpha" result="shadowOffsetOuter1"></feOffset>
            <feGaussianBlur stdDeviation="12.5" in="shadowOffsetOuter1" result="shadowBlurOuter1"></feGaussianBlur>
            <feColorMatrix values="0 0 0 0 0.879650298   0 0 0 0 0.879650298   0 0 0 0 0.879650298  0 0 0 0.5 0" type="matrix" in="shadowBlurOuter1"></feColorMatrix>
        </filter>
    </defs>
    <g id="Page-1" stroke="none" stroke-width="1" fill="none" fill-rule="evenodd">
        <g id="1.0-Web-Home-Page" transform="translate(-168.000000, -2006.000000)">
            <g id="Section-3---Features" transform="translate(0.000000, 1669.000000)">
                <g id="V1-Model" transform="translate(56.000000, 129.000000)">
                    <g id="4-Make-Reservations" transform="translate(112.000000, 208.000000)">
                        <mask id="mask-2" fill="white">
                            <use xlink:href="#path-1"></use>
                        </mask>
                        <rect stroke="#FFEADC" x="0.5" y="0.5" width="199" height="347"></rect>
                        <g id="BG" opacity="0.180000007" mask="url(#mask-2)">
                            <g transform="translate(-6.000000, 0.000000)">
                                <g id="Group-3">
                                    <rect id="Rectangle-5" fill="#FFB58D" x="0" y="0" width="28.2666667" height="29"></rect>
                                    <rect id="Rectangle-5-Copy" fill="#FF6F43" x="149.042424" y="0" width="28.2666667" height="29" rx="6"></rect>
                                    <rect id="Rectangle-5-Copy-3" fill="#FF6F43" x="183.733333" y="0" width="28.2666667" height="29" rx="6"></rect>
                                    <g id="Group" transform="translate(33.406061, 0.000000)" fill="#FFD5BE">
                                        <rect id="Text" x="0" y="0" width="110.49697" height="9.87234043"></rect>
                                        <rect id="Text-Small" x="0" y="14.1914894" width="110.49697" height="4.93617021"></rect>
                                        <rect id="Text-Small-Copy-2" x="0" y="24.0638298" width="110.49697" height="4.93617021"></rect>
                                    </g>
                                </g>
                                <g id="Group-3-Copy" transform="translate(0.000000, 56.000000)">
                                    <rect id="Rectangle-5" fill="#FFB58D" x="0" y="0" width="28.2666667" height="29"></rect>
                                    <rect id="Rectangle-5-Copy" fill="#FF6F43" x="149.042424" y="0" width="28.2666667" height="29" rx="6"></rect>
                                    <rect id="Rectangle-5-Copy-3" fill="#FF6F43" x="183.733333" y="0" width="28.2666667" height="29" rx="6"></rect>
                                    <g id="Group" transform="translate(33.406061, 0.000000)" fill="#FFD5BE">
                                        <rect id="Text" x="0" y="0" width="110.49697" height="9.87234043"></rect>
                                        <rect id="Text-Small" x="0" y="14.1914894" width="110.49697" height="4.93617021"></rect>
                                        <rect id="Text-Small-Copy-2" x="0" y="24.0638298" width="110.49697" height="4.93617021"></rect>
                                    </g>
                                </g>
                                <g id="Group-3-Copy-2" transform="translate(0.000000, 111.000000)">
                                    <rect id="Rectangle-5" fill="#FFB58D" x="0" y="0" width="28.2666667" height="29"></rect>
                                    <rect id="Rectangle-5-Copy" fill="#FF6F43" x="149.042424" y="0" width="28.2666667" height="29" rx="6"></rect>
                                    <rect id="Rectangle-5-Copy-3" fill="#FF6F43" x="183.733333" y="0" width="28.2666667" height="29" rx="6"></rect>
                                    <g id="Group" transform="translate(33.406061, 0.000000)" fill="#FFD5BE">
                                        <rect id="Text" x="0" y="0" width="110.49697" height="9.87234043"></rect>
                                        <rect id="Text-Small" x="0" y="14.1914894" width="110.49697" height="4.93617021"></rect>
                                        <rect id="Text-Small-Copy-2" x="0" y="24.0638298" width="110.49697" height="4.93617021"></rect>
                                    </g>
                                </g>
                                <g id="Group-3-Copy-3" transform="translate(0.000000, 167.000000)">
                                    <rect id="Rectangle-5" fill="#FFB58D" x="0" y="0" width="28.2666667" height="29"></rect>
                                    <rect id="Rectangle-5-Copy" fill="#FF6F43" x="149.042424" y="0" width="28.2666667" height="29" rx="6"></rect>
                                    <rect id="Rectangle-5-Copy-3" fill="#FF6F43" x="183.733333" y="0" width="28.2666667" height="29" rx="6"></rect>
                                    <g id="Group" transform="translate(33.406061, 0.000000)" fill="#FFD5BE">
                                        <rect id="Text" x="0" y="0" width="110.49697" height="9.87234043"></rect>
                                        <rect id="Text-Small" x="0" y="14.1914894" width="110.49697" height="4.93617021"></rect>
                                        <rect id="Text-Small-Copy-2" x="0" y="24.0638298" width="110.49697" height="4.93617021"></rect>
                                    </g>
                                </g>
                                <g id="Group-3-Copy-4" transform="translate(0.000000, 223.000000)">
                                    <rect id="Rectangle-5" fill="#FFB58D" x="0" y="0" width="28.2666667" height="29"></rect>
                                    <rect id="Rectangle-5-Copy" fill="#FF6F43" x="149.042424" y="0" width="28.2666667" height="29" rx="6"></rect>
                                    <rect id="Rectangle-5-Copy-3" fill="#FF6F43" x="183.733333" y="0" width="28.2666667" height="29" rx="6"></rect>
                                    <g id="Group" transform="translate(33.406061, 0.000000)" fill="#FFD5BE">
                                        <rect id="Text" x="0" y="0" width="110.49697" height="9.87234043"></rect>
                                        <rect id="Text-Small" x="0" y="14.1914894" width="110.49697" height="4.93617021"></rect>
                                        <rect id="Text-Small-Copy-2" x="0" y="24.0638298" width="110.49697" height="4.93617021"></rect>
                                    </g>
                                </g>
                                <g id="Group-3-Copy-5" transform="translate(0.000000, 278.000000)">
                                    <rect id="Rectangle-5" fill="#FFB58D" x="0" y="0" width="28.2666667" height="29"></rect>
                                    <rect id="Rectangle-5-Copy" fill="#FF6F43" x="149.042424" y="0" width="28.2666667" height="29" rx="6"></rect>
                                    <rect id="Rectangle-5-Copy-3" fill="#FF6F43" x="183.733333" y="0" width="28.2666667" height="29" rx="6"></rect>
                                    <g id="Group" transform="translate(33.406061, 0.000000)" fill="#FFD5BE">
                                        <rect id="Text" x="0" y="0" width="110.49697" height="9.87234043"></rect>
                                        <rect id="Text-Small" x="0" y="14.1914894" width="110.49697" height="4.93617021"></rect>
                                        <rect id="Text-Small-Copy-2" x="0" y="24.0638298" width="110.49697" height="4.93617021"></rect>
                                    </g>
                                </g>
                                <g id="Group-3-Copy-6" transform="translate(0.000000, 333.000000)">
                                    <rect id="Rectangle-5" fill="#FFB58D" x="0" y="0" width="28.2666667" height="29"></rect>
                                    <rect id="Rectangle-5-Copy" fill="#FF6F43" x="149.042424" y="0" width="28.2666667" height="29" rx="6"></rect>
                                    <rect id="Rectangle-5-Copy-3" fill="#FF6F43" x="183.733333" y="0" width="28.2666667" height="29" rx="6"></rect>
                                    <g id="Group" transform="translate(33.406061, 0.000000)" fill="#FFD5BE">
                                        <rect id="Text" x="0" y="0" width="110.49697" height="9.87234043"></rect>
                                        <rect id="Text-Small" x="0" y="14.1914894" width="110.49697" height="4.93617021"></rect>
                                    </g>
                                </g>
                            </g>
                        </g>
                        <g id="SMS-Sent" mask="url(#mask-2)">
                            <g transform="translate(23.000000, 111.000000)">
                                <g id="Rectangle">
                                    <use fill="black" fill-opacity="1" filter="url(#filter-4)" xlink:href="#path-3"></use>
                                    <use fill="#FFFFFF" fill-rule="evenodd" xlink:href="#path-3"></use>
                                </g>
                                <g id="SMS-Info" stroke-width="1" fill-rule="evenodd" transform="translate(31.000000, 17.000000)">
                                    <g id="Text" transform="translate(0.000000, 71.000000)" fill="#FFD5BE">
                                        <rect x="-2.84e-14" y="0" width="86.207213" height="7.80659507"></rect>
                                        <rect id="Text-Small" x="-2.84e-14" y="12.1081081" width="86.207213" height="3.90329754"></rect>
                                        <rect id="Text-Small-Copy-4" x="-2.84e-14" y="19.8918919" width="86.207213" height="3.90329754"></rect>
                                        <rect id="Text-Small-Copy-5" x="-2.84e-14" y="27.6756757" width="86.207213" height="3.90329754"></rect>
                                    </g>
                                    <g id="Tickets" transform="translate(13.000000, 0.000000)" fill="#FFB58D" fill-rule="nonzero">
                                        <path d="M56.3509577,31.9666447 C56.0622173,33.4040462 54.7760104,34.4510905 53.2338746,34.5161283 C52.7482658,34.5356397 52.3348422,34.8868441 52.2429046,35.3616204 C52.1444704,35.8363967 52.3872748,36.3176768 52.8269476,36.5192941 C54.2247133,37.1696726 55.0056246,38.6265204 54.710322,40.0638568 L54.4347062,41.4296517 C54.0737808,43.2312001 52.0656575,44.3563548 50.307032,43.927105 C49.814861,43.8100369 49.3095654,43.7189839 48.8108321,43.6214272 C48.0758567,43.4783439 47.3408814,43.3287568 46.605906,43.1856736 C45.6346229,42.99056 44.6634054,42.8020153 43.6922536,42.6069018 C42.5372923,42.3792693 41.3757687,42.145068 40.2208074,41.9174355 C38.9281038,41.6572841 37.6353346,41.4037016 36.3424998,41.1435502 C34.964421,40.8703912 33.5797799,40.5972322 32.201701,40.3175695 C30.7841829,40.0379067 29.366796,39.7517402 27.9559058,39.4720774 C26.5515778,39.1924147 25.1538121,38.9126869 23.7494185,38.6330892 C22.410779,38.366434 21.0720082,38.0997788 19.7333687,37.8331237 C18.5062223,37.5924836 17.2856382,37.3453398 16.0584918,37.1046998 C14.9954024,36.8965786 13.932313,36.6819537 12.8757859,36.4738326 C12.0292518,36.3047342 11.1827177,36.1357008 10.3296212,35.9665374 C9.7455783,35.8494693 9.16146974,35.7324012 8.57749243,35.6153981 C8.30837332,35.5633027 8.03938546,35.5048337 7.77033197,35.4528034 C7.75720741,35.4528034 7.74408285,35.4462346 7.73089267,35.4462346 C7.87526283,36.1226282 7.80964003,36.8445484 7.49465058,37.520942 C6.83179466,38.9387671 5.28965883,39.6801986 3.80664913,39.394032 C3.36697636,39.3094828 2.88792991,39.4720774 2.69762378,39.8753121 L2.10701857,41.1435502 C1.91677807,41.5467198 2.10701857,42.0149923 2.45488504,42.294655 C2.52050784,42.3467504 49.8214233,63.9588275 49.900105,63.9782738 C50.3397778,64.062823 50.8188242,63.9002284 51.0091304,63.4969937 L51.5997356,62.2287557 C51.7900417,61.825586 51.5997356,61.3573135 51.2519347,61.0776508 C50.0707243,60.1475445 49.6375482,58.5020869 50.3004041,57.0843269 C50.9631944,55.6665018 52.5053302,54.9250703 53.9884055,55.2112368 C54.4280127,55.295786 54.9071248,55.1331914 55.0973653,54.7299567 L55.6879705,53.4617187 C55.8782766,53.058484 55.6879705,52.5902766 55.3401696,52.3105488 C54.1589592,51.3805075 53.7258487,49.73505 54.388639,48.3172899 C55.0514293,46.8995298 56.5935651,46.1580333 58.0766405,46.4441999 C58.5163132,46.5287491 58.9953597,46.3661544 59.1856658,45.9629198 L59.776271,44.6946817 C59.9665115,44.2914471 59.776271,43.8231746 59.4284046,43.5435118 C58.2471941,42.6134706 57.8140836,40.968013 58.4768739,39.5501879 C59.1397299,38.1323628 60.6818657,37.3909964 62.1648754,37.6770979 C62.6045482,37.7616471 63.0835946,37.5990524 63.2739007,37.1958828 L63.9235008,35.7910003 C64.113807,35.3877656 63.9366254,34.9129893 63.529764,34.7244446 L56.4622539,31.4920635 L56.3509577,31.9666447 Z" id="Shape"></path>
                                        <path d="M0.610501672,31.4941835 C0.687941008,31.5330731 50.9008972,41.6507937 50.9847899,41.6507937 C51.4236773,41.6313488 51.8495291,41.3591214 51.9334217,40.9313355 L52.2044594,39.5701984 C52.288352,39.1359309 52.0044078,38.7211082 51.6043045,38.5331417 C50.2620227,37.8979444 49.468205,36.4071752 49.7715736,34.8775164 C50.0748777,33.3478577 51.3848931,32.2783928 52.869147,32.2135768 C53.3079699,32.194132 53.7338863,31.9219046 53.8177789,31.4941186 L54.0178305,30.4959515 L54.0888811,30.1265 C54.1727737,29.6922324 53.888765,29.2774097 53.4887263,29.0894432 C52.1463799,28.4542459 51.3526267,26.9634767 51.6559953,25.4338828 C51.9592994,23.9041592 53.2693148,22.8346944 54.7535687,22.7698783 C55.1923916,22.7504335 55.618308,22.4782061 55.7022006,22.0504202 L55.9732383,20.6892831 C56.0571309,20.2550156 55.7731221,19.8401929 55.3730189,19.6522263 C54.0307371,19.017029 53.2369839,17.5262599 53.5403525,15.9966011 C53.8436565,14.4669423 55.153672,13.3974775 56.6379259,13.3326615 C57.0767488,13.3132166 57.5026006,13.0409892 57.5865578,12.6132033 L57.8897973,11.1029893 C57.9737545,10.6687218 57.696199,10.2474175 57.2638939,10.1631566 C57.2638939,10.1631566 6.8057131,0 6.75408687,0 C6.37979675,0 6.05067957,0.265745804 5.97324023,0.641678894 L5.66993617,2.15189286 C5.58604355,2.58616039 5.86998779,3.00098311 6.27009102,3.18894965 C7.61237285,3.82414694 8.40612605,5.31491609 8.10282198,6.84457487 C7.79951791,8.37423364 6.48950248,9.44369847 5.00524853,9.50851452 C4.56636109,9.52795933 4.14050928,9.80018674 4.05661666,10.2279727 L3.78557899,11.5891097 C3.70168637,12.0233773 3.98563061,12.4382 4.38573384,12.6261665 C5.72801567,13.2613638 6.5218334,14.752133 6.2184648,16.2817917 C5.91516073,17.8114505 4.6051453,18.8809153 3.12089135,18.9457314 C2.68206845,18.9651762 2.2561521,19.2374036 2.17225948,19.6651895 L1.90122181,21.0263266 C1.81732919,21.4605941 2.10133796,21.8754168 2.50137666,22.0633834 C3.84372302,22.6985807 4.63747622,24.1893498 4.33410762,25.7190086 C4.03080355,27.2487322 2.72078812,28.318197 1.23653417,28.3830131 C0.797711267,28.4024579 0.371794918,28.6746853 0.287902304,29.1024712 L0.0168646271,30.4636083 C-0.0735457979,30.8978758 0.210333902,31.3062169 0.610501672,31.4941835 Z M43.6215996,14.8818299 C43.7958381,14.0068132 44.6476708,13.436432 45.5188634,13.6114353 C46.3900559,13.7864386 46.9579444,14.6420105 46.7837059,15.5170272 L44.6541241,26.1598225 L43.3441087,32.7192068 C43.18923,33.4905178 42.5180891,34.0220742 41.7630556,34.0220742 C41.6597386,34.0220742 41.5500974,34.009111 41.4468449,33.9896662 C40.5756524,33.8146629 40.0077639,32.959091 40.1820025,32.0840743 L41.6468966,24.7663423 L43.6215996,14.8818299 Z M14.5302223,9.01597735 C14.7044609,8.14096068 15.5562936,7.57057944 16.4274861,7.74558278 C17.2986786,7.92058611 17.8665671,8.77615797 17.6923286,9.65117464 L16.9566549,13.3262447 L16.1242466,17.4939167 L15.4531056,20.8513881 L14.2592492,26.8533543 C14.1044351,27.6246653 13.4332296,28.1562217 12.6781961,28.1562217 C12.5749436,28.1562217 12.4652379,28.1432585 12.36205,28.1238137 C12.3168771,28.1172673 12.2717041,28.104304 12.2329844,28.0914056 C11.432778,27.8580031 10.935811,27.0478024 11.1036608,26.2182218 L11.3423675,25.0061617 L11.9683355,21.8690649 L14.5302223,9.01597735 Z" id="Shape"></path>
                                    </g>
                                    <g id="Check" transform="translate(62.000000, 2.000000)">
                                        <circle id="Oval-2" stroke="#FF6F43" stroke-width="2" fill="#FFFFFF" cx="15.5" cy="15.5" r="15.5"></circle>
                                        <g id="checked" transform="translate(7.000000, 9.000000)" fill="#FF6F43" fill-rule="nonzero">
                                            <path d="M0.195,7.15 C0.065,7.02 0,6.825 0,6.695 C0,6.565 0.065,6.37 0.195,6.24 L1.105,5.33 C1.365,5.07 1.755,5.07 2.015,5.33 L2.08,5.395 L5.655,9.23 C5.785,9.36 5.98,9.36 6.11,9.23 L14.82,0.195 L14.885,0.195 C15.145,-0.065 15.535,-0.065 15.795,0.195 L16.705,1.105 C16.965,1.365 16.965,1.755 16.705,2.015 L6.305,12.805 C6.175,12.935 6.045,13 5.85,13 C5.655,13 5.525,12.935 5.395,12.805 L0.325,7.345 L0.195,7.15 Z" id="Shape"></path>
                                        </g>
                                    </g>
                                </g>
                            </g>
                        </g>
                    </g>
                </g>
            </g>
        </g>
    </g>
</svg>