<?xml version="1.0" encoding="UTF-8"?>
<svg width="16px" height="20px" viewBox="0 0 16 20" version="1.1" xmlns="http://www.w3.org/2000/svg" xmlns:xlink="http://www.w3.org/1999/xlink">
    <!-- Generator: Sketch 50.2 (55047) - http://www.bohemiancoding.com/sketch -->
    <title>ic_rsv_settings_w</title>
    <desc>Created with Sketch.</desc>
    <defs></defs>
    <g id="Assets-ðŸ•" stroke="none" stroke-width="1" fill="none" fill-rule="evenodd">
        <g id="Icons---24px" transform="translate(-220.000000, -26.000000)" fill-rule="nonzero">
            <g id="ic_rsv_settings_w" transform="translate(216.000000, 24.000000)">
                <polygon id="Shape" fill-opacity="0.1" fill="#000000" opacity="0" points="0 0 24 0 24 24 0 24"></polygon>
                <g id="Group" transform="translate(4.000000, 2.000000)" fill="#FFFFFF">
                    <path d="M13.8,3.1 C14.7,3.1 15.4,3.8 15.4,4.6 L15.4,18.5 C15.4,19.3 14.7,20 13.8,20 L1.5,20 C0.7,20 0,19.3 0,18.5 L0,4.6 C0,3.8 0.7,3.1 1.5,3.1 L3.7,3.1 C4,2.8 4.3,2.5 4.7,2.4 C5.1,2.3 5.4,2 5.5,1.7 C5.8,0.7 6.6,0 7.7,0 C8.7,0 9.6,0.7 9.9,1.7 C10,2 10.3,2.3 10.6,2.4 C11.1,2.5 11.4,2.8 11.7,3.1 L13.8,3.1 Z M7.7,1.5 C7.3,1.5 6.9,1.9 6.9,2.3 C6.9,2.7 7.3,3.1 7.7,3.1 C8.1,3.1 8.5,2.7 8.5,2.3 C8.5,1.9 8.1,1.5 7.7,1.5 Z M13.8,18.5 L13.8,4.6 L12.3,4.6 L12.3,6.2 L3.1,6.2 L3.1,4.6 L1.5,4.6 L1.5,18.5 L13.8,18.5 Z M7.7,16.5 C5.2,16.5 3.2,14.5 3.2,12 C3.2,9.5 5.2,7.5 7.7,7.5 C10.2,7.5 12.2,9.5 12.2,12 C12.2,12.8 12,13.6 11.6,14.3 L9.6,12.3 C9.7,12 9.8,11.6 9.8,11.3 C9.8,10.5 9.5,9.8 9,9.3 C8.5,8.8 7.8,8.5 7.1,8.5 C6.8,8.5 6.6,8.5 6.3,8.6 C6.2,8.6 6.1,8.7 6.1,8.8 C6.1,8.9 6.1,9 6.2,9.1 C6.2,9.1 7.2,10.1 7.5,10.4 C7.5,10.5 7.5,10.5 7.5,10.6 C7.5,10.9 7.4,11.4 7.4,11.5 C7.4,11.5 7.4,11.6 7.4,11.6 C7.3,11.6 7.3,11.6 7.3,11.6 C7.2,11.6 6.7,11.7 6.4,11.7 L6.3,11.7 C6.3,11.7 6.3,11.7 6.3,11.7 C6.3,11.7 6.2,11.7 6.2,11.7 C5.8,11.3 4.9,10.4 4.9,10.4 C4.8,10.3 4.7,10.3 4.7,10.3 C4.5,10.3 4.4,10.4 4.4,10.5 C4.1,11.5 4.4,12.5 5.1,13.2 C5.6,13.7 6.3,14 7.1,14 C7.4,14 7.8,13.9 8.1,13.8 L10.1,15.8 C9.4,16.2 8.6,16.5 7.7,16.5 Z" id="Shape"></path>
                </g>
            </g>
        </g>
    </g>
</svg>