<svg xmlns="http://www.w3.org/2000/svg" viewBox="0 0 469 469"><path d="M287.4 374.5H40.8V83.5h160.1V51.7H24.9c-8.8 0-15.9 7.1-15.9 15.9v385.6c0 8.8 7.1 15.9 15.9 15.9h278.4c8.8 0 15.9-7.1 15.9-15.9V214l-31.8 18.2V374.5zM164.1 394.8c13.5 0 24.5 11 24.5 24.5 0 13.5-11 24.5-24.5 24.5 -13.5 0-24.5-11-24.5-24.5C139.6 405.8 150.6 394.8 164.1 394.8z"/><path d="M434.2 0H250.6c-14.2 0-25.8 11.6-25.8 25.8v116.9c0 14.3 11.5 25.8 25.8 25.8h27.7l-20.4 40.9c-1.5 2.3-1.1 5.3 0.8 7.2 1.1 1.1 2.5 1.6 4 1.6 1.1 0 2.2-0.3 3.2-1l85-48.7h83.4c14.2 0 25.8-11.5 25.8-25.8V25.8C460 11.6 448.5 0 434.2 0zM291 103.5c-10.7 0-19.3-8.6-19.3-19.3 0-10.7 8.6-19.3 19.3-19.3 10.6 0 19.3 8.6 19.3 19.3C310.3 94.9 301.6 103.5 291 103.5zM342.4 103.5c-10.7 0-19.3-8.6-19.3-19.3 0-10.7 8.6-19.3 19.3-19.3 10.7 0 19.3 8.6 19.3 19.3C361.7 94.9 353 103.5 342.4 103.5zM393.8 103.5c-10.6 0-19.3-8.6-19.3-19.3 0-10.7 8.6-19.3 19.3-19.3 10.7 0 19.3 8.6 19.3 19.3C413.1 94.9 404.5 103.5 393.8 103.5z"/></svg>