<?xml version="1.0" encoding="UTF-8"?>
<svg width="20px" height="18px" viewBox="0 0 20 18" version="1.1" xmlns="http://www.w3.org/2000/svg" xmlns:xlink="http://www.w3.org/1999/xlink">
    <!-- Generator: Sketch 50.2 (55047) - http://www.bohemiancoding.com/sketch -->
    <title>ic_settings_tv_w</title>
    <desc>Created with Sketch.</desc>
    <defs></defs>
    <g id="Assets-ðŸ•" stroke="none" stroke-width="1" fill="none" fill-rule="evenodd">
        <g id="Icons---24px" transform="translate(-458.000000, -27.000000)">
            <g id="ic_settings_tv_w" transform="translate(456.000000, 24.000000)">
                <polygon id="Bounds" fill-opacity="0.1" fill="#FF0000" opacity="0" points="0 0 24 0 24 24 0 24"></polygon>
                <path d="M20.4070796,3 L3.59292035,3 C2.71317022,3 2,3.71837585 2,4.59292035 L2,15.7641853 C2,16.6439355 2.71317022,17.3571057 3.59292035,17.3571057 L9.93857366,17.3571057 L8.41332639,18.9552317 C8.30400833,19.1061947 8.24674649,19.2883915 8.24674649,19.4705882 L8.24674649,20.0119729 C8.24674649,20.5013014 8.64237376,20.9021343 9.13690786,20.9021343 L14.8630921,20.9021343 C15.3524206,20.9021343 15.7532535,20.506507 15.7532535,20.0119729 L15.7532535,19.4705882 C15.7532535,19.2831858 15.6959917,19.1061947 15.5866736,18.9552317 L14.0614263,17.3571057 L20.4070796,17.3571057 C21.2868298,17.3571057 22,16.6439355 22,15.7641853 L22,4.59292035 C22,3.71837585 21.2816242,3 20.4070796,3 Z M20.2196773,15.5819885 L12,15.5819885 C12,15.5819885 12,15.5819885 12,15.5819885 C12,15.5819885 12,15.5819885 12,15.5819885 L3.78032275,15.5819885 L3.78032275,4.78032275 L20.2196773,4.78032275 L20.2196773,15.5819885 Z" id="Shape" fill="#FFFFFF" fill-rule="nonzero"></path>
            </g>
        </g>
    </g>
</svg>