<?xml version="1.0" encoding="UTF-8"?>
<svg width="16px" height="20px" viewBox="0 0 16 20" version="1.1" xmlns="http://www.w3.org/2000/svg" xmlns:xlink="http://www.w3.org/1999/xlink">
    <!-- Generator: Sketch 50.2 (55047) - http://www.bohemiancoding.com/sketch -->
    <title>ic_rsv_request_w</title>
    <desc>Created with Sketch.</desc>
    <defs></defs>
    <g id="Assets-ðŸ•" stroke="none" stroke-width="1" fill="none" fill-rule="evenodd">
        <g id="Icons---24px" transform="translate(-172.000000, -26.000000)" fill-rule="nonzero">
            <g id="ic_rsv_request_w" transform="translate(168.000000, 24.000000)">
                <polygon id="Shape" fill-opacity="0.1" fill="#FF0000" opacity="0" points="0 0 24 0 24 24 0 24"></polygon>
                <g id="Group" transform="translate(4.000000, 2.000000)" fill="#FFFFFF">
                    <path d="M13.8,3.1 C14.7,3.1 15.4,3.8 15.4,4.6 L15.4,18.5 C15.4,19.3 14.7,20 13.8,20 L1.5,20 C0.7,20 0,19.3 0,18.5 L0,4.6 C0,3.8 0.7,3.1 1.5,3.1 L3.7,3.1 C4,2.8 4.3,2.5 4.7,2.4 C5.1,2.3 5.4,2 5.5,1.7 C5.8,0.7 6.6,0 7.7,0 C8.7,0 9.6,0.7 9.9,1.7 C10,2 10.3,2.3 10.6,2.4 C11.1,2.5 11.4,2.8 11.7,3.1 L13.8,3.1 Z M7.7,1.5 C7.3,1.5 6.9,1.9 6.9,2.3 C6.9,2.7 7.3,3.1 7.7,3.1 C8.1,3.1 8.5,2.7 8.5,2.3 C8.5,1.9 8.1,1.5 7.7,1.5 Z M13.8,18.5 L13.8,4.6 L12.3,4.6 L12.3,6.2 L3.1,6.2 L3.1,4.6 L1.5,4.6 L1.5,18.5 L13.8,18.5 Z M7.6,15.6 C7,15.6 6.7,15.2 6.7,14.7 C6.7,14.2 7.1,13.9 7.6,13.9 C8.1,13.9 8.5,14.2 8.5,14.8 C8.5,15.3 8.1,15.6 7.6,15.6 Z M9.8,11.4 C9.7,11.5 9.4,11.7 9,12 L8.7,12.3 C8.5,12.4 8.3,12.6 8.3,12.7 C8.3,12.8 8.2,12.8 8.2,13.1 L6.8,13.1 L6.8,13 C6.8,12.5 6.8,12.2 7.1,12 C7.4,11.6 8.1,11.2 8.1,11.2 C8.2,11.1 8.3,11 8.4,10.9 C8.5,10.7 8.6,10.6 8.6,10.4 C8.6,10.2 8.5,10 8.4,9.8 C8.3,9.6 8,9.6 7.7,9.6 C7.3,9.6 7.1,9.7 7,9.9 C6.8,10.1 6.8,10.3 6.8,10.6 L5.3,10.6 C5.3,9.7 5.6,9.1 6.2,8.7 C6.6,8.5 7.1,8.3 7.6,8.3 C8.3,8.3 8.9,8.5 9.4,8.8 C9.9,9.2 10.1,9.7 10.1,10.3 C10.1,10.7 10,11 9.8,11.4 Z" id="Shape"></path>
                </g>
            </g>
        </g>
    </g>
</svg>