<svg xmlns="http://www.w3.org/2000/svg" width="160" height="200" viewBox="0 0 16 20"><g fill="#000"><g transform="translate(-76 -26)translate(72 24)"><polygon points="0 0 24 0 24 24 0 24" style="fill-opacity:0.1;fill:#000;opacity:0"/><g fill="#000"><path d="M17.8 5.1C18.7 5.1 19.4 5.8 19.4 6.6L19.4 20.5C19.4 21.3 18.7 22 17.8 22L5.5 22C4.7 22 4 21.3 4 20.5L4 6.6C4 5.8 4.7 5.1 5.5 5.1L7.7 5.1C8 4.8 8.3 4.5 8.7 4.4 9.1 4.3 9.4 4 9.5 3.7 9.8 2.7 10.6 2 11.7 2 12.7 2 13.6 2.7 13.9 3.7 14 4 14.3 4.3 14.6 4.4 15.1 4.5 15.4 4.8 15.7 5.1L17.8 5.1ZM11.7 3.5C11.3 3.5 10.9 3.9 10.9 4.3 10.9 4.7 11.3 5.1 11.7 5.1 12.1 5.1 12.5 4.7 12.5 4.3 12.5 3.9 12.1 3.5 11.7 3.5ZM17.8 20.5L17.8 6.6 16.3 6.6 16.3 8.2 7.1 8.2 7.1 6.6 5.5 6.6 5.5 20.5 17.8 20.5ZM11.7 18.5C9.2 18.5 7.2 16.5 7.2 14 7.2 11.5 9.2 9.5 11.7 9.5 14.2 9.5 16.2 11.5 16.2 14 16.2 14.8 16 15.6 15.6 16.3L13.6 14.3C13.7 14 13.8 13.6 13.8 13.3 13.8 12.5 13.5 11.8 13 11.3 12.5 10.8 11.8 10.5 11.1 10.5 10.8 10.5 10.6 10.5 10.3 10.6 10.2 10.6 10.1 10.7 10.1 10.8 10.1 10.9 10.1 11 10.2 11.1 10.2 11.1 11.2 12.1 11.5 12.4 11.5 12.5 11.5 12.5 11.5 12.6L11.5 12.6C11.5 12.9 11.4 13.4 11.4 13.5 11.4 13.5 11.4 13.6 11.4 13.6 11.3 13.6 11.3 13.6 11.3 13.6 11.2 13.6 10.7 13.7 10.4 13.7L10.4 13.7 10.3 13.7C10.3 13.7 10.3 13.7 10.3 13.7 10.3 13.7 10.2 13.7 10.2 13.7 9.8 13.3 8.9 12.4 8.9 12.4 8.8 12.3 8.7 12.3 8.7 12.3 8.5 12.3 8.4 12.4 8.4 12.5 8.1 13.5 8.4 14.5 9.1 15.2 9.6 15.7 10.3 16 11.1 16 11.4 16 11.8 15.9 12.1 15.8L14.1 17.8C13.4 18.2 12.6 18.5 11.7 18.5Z"/></g></g></g></svg>
