<?xml version="1.0" encoding="UTF-8"?>
<svg width="20px" height="16px" viewBox="0 0 20 16" version="1.1" xmlns="http://www.w3.org/2000/svg" xmlns:xlink="http://www.w3.org/1999/xlink">
    <!-- Generator: Sketch 50.2 (55047) - http://www.bohemiancoding.com/sketch -->
    <title>ic_settings_qgroup_w</title>
    <desc>Created with Sketch.</desc>
    <defs></defs>
    <g id="Assets-ðŸ•" stroke="none" stroke-width="1" fill="none" fill-rule="evenodd">
        <g id="Icons---24px" transform="translate(-362.000000, -28.000000)">
            <g id="ic_settings_qgroup_w" transform="translate(360.000000, 24.000000)">
                <polygon id="Bounds" fill-opacity="0.1" fill="#FF0000" opacity="0" points="0 0 24 0 24 24 0 24"></polygon>
                <path d="M19.1852128,12.1015593 C20.7354407,12.1015593 22,13.3661186 22,14.9201553 L22,18.0282288 C22,18.9576038 21.2458351,19.7155776 20.3126513,19.7155776 L17.8178129,19.7155776 C17.8787555,19.5403675 17.9130357,19.3499219 17.9130357,19.1518583 L17.9130357,13.4499147 C17.9130357,12.9776094 17.8292396,12.5243487 17.6768831,12.1015593 L19.1852128,12.1015593 Z M6.0869643,13.4499147 L6.0869643,19.1480494 C6.0869643,19.3461129 6.12124453,19.5365586 6.18218714,19.7117686 L3.68734873,19.7117686 C2.75797381,19.7117686 2,18.9576038 2,18.0244199 L2,14.9163464 C2,13.3661186 3.26075041,12.1015593 4.81478716,12.1015593 L6.32311695,12.1015593 C6.1707604,12.5205397 6.0869643,12.9776094 6.0869643,13.4499147 Z M13.7253495,10.6351275 C15.2755774,10.6351275 16.5401367,11.8996868 16.5439456,13.4537236 L16.5439456,19.1518583 C16.5439456,19.4641893 16.2925573,19.7155776 15.9802264,19.7155776 L8.02721476,19.7155776 C7.71488385,19.7155776 7.46349555,19.4641893 7.46349555,19.1518583 L7.46349555,13.4499147 C7.46349555,11.8996868 8.72424595,10.6351275 10.2782827,10.6351275 L13.7253495,10.6351275 Z M11.7731046,4 C13.3749477,4 14.6793057,5.30435797 14.6727676,6.90620109 C14.6727676,7.99153152 14.0745282,8.94283019 13.1886109,9.43972847 C12.7701702,9.6783704 12.2863482,9.81240217 11.7698355,9.81240217 C11.2565919,9.81240217 10.7727699,9.67510133 10.3510602,9.43972847 C9.4651429,8.94283019 8.86690353,7.99153152 8.86690353,6.90620109 C8.86690353,5.30435797 10.1712615,4 11.7731046,4 Z M5.638645,7.15758938 C6.8071813,7.15758938 7.75602003,8.10642812 7.75602003,9.27496442 C7.75602003,9.63475898 7.6668674,9.97226537 7.50766627,10.2683795 C7.28160066,10.6918545 6.91543806,11.0293609 6.47285892,11.2204022 C6.21813711,11.331843 5.9347591,11.3923395 5.638645,11.3923395 C4.4701087,11.3923395 3.52126996,10.4435007 3.52126996,9.27496442 C3.52126996,8.10642812 4.4701087,7.15758938 5.638645,7.15758938 Z M18.3604165,7.15758938 C19.5257687,7.15758938 20.4777915,8.10642812 20.4777915,9.27496442 C20.4777915,10.4435007 19.5289528,11.3923395 18.3604165,11.3923395 C18.0643024,11.3923395 17.7809243,11.331843 17.5262025,11.2204022 C17.0836234,11.0293609 16.7174608,10.6918545 16.4913952,10.2683795 C16.3321941,9.97226537 16.2430414,9.63475898 16.2430414,9.27496442 C16.2430414,8.10642812 17.1918802,7.15758938 18.3604165,7.15758938 Z" id="Combined-Shape" fill="#FFFFFF" fill-rule="nonzero"></path>
            </g>
        </g>
    </g>
</svg>