<?xml version="1.0" encoding="UTF-8"?>
<svg width="18px" height="18px" viewBox="0 0 18 18" version="1.1" xmlns="http://www.w3.org/2000/svg" xmlns:xlink="http://www.w3.org/1999/xlink">
    <!-- Generator: Sketch 50.2 (55047) - http://www.bohemiancoding.com/sketch -->
    <title>ic_settings_qr_w</title>
    <desc>Created with Sketch.</desc>
    <defs></defs>
    <g id="Assets-ðŸ•" stroke="none" stroke-width="1" fill="none" fill-rule="evenodd">
        <g id="Icons---24px" transform="translate(-411.000000, -27.000000)">
            <g id="ic_settings_qr_w" transform="translate(408.000000, 24.000000)">
                <polygon id="Bounds" fill-opacity="0.1" fill="#FF0000" opacity="0" points="0 0 24 0 24 24 0 24"></polygon>
                <g id="ic_qr" transform="translate(3.000000, 3.000000)" fill="#FFFFFF" fill-rule="nonzero">
                    <path d="M0,0 L0,6 L6,6 L6,0 L0,0 Z M4,4 L2,4 L2,2 L4,2 L4,4 Z" id="Shape"></path>
                    <path d="M12,0 L12,6 L18,6 L18,0 L12,0 Z M16,4 L14,4 L14,2 L16,2 L16,4 Z" id="Shape"></path>
                    <path d="M0,12 L0,18 L6,18 L6,12 L0,12 Z M4,16 L2,16 L2,14 L4,14 L4,16 Z" id="Shape"></path>
                    <path d="M15,9 L15,10 L13,10 L13,12 L12,12 L12,14 L14,14 L14,16 L12,16 L12,14 L10,14 L10,16 L11,16 L11,18 L9,18 L9,17 L8,17 L8,14 L10,14 L10,12 L11,12 L11,10 L13,10 L13,8 L15,8 L15,7 L18,7 L18,9 L15,9 Z M10,8 L11,8 L11,10 L10,10 L10,12 L8,12 L8,10 L5,10 L5,9 L4,9 L4,10 L2,10 L2,9 L0,9 L0,7 L2,7 L2,8 L4,8 L4,7 L6,7 L6,8 L8,8 L8,4 L9,4 L9,2 L8,2 L8,0 L9,0 L10,0 L11,0 L11,1 L10,1 L10,2 L11,2 L11,4 L10,4 L10,8 Z M15,11 L17,11 L17,13 L15,13 L15,11 Z M16,16 L18,16 L18,18 L16,18 L16,16 Z" id="Combined-Shape"></path>
                </g>
            </g>
        </g>
    </g>
</svg>