<svg xmlns="http://www.w3.org/2000/svg" width="402" height="402" viewBox="0 0 402 402"><path d="M357.5 190.7c-5.3-5.3-11.8-8-19.4-8h-9.1v-54.8c0-35-12.6-65.1-37.7-90.2C266.1 12.6 236 0 201 0c-35 0-65.1 12.6-90.2 37.7C85.7 62.8 73.1 92.9 73.1 127.9v54.8h-9.1c-7.6 0-14.1 2.7-19.4 8 -5.3 5.3-8 11.8-8 19.4V374.6c0 7.6 2.7 14.1 8 19.4 5.3 5.3 11.8 8 19.4 8H338c7.6 0 14.1-2.7 19.4-8 5.3-5.3 8-11.8 8-19.4V210.1C365.5 202.5 362.8 196.1 357.5 190.7zM274.1 182.7H127.9v-54.8c0-20.2 7.1-37.4 21.4-51.7 14.3-14.3 31.5-21.4 51.7-21.4 20.2 0 37.4 7.1 51.7 21.4 14.3 14.3 21.4 31.5 21.4 51.7V182.7z"/></svg>