<svg xmlns="http://www.w3.org/2000/svg" viewBox="0 0 416 416"><rect x="112" y="176" width="192" height="32"/><rect x="112" y="240" width="192" height="32"/><rect x="112" y="304" width="192" height="32"/><path d="M336 64h-44.4c-5.9-6.6-13.5-11.6-22.3-14.1 -7.4-2.1-13-7.8-15.2-15.2C248.4 14.7 229.9 0 208 0c-21.9 0-40.4 14.7-46.1 34.7 -2.1 7.4-7.8 13-15.2 15.2 -8.7 2.5-16.3 7.6-22.3 14.1H80C62.3 64 48 78.3 48 96v288c0 17.7 14.3 32 32 32h256c17.7 0 32-14.3 32-32V96C368 78.3 353.7 64 336 64zM208.2 32c8.8 0 16 7.2 16 16 0 8.8-7.2 16-16 16s-16-7.2-16-16C192.2 39.2 199.4 32 208.2 32zM336 384H80V96h32v32h192V96h32V384z"/></svg>