<svg xmlns="http://www.w3.org/2000/svg" viewBox="0 0 494.6 494.6"><path d="M492 79.2c-2.8-4.6-7.4-7.9-12.6-9L199.2 2.7c-9.2-1.8-18.3 3.3-21.5 12.1L70.8 286.2l35.7 13 101.2-258L451.1 103.3c-15.2 47.1-51.4 145.5-86.1 237.1 -30.2 79.9-47.6 107.3-80.7 112.9 0 0-0.1-0.1-0.1-0.1 -67.6 9.5-66.4-76.7-66.4-76.7L2.1 289.3C-13.3 386.5 61.4 409.9 61.4 409.9l158 71.8c0 0 24.7 11.8 51.5 10.6 72.3-1.7 97.7-54.2 129.6-138.4 46-121.6 92.7-257.8 93.2-259.3C495.4 89.4 494.7 83.8 492 79.2z"/><path d="M364.3 188.6c1.6 0.5 3.4 0.7 5 0.7 8.3 0 15.9-5.5 18.3-14 2.8-10.1-3.2-20.6-13.3-23.3l-82.2-25.4c-10-2.8-20.6 3.2-23.3 13.3 -2.8 10.1 3.2 20.6 13.3 23.3L364.3 188.6z"/><path d="M235.8 215.9c-3.3 10 2.1 20.7 12 24l81.8 29.2c2 0.7 3.9 1 5.9 1 8 0 15.5-5 18.1-13 3.3-9.9-2-20.7-12-24l-81.8-29.2C249.8 200.7 239.1 206 235.8 215.9z"/><path d="M228.6 283.2c-10-3.3-20.7 2.1-24 12.1 -3.3 9.9 2.2 20.7 12.1 23.9l82 29.1c2 0.7 3.9 1 5.9 1 8 0 15.4-5.1 18-13 3.3-10-2.2-20.7-12.1-24L228.6 283.2z"/><path d="M225.6 104.5c11.6 0 21 9.2 21 20.5 0 11.3-9.4 20.5-21 20.5 -11.6 0-21.1-9.2-21.1-20.5C204.5 113.7 213.9 104.5 225.6 104.5z"/><path d="M195.8 180.6c11.6 0 21 9.2 21 20.4 0 11.3-9.4 20.4-21 20.4 -11.6 0-21.1-9.2-21.1-20.4C174.7 189.7 184.2 180.6 195.8 180.6z"/><path d="M164 259c11.6 0 21.1 9.2 21.1 20.5 0 11.3-9.4 20.4-21.1 20.4 -11.6 0-21.1-9.1-21.1-20.4C143 268.2 152.4 259 164 259z"/></svg>