<?xml version="1.0" encoding="UTF-8"?>
<svg width="360px" height="124px" viewBox="0 0 360 124" version="1.1" xmlns="http://www.w3.org/2000/svg" xmlns:xlink="http://www.w3.org/1999/xlink">
    <!-- Generator: Sketch 48.2 (47327) - http://www.bohemiancoding.com/sketch -->
    <title>Kyoala Copy</title>
    <desc>Created with Sketch.</desc>
    <defs></defs>
    <g id="Artboard" stroke="none" stroke-width="1" fill="none" fill-rule="evenodd" transform="translate(-117.000000, -52.000000)">
        <g id="Logo_2" transform="translate(117.000000, 52.000000)" fill="#FFFFFF">
            <path d="M59.1793629,83.84375 C59.1793629,86.0312609 58.6340082,87.8085869 57.5432825,89.1757812 C56.4525569,90.5429756 54.777539,91.2265625 52.5181787,91.2265625 C50.7262722,91.2265625 49.0707313,90.679693 47.5515062,89.5859375 C46.0322812,88.492182 44.6299406,87.1445393 43.3444425,85.5429688 C42.0589444,83.9413982 40.9292812,82.2421965 39.955419,80.4453125 C38.9815568,78.6484285 38.1830017,77.0859441 37.5597299,75.7578125 C35.9236414,72.4765461 34.3070544,69.1953289 32.7099204,65.9140625 C31.1127863,62.6327961 29.5351532,59.3125168 27.9769737,55.953125 L20.9652008,60.2890625 C21.0431098,62.5546988 20.9262481,64.8203012 20.6146122,67.0859375 C20.3029763,69.3515738 20.0692529,71.6171762 19.9134349,73.8828125 C19.7576169,75.4453203 19.5044166,77.1445221 19.1538262,78.9804688 C18.8032358,80.8164154 18.2384042,82.5351482 17.4593144,84.1367188 C16.6802246,85.7382893 15.6284692,87.085932 14.3040166,88.1796875 C12.979564,89.273443 11.3435,89.8203125 9.39577562,89.8203125 C7.60386916,89.8203125 6.1236208,89.4492225 4.95498615,88.7070312 C3.7863515,87.96484 2.83198085,87.0078184 2.09184557,85.8359375 C1.35171029,84.6640566 0.825832583,83.3359449 0.514196676,81.8515625 C0.202560769,80.3671801 0.0467451524,78.8437578 0.0467451524,77.28125 L0.0467451524,76.34375 C0.0467451524,71.734352 0.299945529,67.105492 0.806353878,62.4570312 C1.31276223,57.8085705 1.64387041,53.1406484 1.79968837,48.453125 C1.95550632,42.2812191 2.15027584,36.1094059 2.38400277,29.9375 C2.6177297,23.7655941 2.92936093,17.5937809 3.31890582,11.421875 C3.39681479,10.015618 3.63053822,8.64844414 4.0200831,7.3203125 C4.40962799,5.99218086 4.99393655,4.80078652 5.77302632,3.74609375 C6.55211608,2.69140098 7.50648673,1.85156563 8.6361669,1.2265625 C9.76584706,0.601559375 11.1097568,0.2890625 12.6679363,0.2890625 C15.0831146,0.2890625 16.8944711,1.14842891 18.1020602,2.8671875 C19.3096494,4.58594609 20.1471583,6.65623789 20.6146122,9.078125 C21.082066,11.5000121 21.2963125,13.9999871 21.257358,16.578125 C21.2184035,19.1562629 21.1989266,21.3046789 21.1989266,23.0234375 C21.1989266,27.9453371 21.0820649,32.8671629 20.848338,37.7890625 C23.1076983,35.9140531 25.3085939,33.7656371 27.4510907,31.34375 C29.5935876,28.9218629 31.4828519,26.46095 33.1189404,23.9609375 C34.1317571,22.4765551 35.3003743,20.4257943 36.6248269,17.8085938 C37.9492795,15.1913932 39.3905739,12.6523561 40.9487535,10.1914062 C42.506933,7.73045645 44.2209048,5.58204043 46.0907202,3.74609375 C47.9605357,1.91014707 49.9471848,0.9921875 52.0507271,0.9921875 C54.3100875,0.9921875 55.9656284,1.6367123 57.0173996,2.92578125 C58.0691708,4.2148502 58.5950485,5.91405195 58.5950485,8.0234375 C58.5950485,11.1484531 58.1081247,14.3515461 57.1342625,17.6328125 C56.1604003,20.9140789 54.8554445,24.1367029 53.219356,27.3007812 C51.5832674,30.4648596 49.732957,33.472642 47.6683691,36.3242188 C45.6037812,39.1757955 43.5197474,41.6562395 41.416205,43.765625 C43.5976563,47.4375184 45.6622133,51.1288877 47.6099377,54.8398438 C49.5576621,58.5507998 51.5053573,62.2812313 53.4530817,66.03125 C54.1542625,67.2812562 54.8359558,68.6484301 55.4981821,70.1328125 C56.1604084,71.6171949 56.7641939,73.1406172 57.3095568,74.703125 C57.8549196,76.2656328 58.3028895,77.8281172 58.6534799,79.390625 C59.0040703,80.9531328 59.1793629,82.437493 59.1793629,83.84375 Z M89.7429017,123.101562 C87.8730862,123.101562 85.7500984,122.808597 83.3738747,122.222656 C80.9976509,121.636716 78.7578014,120.79688 76.654259,119.703125 C74.5507166,118.60937 72.778314,117.281258 71.3369979,115.71875 C69.8956819,114.156242 69.1750346,112.359385 69.1750346,110.328125 C69.1750346,109.546871 69.3698041,108.765629 69.759349,107.984375 C70.1488939,107.203121 70.6747716,106.519534 71.3369979,105.933594 C71.9992242,105.347653 72.7198715,104.878908 73.4989612,104.527344 C74.278051,104.175779 75.096083,104 75.9530817,104 C76.8879894,104 77.8034062,104.136717 78.6993594,104.410156 C79.5953127,104.683595 80.5107294,105.015623 81.4456371,105.40625 C82.4584538,105.796877 83.4517784,106.148436 84.4256406,106.460938 C85.3995028,106.773439 86.4317812,106.929688 87.5225069,106.929688 C89.4702313,106.929688 91.1647262,106.265632 92.6060422,104.9375 C94.0473583,103.609368 95.2744063,101.871104 96.287223,99.7226562 C97.3000397,97.574208 98.1180717,95.1914193 98.7413435,92.5742188 C99.3646153,89.9570182 99.8515391,87.3593879 100.20213,84.78125 C100.55272,82.2031121 100.80592,79.7812613 100.961738,77.515625 C101.117556,75.2499887 101.234418,73.4140695 101.312327,72.0078125 C98.5855127,76.1484582 95.8782163,79.3320201 93.1903566,81.5585938 C90.5024969,83.7851674 87.2108921,84.8984375 83.3154432,84.8984375 C80.3549021,84.8984375 77.7644675,84.2734438 75.5440616,83.0234375 C73.3236558,81.7734312 71.4343914,80.1328227 69.8762119,78.1015625 C68.3180324,76.0703023 67.0325535,73.7461068 66.0197368,71.1289062 C65.0069201,68.5117057 64.247319,65.7968891 63.7409107,62.984375 C63.2345023,60.1718609 62.9033941,57.4179822 62.7475762,54.7226563 C62.5917582,52.0273303 62.5917582,49.5468863 62.7475762,47.28125 C62.8254852,45.5624914 63.0397316,43.3164201 63.390322,40.5429688 C63.7409124,37.7695174 64.305744,35.0547008 65.0848338,32.3984375 C65.8639236,29.7421742 66.9546329,27.4961029 68.3569945,25.6601563 C69.759356,23.8242096 71.5901895,22.9843742 73.8495499,23.140625 C75.3298204,23.2187504 76.5373914,23.8632752 77.4722992,25.0742188 C78.4072069,26.2851623 79.166808,27.7890535 79.7511253,29.5859375 C80.3354427,31.3828215 80.7639356,33.355458 81.036617,35.5039063 C81.3092985,37.6523545 81.484591,39.7812395 81.5625,41.890625 C81.640409,44.0000105 81.6598859,45.933585 81.6209314,47.6914063 C81.581977,49.4492275 81.5625,50.7968703 81.5625,51.734375 C81.5625,53.0625066 81.6014539,54.3906184 81.6793629,55.71875 C81.7572719,57.0468816 82.0299492,58.238276 82.497403,59.2929688 C82.9648569,60.3476615 83.6855041,61.1874969 84.6593663,61.8125 C85.6332286,62.4375031 87.0160921,62.75 88.8079986,62.75 C90.833632,62.75 92.450219,62.2421926 93.6578082,61.2265625 C94.8653973,60.2109324 95.7613371,58.9414139 96.3456544,57.4179688 C96.9299718,55.8945236 97.3000338,54.253915 97.4558518,52.4960938 C97.6116698,50.7382725 97.6895776,49.0781328 97.6895776,47.515625 L97.6895776,43.53125 C97.6895776,41.9687422 97.7090545,40.3281336 97.748009,38.609375 C97.7869635,36.8906164 97.9427791,35.1914146 98.2154605,33.5117188 C98.4881419,31.8320229 98.9166349,30.3086006 99.5009522,28.9414063 C100.08527,27.5742119 100.864348,26.4609418 101.83821,25.6015625 C102.812072,24.7421832 104.078074,24.3125 105.636253,24.3125 C107.583978,24.3125 109.258996,25.0742111 110.661357,26.5976563 C112.063719,28.1211014 113.251813,30.1132689 114.225675,32.5742188 C115.199537,35.0351686 115.978615,37.7499852 116.562933,40.71875 C117.14725,43.6875148 117.59522,46.6367041 117.906856,49.5664063 C118.218492,52.4961084 118.432738,55.1913939 118.549602,57.6523438 C118.666465,60.1132936 118.724896,62.046868 118.724896,63.453125 C118.724896,66.7343914 118.608034,70.4648229 118.374307,74.6445312 C118.140581,78.8242396 117.692611,83.1210717 117.030384,87.5351562 C116.368158,91.9492408 115.374833,96.285135 114.050381,100.542969 C112.725928,104.800803 110.99248,108.609358 108.849983,111.96875 C106.707486,115.328142 104.078097,118.023427 100.961738,120.054688 C97.8453792,122.085948 94.1058044,123.101562 89.7429017,123.101562 Z M272.391794,72.4765625 C272.391794,73.8828195 272.333363,75.7187387 272.216499,77.984375 C272.099636,80.2500113 271.768528,82.4570205 271.223165,84.6054688 C270.677802,86.753917 269.820816,88.6093672 268.652181,90.171875 C267.483547,91.7343828 265.847483,92.515625 263.74394,92.515625 C260.861308,92.515625 258.640936,91.5781344 257.082756,89.703125 C255.524577,87.8281156 254.784453,85.4843891 254.862361,82.671875 C252.369274,84.8593859 249.545116,86.5781187 246.389803,87.828125 C243.234489,89.0781313 240.020792,89.703125 236.748615,89.703125 C234.489255,89.703125 232.34679,89.1562555 230.321157,88.0625 C228.295523,86.9687445 226.503644,85.5625086 224.945464,83.84375 C223.387284,82.1249914 222.14076,80.191417 221.205852,78.0429688 C220.270944,75.8945205 219.803497,73.7656355 219.803497,71.65625 C219.803497,67.9062312 220.952637,64.6250141 223.250952,61.8125 C225.549267,58.9999859 228.373425,56.5976662 231.723511,54.6054688 C235.073597,52.6132713 238.637879,51.0312559 242.416465,49.859375 C246.19505,48.6874941 249.564563,47.906252 252.525104,47.515625 C252.525104,47.124998 252.544581,46.7734391 252.583535,46.4609375 C252.62249,46.1484359 252.641967,45.796877 252.641967,45.40625 C252.641967,42.9843629 251.97975,41.0312574 250.655298,39.546875 C249.330845,38.0624926 247.461058,37.3203125 245.04588,37.3203125 C243.098155,37.3203125 241.423137,37.6523404 240.020776,38.3164062 C238.618414,38.9804721 237.293981,39.7226521 236.047438,40.5429688 C234.800894,41.3632854 233.554369,42.1054654 232.307825,42.7695312 C231.061282,43.4335971 229.658941,43.765625 228.100762,43.765625 C226.386764,43.765625 224.925993,43.2187555 223.718404,42.125 C222.510815,41.0312445 221.907029,39.6250086 221.907029,37.90625 C221.907029,35.3281121 222.66663,32.9843855 224.185855,30.875 C225.70508,28.7656145 227.613822,26.9882885 229.912136,25.5429688 C232.210451,24.097649 234.703501,22.9648479 237.391361,22.1445312 C240.079221,21.3242146 242.552793,20.9140625 244.812154,20.9140625 C246.915696,20.9140625 249.019207,21.1679662 251.122749,21.6757812 C253.226292,22.1835963 255.212941,22.9648385 257.082756,24.0195312 C258.952572,25.074224 260.647067,26.3632736 262.166292,27.8867188 C263.685517,29.4101639 264.912565,31.1874898 265.847472,33.21875 C267.249834,36.1093895 268.379497,39.175765 269.236496,42.4179688 C270.093495,45.6601725 270.755711,48.9804518 271.223165,52.3789062 C271.690619,55.7773607 272.00225,59.1757643 272.158068,62.5742188 C272.313886,65.9726732 272.391794,69.2734215 272.391794,72.4765625 Z M253.693733,68.7265625 L253.343144,60.7578125 C253.187326,60.7578125 253.03151,60.7382814 252.875693,60.6992188 C252.719875,60.6601561 252.564059,60.640625 252.408241,60.640625 C251.395424,60.640625 250.129422,60.8945287 248.610197,61.4023438 C247.090972,61.9101588 245.630201,62.6132768 244.227839,63.5117188 C242.825478,64.4101607 241.637384,65.4062445 240.663521,66.5 C239.689659,67.5937555 239.202735,68.7265566 239.202735,69.8984375 C239.202735,70.992193 239.592274,71.734373 240.371364,72.125 C241.150454,72.515627 242.046394,72.7109375 243.059211,72.7109375 C244.773208,72.7109375 246.604042,72.2617232 248.551766,71.3632812 C250.49949,70.4648393 252.213462,69.5859418 253.693733,68.7265625 Z M301.256925,17.984375 C301.256925,22.2031461 301.081633,26.441385 300.731042,30.6992188 C300.380452,34.9570525 300.205159,39.2343535 300.205159,43.53125 C300.205159,49.0781527 300.380452,54.6249723 300.731042,60.171875 C301.081633,65.7187777 301.256925,71.3046594 301.256925,76.9296875 C301.256925,78.3359445 301.179017,79.91796 301.023199,81.6757812 C300.867381,83.4336025 300.497319,85.0546801 299.913002,86.5390625 C299.328685,88.0234449 298.452222,89.2734324 297.283587,90.2890625 C296.114953,91.3046926 294.556796,91.8125 292.609072,91.8125 C290.739257,91.8125 289.12267,90.8945404 287.759262,89.0585938 C286.395855,87.2226471 285.266192,84.8789205 284.370239,82.0273438 C283.474286,79.175767 282.734162,75.9922051 282.149844,72.4765625 C281.565527,68.9609199 281.137034,65.5429854 280.864352,62.2226562 C280.591671,58.9023271 280.396902,55.8554826 280.280038,53.0820312 C280.163175,50.3085799 280.104744,48.2578191 280.104744,46.9296875 C280.104744,45.4453051 280.163175,43.2968891 280.280038,40.484375 C280.396902,37.6718609 280.650102,34.6250164 281.039647,31.34375 C281.429192,28.0624836 281.955069,24.7226732 282.617296,21.3242188 C283.279522,17.9257643 284.155985,14.8398576 285.246711,12.0664062 C286.337436,9.29295488 287.642392,7.02735254 289.161617,5.26953125 C290.680842,3.51170996 292.492199,2.6328125 294.595741,2.6328125 C296.309738,2.6328125 297.614694,3.19921309 298.510648,4.33203125 C299.406601,5.46484941 300.04934,6.83202324 300.438885,8.43359375 C300.82843,10.0351643 301.062153,11.714835 301.140062,13.4726562 C301.217971,15.2304775 301.256925,16.7343688 301.256925,17.984375 Z M359.805229,72.4765625 C359.805229,73.8828195 359.746798,75.7187387 359.629934,77.984375 C359.513071,80.2500113 359.181963,82.4570205 358.6366,84.6054688 C358.091237,86.753917 357.234251,88.6093672 356.065616,90.171875 C354.896982,91.7343828 353.260918,92.515625 351.157375,92.515625 C348.274743,92.515625 346.054371,91.5781344 344.496191,89.703125 C342.938012,87.8281156 342.197887,85.4843891 342.275796,82.671875 C339.782709,84.8593859 336.958551,86.5781187 333.803238,87.828125 C330.647924,89.0781313 327.434227,89.703125 324.16205,89.703125 C321.90269,89.703125 319.760225,89.1562555 317.734591,88.0625 C315.708958,86.9687445 313.917078,85.5625086 312.358899,83.84375 C310.800719,82.1249914 309.554194,80.191417 308.619287,78.0429688 C307.684379,75.8945205 307.216932,73.7656355 307.216932,71.65625 C307.216932,67.9062312 308.366072,64.6250141 310.664387,61.8125 C312.962702,58.9999859 315.78686,56.5976662 319.136946,54.6054688 C322.487032,52.6132713 326.051314,51.0312559 329.8299,49.859375 C333.608485,48.6874941 336.977998,47.906252 339.938539,47.515625 C339.938539,47.124998 339.958016,46.7734391 339.99697,46.4609375 C340.035925,46.1484359 340.055402,45.796877 340.055402,45.40625 C340.055402,42.9843629 339.393185,41.0312574 338.068733,39.546875 C336.74428,38.0624926 334.874493,37.3203125 332.459314,37.3203125 C330.51159,37.3203125 328.836572,37.6523404 327.434211,38.3164062 C326.031849,38.9804721 324.707416,39.7226521 323.460873,40.5429688 C322.214329,41.3632854 320.967804,42.1054654 319.72126,42.7695312 C318.474717,43.4335971 317.072376,43.765625 315.514197,43.765625 C313.800199,43.765625 312.339428,43.2187555 311.131839,42.125 C309.92425,41.0312445 309.320464,39.6250086 309.320464,37.90625 C309.320464,35.3281121 310.080065,32.9843855 311.59929,30.875 C313.118515,28.7656145 315.027257,26.9882885 317.325571,25.5429688 C319.623886,24.097649 322.116936,22.9648479 324.804796,22.1445312 C327.492655,21.3242146 329.966228,20.9140625 332.225589,20.9140625 C334.329131,20.9140625 336.432642,21.1679662 338.536184,21.6757812 C340.639727,22.1835963 342.626376,22.9648385 344.496191,24.0195312 C346.366007,25.074224 348.060501,26.3632736 349.579726,27.8867188 C351.098952,29.4101639 352.325999,31.1874898 353.260907,33.21875 C354.663269,36.1093895 355.792932,39.175765 356.649931,42.4179688 C357.506929,45.6601725 358.169146,48.9804518 358.6366,52.3789062 C359.104054,55.7773607 359.415685,59.1757643 359.571503,62.5742188 C359.727321,65.9726732 359.805229,69.2734215 359.805229,72.4765625 Z M341.107168,68.7265625 C339.626897,69.5859418 337.912925,70.4648393 335.965201,71.3632812 C334.017476,72.2617232 332.186643,72.7109375 330.472645,72.7109375 C329.459829,72.7109375 328.563889,72.515627 327.784799,72.125 C327.005709,71.734373 326.61617,70.992193 326.61617,69.8984375 C326.61617,68.7265566 327.103094,67.5937555 328.076956,66.5 C329.050819,65.4062445 330.238913,64.4101607 331.641274,63.5117188 C333.043636,62.6132768 334.504407,61.9101588 336.023632,61.4023438 C337.542857,60.8945287 338.808859,60.640625 339.821676,60.640625 C339.977494,60.640625 340.133309,60.6601561 340.289127,60.6992188 C340.444945,60.7382814 340.600761,60.7578125 340.756579,60.7578125 L341.107168,68.7265625 Z M216.541869,48.4614787 C216.541869,58.4035939 211.051292,65.0584189 203.543134,67.0990804 C203.654252,68.4855117 203.718655,69.8744436 203.718655,71.265876 C203.718655,86.0860746 192.059003,91.1166904 181.578332,92.8029582 C178.745283,94.8979494 174.660913,96.2248226 170.099189,96.2248226 C165.537466,96.2248226 161.453095,94.8979494 158.620047,92.8029582 C148.139376,91.1164631 136.479724,86.0833468 136.479724,71.265876 C136.479724,69.8742163 136.544353,68.4852844 136.655244,67.0990804 C129.147087,65.0584189 123.65651,58.4035939 123.65651,48.4614787 C123.65651,36.3907286 131.742706,31.5644745 141.717678,31.5644745 C145.900013,31.5644745 150.193467,32.4801239 153.782343,34.2207215 C158.429105,31.0420907 163.893831,29.1385038 170.099189,29.1385038 C176.304548,29.1385038 181.769273,31.0420907 186.416036,34.2207215 C190.005139,32.4801239 194.298592,31.5644745 198.480928,31.5644745 C208.455672,31.5644745 216.541869,36.3907286 216.541869,48.4614787 Z M179.715409,77.0449588 C179.715409,68.3933453 175.257093,61.3791257 170.096695,61.3791257 C164.936296,61.3791257 160.480475,68.3933453 160.480475,77.0449588 C160.480475,85.6990727 164.936523,87.8897661 170.096695,87.8897661 C175.256867,87.8897661 179.715409,85.6990727 179.715409,77.0449588 Z M159.778619,65.5505307 C159.778619,63.4089387 158.04745,61.6708416 155.90832,61.6708416 C153.76919,61.6708416 152.038021,63.4089387 152.038021,65.5505307 C152.038021,67.6921227 153.76919,69.4302198 155.90832,69.4302198 C158.04745,69.4302198 159.778619,67.6921227 159.778619,65.5505307 Z M188.160131,65.5505307 C188.160131,63.4089387 186.42624,61.6708416 184.289832,61.6708416 C182.153423,61.6708416 180.419533,63.4089387 180.419533,65.5505307 C180.419533,67.6921227 182.153423,69.4302198 184.289832,69.4302198 C186.42624,69.4302198 188.160131,67.6921227 188.160131,65.5505307 Z M148.307186,37.8454823 C147.486729,37.7602369 146.663551,37.7059071 145.845815,37.7059071 C137.865521,37.7059071 131.396881,41.5674105 131.396881,51.2224193 C131.396881,56.7961051 133.559141,61.0715602 136.91331,63.7018926 C138.133791,53.8784389 142.083913,44.5182656 148.307186,37.8454823 Z M194.352564,37.7161366 C193.534601,37.7161366 192.708928,37.7704663 191.888471,37.8557117 C198.111745,44.5287224 202.062094,53.8888957 203.282348,63.712122 C206.639011,61.0817897 208.801271,56.8063346 208.801271,51.2353766 C208.801498,41.5801405 202.333085,37.7161366 194.352564,37.7161366 Z" id="Kyoala-Copy"></path>
        </g>
    </g>
</svg>